SplineFontDB: 3.0
FontName: aghtex_mathsymb_light
FullName: aghtex_mathsymb_light
FamilyName: aghtex_mathsymb
Weight: Light
Copyright: Copyright (C) 2012, Koichi Murase, 1997, 2009, American Mathematical Society (<http://www.ams.org>), with Reserved Font Name MSBM10.
Version: 1.0.28/2012-12-15
ItalicAngle: 0
UnderlinePosition: -136
UnderlineWidth: 20
Ascent: 819
Descent: 205
LayerCount: 2
Layer: 0 1 "+gMyXYgAA"  1
Layer: 1 1 "+Uk2XYgAA"  0
NeedsXUIDChange: 1
UniqueID: 4702302
FSType: 0
OS2Version: 1
OS2_WeightWidthSlopeOnly: 0
OS2_UseTypoMetrics: 0
CreationTime: 878738956
ModificationTime: 1383588104
PfmFamily: 17
TTFWeight: 300
TTFWidth: 5
LineGap: 92
VLineGap: 0
OS2TypoAscent: 0
OS2TypoAOffset: 1
OS2TypoDescent: 0
OS2TypoDOffset: 1
OS2TypoLinegap: 92
OS2WinAscent: 0
OS2WinAOffset: 1
OS2WinDescent: 0
OS2WinDOffset: 1
HheadAscent: 0
HheadAOffset: 1
HheadDescent: 0
HheadDOffset: 1
OS2Vendor: 'PfEd'
MarkAttachClasses: 1
DEI: 91125
ShortTable: maxp 16
  0
  0
  0
  0
  0
  0
  0
  2
  1
  2
  22
  0
  256
  0
  0
  0
EndShort
TtTable: prep
PUSHW_1
 511
SCANCTRL
PUSHB_1
 1
SCANTYPE
SVTCA[y-axis]
MPPEM
PUSHB_1
 8
LT
IF
PUSHB_2
 1
 1
INSTCTRL
EIF
PUSHB_2
 70
 6
CALL
IF
POP
PUSHB_1
 16
EIF
MPPEM
PUSHB_1
 20
GT
IF
POP
PUSHB_1
 128
EIF
SCVTCI
PUSHB_1
 6
CALL
NOT
IF
SVTCA[y-axis]
PUSHB_1
 6
DUP
RCVT
PUSHB_1
 3
CALL
WCVTP
PUSHB_1
 7
DUP
RCVT
PUSHB_3
 6
 58
 2
CALL
PUSHB_1
 3
CALL
WCVTP
PUSHB_1
 8
DUP
RCVT
PUSHB_3
 6
 34
 2
CALL
PUSHB_1
 3
CALL
WCVTP
SVTCA[x-axis]
PUSHB_1
 9
DUP
RCVT
PUSHB_1
 3
CALL
WCVTP
PUSHB_1
 10
DUP
RCVT
PUSHB_3
 9
 58
 2
CALL
PUSHB_2
 3
 70
SROUND
CALL
WCVTP
PUSHB_1
 11
DUP
RCVT
PUSHB_3
 9
 24
 2
CALL
PUSHB_2
 3
 70
SROUND
CALL
WCVTP
EIF
PUSHB_1
 20
CALL
EndTTInstrs
TtTable: fpgm
PUSHB_1
 0
FDEF
PUSHB_1
 0
SZP0
MPPEM
PUSHB_1
 71
LT
IF
PUSHB_1
 74
SROUND
EIF
PUSHB_1
 0
SWAP
MIAP[rnd]
RTG
PUSHB_1
 6
CALL
IF
RTDG
EIF
MPPEM
PUSHB_1
 71
LT
IF
RDTG
EIF
DUP
MDRP[rp0,rnd,grey]
PUSHB_1
 1
SZP0
MDAP[no-rnd]
RTG
ENDF
PUSHB_1
 1
FDEF
DUP
MDRP[rp0,min,white]
PUSHB_1

StartChar: blackdiamond
Encoding: 9830 9830 1
Width: 799
VWidth: 1000
Flags: W
LayerCount: 2
Fore
SplineSet
722 247 m 0,0,1
 541 80 541 80 425 -151 c 0,2,3
 416 -168 416 -168 400 -168 c 0,4,5
 388 -168 388 -168 383.5 -163 c 128,-1,6
 379 -158 379 -158 367 -135 c 0,7,8
 250 91 250 91 74 251 c 1,9,10
 59 266 59 266 55.5 270.5 c 128,-1,11
 52 275 52 275 52 282 c 0,12,13
 52 290 52 290 55.5 295.5 c 128,-1,14
 59 301 59 301 77 317 c 0,15,16
 256 481 256 481 375 715 c 1,17,18
 382 732 382 732 400 732 c 0,19,20
 406 732 406 732 409.5 731 c 128,-1,21
 413 730 413 730 417 725 c 128,-1,22
 421 720 421 720 423.5 715.5 c 128,-1,23
 426 711 426 711 432 699 c 0,24,25
 544 480 544 480 725 313 c 0,26,27
 727 311 727 311 730 308.5 c 128,-1,28
 733 306 733 306 734.5 304.5 c 128,-1,29
 736 303 736 303 738 301 c 128,-1,30
 740 299 740 299 741 298 c 128,-1,31
 742 297 742 297 743 295 c 128,-1,32
 744 293 744 293 744.5 292 c 128,-1,33
 745 291 745 291 746 289 c 128,-1,34
 747 287 747 287 747 285.5 c 128,-1,35
 747 284 747 284 747 282 c 0,36,37
 747 274 747 274 743.5 268.5 c 128,-1,38
 740 263 740 263 722 247 c 0,0,1
EndSplineSet
Validated: 3073
EndChar

StartChar: angle
Encoding: 8736 8736 2
Width: 759
Flags: W
HStem: -5 54<141 704.641> 696 20G<672 684.5>
LayerCount: 2
Fore
SplineSet
53 23 m 0,0,1
 53 33 53 33 61 41 c 2,2,-1
 660 708 l 1,3,4
 665 716 665 716 679 716 c 0,5,6
 690 716 690 716 697.5 707.5 c 128,-1,7
 705 699 705 699 705 689 c 0,8,9
 705 678 705 678 698 671 c 2,10,-1
 141 49 l 1,11,-1
 681 49 l 1,12,-1
 682 49 l 1,13,14
 705 45 705 45 705 23 c 0,15,16
 705 -1 705 -1 682 -5 c 1,17,-1
 681 -5 l 1,18,-1
 79 -5 l 1,19,-1
 78 -5 l 1,20,21
 68 -3 68 -3 60.5 4.5 c 128,-1,22
 53 12 53 12 53 23 c 0,0,1
EndSplineSet
Validated: 19457
EndChar

StartChar: proportional
Encoding: 8733 8733 3
Width: 799
VWidth: 1000
Flags: W
HStem: -16 55<644.214 745.922> -16 42<159.649 307.01> 392 55<155.536 296.786> 405 42<635.472 740>
VStem: 52 35<122.38 302.515>
LayerCount: 2
Fore
SplineSet
435 196 m 1,0,1
 358 311 358 311 318.5 351.5 c 128,-1,2
 279 392 279 392 224 392 c 0,3,4
 163 392 163 392 125 339 c 128,-1,5
 87 286 87 286 87 215 c 0,6,7
 87 141 87 141 124.5 83.5 c 128,-1,8
 162 26 162 26 228 26 c 0,9,10
 270 26 270 26 308.5 46.5 c 128,-1,11
 347 67 347 67 372.5 99 c 128,-1,12
 398 131 398 131 412 153.5 c 128,-1,13
 426 176 426 176 435 196 c 1,0,1
746 43 m 1,14,-1
 746 -11 l 1,15,-1
 742 -12 l 2,16,17
 724 -16 724 -16 704 -16 c 0,18,19
 660 -16 660 -16 622 -1 c 128,-1,20
 584 14 584 14 553.5 43 c 128,-1,21
 523 72 523 72 505.5 94 c 128,-1,22
 488 116 488 116 466 148 c 1,23,24
 374 -16 374 -16 235 -16 c 0,25,26
 151 -16 151 -16 101.5 54 c 128,-1,27
 52 124 52 124 52 215 c 0,28,29
 52 309 52 309 103 378 c 128,-1,30
 154 447 154 447 237 447 c 0,31,32
 281 447 281 447 319 432 c 128,-1,33
 357 417 357 417 387.5 388 c 128,-1,34
 418 359 418 359 435.5 337 c 128,-1,35
 453 315 453 315 475 283 c 1,36,37
 567 447 567 447 706 447 c 0,38,39
 726 447 726 447 738 443 c 1,40,-1
 739 443 l 1,41,-1
 740 443 l 1,42,-1
 740 442 l 1,43,44
 743 440 743 440 744 438 c 0,45,46
 746 432 746 432 746 407 c 2,47,-1
 746 401 l 1,48,-1
 740 402 l 2,49,50
 727 405 727 405 713 405 c 0,51,52
 671 405 671 405 632.5 384.5 c 128,-1,53
 594 364 594 364 568.5 332 c 128,-1,54
 543 300 543 300 529 277.5 c 128,-1,55
 515 255 515 255 506 235 c 1,56,57
 583 120 583 120 622.5 79.5 c 128,-1,58
 662 39 662 39 717 39 c 0,59,60
 734 39 734 39 740 41 c 2,61,-1
 746 43 l 1,14,-1
738 443 m 1,62,-1
 738 443 l 1,62,-1
EndSplineSet
Validated: 19457
EndChar

StartChar: anticlockwise
Encoding: 8634 8634 4
Width: 818
Flags: W
HStem: -101 43<296.102 521.802> 539 39<239.142 278.296> 569 43<394.219 429.779>
VStem: 53 43<143.006 368.398> 721 43<141.262 367.539>
LayerCount: 2
Fore
SplineSet
53 256 m 0,0,1
 53 357 53 357 107.5 444.5 c 128,-1,2
 162 532 162 532 253 575 c 1,3,4
 262 578 262 578 263 578 c 0,5,6
 272 578 272 578 278.5 572 c 128,-1,7
 285 566 285 566 285 557 c 0,8,9
 285 544 285 544 273 539 c 0,10,11
 192 500 192 500 144 423 c 128,-1,12
 96 346 96 346 96 256 c 0,13,14
 96 127 96 127 188 34.5 c 128,-1,15
 280 -58 280 -58 409 -58 c 128,-1,16
 538 -58 538 -58 629.5 34.5 c 128,-1,17
 721 127 721 127 721 256 c 0,18,19
 721 355 721 355 662 438 c 128,-1,20
 603 521 603 521 509 553 c 1,21,-1
 506 543 l 1,22,23
 550 482 550 482 562 409 c 1,24,-1
 563 401 l 1,25,-1
 518 414 l 1,26,-1
 517 417 l 1,27,28
 501 508 501 508 430 568 c 1,29,30
 423 569 423 569 408 569 c 0,31,32
 399 569 399 569 393 576 c 128,-1,33
 387 583 387 583 387 591 c 0,34,35
 387 600 387 600 394 606 c 128,-1,36
 401 612 401 612 411 612 c 0,37,38
 444 612 444 612 474 606 c 1,39,40
 545 626 545 626 593 680 c 1,41,-1
 595 683 l 1,42,-1
 642 671 l 1,43,-1
 636 665 l 2,44,45
 584 613 584 613 536 589 c 1,46,47
 638 550 638 550 701 457.5 c 128,-1,48
 764 365 764 365 764 256 c 0,49,50
 764 108 764 108 660.5 3.5 c 128,-1,51
 557 -101 557 -101 409 -101 c 128,-1,52
 261 -101 261 -101 157 3.5 c 128,-1,53
 53 108 53 108 53 256 c 0,0,1
EndSplineSet
Validated: 19457
EndChar

StartChar: harpoonupright
Encoding: 8638 8638 5
Width: 438
Flags: W
HStem: -204 21G<213 224.5> 696 20G<192 224>
VStem: 192 54<-195.749 601>
LayerCount: 2
Fore
SplineSet
192 -177 m 2,0,-1
 192 716 l 1,1,-1
 222 716 l 1,2,-1
 224 713 l 1,3,4
 274 606 274 606 391 558 c 1,5,-1
 394 556 l 1,6,-1
 394 510 l 1,7,-1
 388 512 l 1,8,9
 306 536 306 536 246 601 c 1,10,-1
 246 -177 l 2,11,12
 246 -188 246 -188 238 -196 c 128,-1,13
 230 -204 230 -204 219 -204 c 0,14,15
 207 -204 207 -204 199.5 -196 c 128,-1,16
 192 -188 192 -188 192 -177 c 2,0,-1
EndSplineSet
Validated: 19457
EndChar

StartChar: curlyright
Encoding: 8620 8620 6
Width: 1051
Flags: W
HStem: 228 55<144.406 349 403 890> 542 55<127.021 299.848>
VStem: 32 54<332.861 501.809> 349 54<-49.625 228 283 484.854>
LayerCount: 2
Fore
SplineSet
86 413 m 0,0,1
 86 386 86 386 93 365 c 128,-1,2
 100 344 100 344 110 330.5 c 128,-1,3
 120 317 120 317 139.5 307.5 c 128,-1,4
 159 298 159 298 174 293 c 128,-1,5
 189 288 189 288 217 286 c 128,-1,6
 245 284 245 284 261.5 283.5 c 128,-1,7
 278 283 278 283 310 283 c 2,8,-1
 349 283 l 1,9,10
 347 400 347 400 339 445 c 0,11,12
 329 497 329 497 300.5 519.5 c 128,-1,13
 272 542 272 542 217 542 c 0,14,15
 148 542 148 542 117 512 c 128,-1,16
 86 482 86 482 86 413 c 0,0,1
349 228 m 1,17,-1
 310 228 l 2,18,19
 259 228 259 228 227.5 230 c 128,-1,20
 196 232 196 232 154.5 242 c 128,-1,21
 113 252 113 252 89.5 270.5 c 128,-1,22
 66 289 66 289 49 325 c 128,-1,23
 32 361 32 361 32 413 c 0,24,25
 32 597 32 597 217 597 c 0,26,27
 251 597 251 597 278 590 c 128,-1,28
 305 583 305 583 324 567 c 128,-1,29
 343 551 343 551 357 535 c 128,-1,30
 371 519 371 519 379 492 c 128,-1,31
 387 465 387 465 392.5 444.5 c 128,-1,32
 398 424 398 424 400 390.5 c 128,-1,33
 402 357 402 357 402.5 337 c 128,-1,34
 403 317 403 317 403 283 c 1,35,-1
 890 283 l 1,36,37
 829 343 829 343 795 424 c 1,38,-1
 793 431 l 1,39,-1
 839 431 l 1,40,-1
 841 428 l 1,41,42
 889 311 889 311 995 260 c 1,43,-1
 1004 256 l 1,44,-1
 995 252 l 1,45,46
 889 200 889 200 841 83 c 1,47,-1
 839 80 l 1,48,-1
 793 80 l 1,49,-1
 795 87 l 1,50,51
 829 168 829 168 890 228 c 1,52,-1
 403 228 l 1,53,-1
 403 -26 l 1,54,55
 396 -50 396 -50 376 -50 c 0,56,57
 365 -50 365 -50 358 -42.5 c 128,-1,58
 351 -35 351 -35 349 -26 c 1,59,-1
 349 -25 l 1,60,-1
 349 228 l 1,17,-1
EndSplineSet
Validated: 19457
EndChar

StartChar: eqgreater
Encoding: 8925 8925 7
Width: 799
VWidth: 1000
Flags: W
HStem: -159 52<81.3507 102> 400 54<81.8086 104> 604 53<81.3516 716.648>
LayerCount: 2
Fore
SplineSet
717 631 m 0,0,1
 717 604 717 604 677 604 c 2,2,-1
 121 604 l 2,3,4
 81 604 81 604 81 631 c 0,5,6
 81 657 81 657 121 657 c 2,7,-1
 677 657 l 2,8,9
 717 657 717 657 717 631 c 0,0,1
717 148 m 0,10,11
 717 133 717 133 695 121 c 1,12,-1
 128 -151 l 2,13,14
 113 -159 113 -159 108 -159 c 2,15,-1
 107 -159 l 2,16,17
 98 -159 98 -159 89.5 -151.5 c 128,-1,18
 81 -144 81 -144 81 -132 c 0,19,20
 81 -117 81 -117 102 -107 c 2,21,-1
 629 148 l 1,22,-1
 104 400 l 2,23,24
 81 412 81 412 81 428 c 0,25,26
 81 437 81 437 88.5 445.5 c 128,-1,27
 96 454 96 454 108 454 c 0,28,29
 114 454 114 454 126 447 c 1,30,-1
 694 175 l 1,31,32
 717 162 717 162 717 148 c 0,10,11
EndSplineSet
Validated: 19457
EndChar

StartChar: geq
Encoding: 8805 8805 8
Width: 799
VWidth: 1000
Flags: W
HStem: -159 53<81.3516 716.648> 44 54<81.8086 104> 605 52<81.3507 102>
LayerCount: 2
Fore
SplineSet
121 -159 m 2,0,1
 81 -159 81 -159 81 -133 c 0,2,3
 81 -106 81 -106 121 -106 c 2,4,-1
 677 -106 l 2,5,6
 717 -106 717 -106 717 -133 c 0,7,8
 717 -159 717 -159 677 -159 c 2,9,-1
 121 -159 l 2,0,1
126 51 m 1,10,11
 114 44 114 44 108 44 c 0,12,13
 96 44 96 44 88.5 52.5 c 128,-1,14
 81 61 81 61 81 70 c 0,15,16
 81 86 81 86 104 98 c 2,17,-1
 629 350 l 1,18,-1
 102 605 l 2,19,20
 81 615 81 615 81 630 c 0,21,22
 81 642 81 642 89.5 649.5 c 128,-1,23
 98 657 98 657 107 657 c 2,24,-1
 108 657 l 2,25,26
 113 657 113 657 128 649 c 2,27,-1
 695 377 l 1,28,29
 717 365 717 365 717 350 c 0,30,31
 717 336 717 336 694 323 c 1,32,-1
 126 51 l 1,10,11
EndSplineSet
Validated: 19457
EndChar

StartChar: rightarrow
Encoding: 8594 8594 9
Width: 1027
VWidth: 1000
Flags: W
HStem: 224 53<55.6102 865>
VStem: 766 46<66.5317 128.584 371.072 434.719>
LayerCount: 2
Fore
SplineSet
92 224 m 6,0,1
 83 224 83 224 78 224.5 c 128,-1,2
 73 225 73 225 66 227.5 c 128,-1,3
 59 230 59 230 55.5 235.5 c 128,-1,4
 52 241 52 241 52 251 c 0,5,6
 52 277 52 277 92 277 c 2,7,-1
 865 277 l 1,8,9
 820 313 820 313 794 355 c 128,-1,10
 768 397 768 397 766 415 c 1,11,-1
 766 417 l 2,12,13
 766 435 766 435 786 435 c 0,14,15
 800 435 800 435 807 421 c 0,16,17
 816 400 816 400 824 386.5 c 128,-1,18
 832 373 832 373 849 349.5 c 128,-1,19
 866 326 866 326 893.5 306 c 128,-1,20
 921 286 921 286 957 270 c 0,21,22
 969 264 969 264 971 262 c 2,23,-1
 974 256 l 2,24,25
 975 254 975 254 975 250 c 0,26,27
 975 238 975 238 963 233 c 0,28,29
 858 189 858 189 812 91 c 0,30,31
 804 73 804 73 798 69 c 0,32,33
 797 68 797 68 795 68 c 0,34,35
 789 66 789 66 786 66 c 0,36,37
 766 66 766 66 766 84 c 2,38,-1
 766 86 l 1,39,40
 769 104 769 104 795 146 c 128,-1,41
 821 188 821 188 865 224 c 1,42,-1
 92 224 l 6,0,1
EndSplineSet
Validated: 19457
EndChar

StartChar: check
Encoding: 10003 10003 10
Width: 876
Flags: W
LayerCount: 2
Fore
SplineSet
86 226 m 1,0,1
 83 228 83 228 83 232 c 0,2,3
 83 252 83 252 115 270.5 c 128,-1,4
 147 289 147 289 168 292 c 1,5,-1
 169 292 l 1,6,-1
 176 292 l 1,7,-1
 178 291 l 2,8,9
 179 290 179 290 181 289 c 0,10,11
 183 287 183 287 184 285 c 2,12,-1
 282 128 l 1,13,14
 346 311 346 311 470 468 c 0,15,16
 524 536 524 536 622 626.5 c 128,-1,17
 720 717 720 717 774 724 c 1,18,-1
 775 724 l 1,19,-1
 781 724 l 1,20,-1
 782 723 l 1,21,-1
 784 723 l 1,22,23
 792 720 792 720 792 711 c 0,24,25
 792 698 792 698 778 687 c 0,26,27
 763 674 763 674 736 653.5 c 128,-1,28
 709 633 709 633 702 628 c 0,29,30
 683 613 683 613 635 565 c 0,31,32
 549 479 549 479 487 380 c 0,33,34
 384 214 384 214 344 22 c 0,35,36
 339 0 339 0 310.5 -16.5 c 128,-1,37
 282 -33 282 -33 259 -36 c 1,38,-1
 258 -36 l 1,39,-1
 252 -36 l 1,40,-1
 251 -36 l 1,41,42
 250 -35 250 -35 249 -35 c 0,43,44
 246 -33 246 -33 243 -29 c 2,45,-1
 86 226 l 1,0,1
EndSplineSet
Validated: 3073
EndChar

StartChar: downfall
Encoding: 8910 8910 11
Width: 806
Flags: W
HStem: 543 54<92.2817 182.939 621.675 713.718>
VStem: 376 54<-27.6172 220.109>
LayerCount: 2
Fore
SplineSet
107 543 m 0,0,1
 98 544 98 544 90.5 551.5 c 128,-1,2
 83 559 83 559 83 570 c 0,3,4
 83 582 83 582 92 589.5 c 128,-1,5
 101 597 101 597 112 597 c 1,6,7
 331 576 331 576 403 273 c 1,8,9
 417 335 417 335 439 386.5 c 128,-1,10
 461 438 461 438 495 485 c 128,-1,11
 529 532 529 532 580 561.5 c 128,-1,12
 631 591 631 591 694 597 c 1,13,14
 705 597 705 597 714 589.5 c 128,-1,15
 723 582 723 582 723 570 c 0,16,17
 723 559 723 559 715.5 551.5 c 128,-1,18
 708 544 708 544 699 543 c 0,19,20
 631 536 631 536 580 494 c 128,-1,21
 529 452 529 452 501.5 396 c 128,-1,22
 474 340 474 340 457 264 c 128,-1,23
 440 188 440 188 435 126 c 128,-1,24
 430 64 430 64 430 -3 c 2,25,-1
 430 -4 l 1,26,27
 428 -12 428 -12 421 -20 c 128,-1,28
 414 -28 414 -28 403 -28 c 0,29,30
 380 -28 380 -28 376 -4 c 1,31,-1
 376 -3 l 2,32,33
 376 64 376 64 371 126 c 128,-1,34
 366 188 366 188 349 264 c 128,-1,35
 332 340 332 340 304.5 396 c 128,-1,36
 277 452 277 452 226 494 c 128,-1,37
 175 536 175 536 107 543 c 0,0,1
EndSplineSet
Validated: 19457
EndChar

StartChar: dotplus
Encoding: 8724 8724 12
Width: 818
Flags: W
HStem: 228 55<53.5292 382 436 763.5> 686 121<367.564 451.436>
VStem: 349 121<704.049 788.436> 382 54<-107.625 228 283 618.625>
LayerCount: 2
Fore
SplineSet
349 746 m 128,-1,1
 349 771 349 771 367 789 c 128,-1,2
 385 807 385 807 410 807 c 128,-1,3
 435 807 435 807 452.5 789 c 128,-1,4
 470 771 470 771 470 746 c 128,-1,5
 470 721 470 721 452 703.5 c 128,-1,6
 434 686 434 686 410 686 c 0,7,8
 385 686 385 686 367 703.5 c 128,-1,0
 349 721 349 721 349 746 c 128,-1,1
382 228 m 1,9,-1
 79 228 l 1,10,-1
 78 228 l 1,11,12
 68 230 68 230 60.5 237.5 c 128,-1,13
 53 245 53 245 53 256 c 0,14,15
 53 266 53 266 60.5 273.5 c 128,-1,16
 68 281 68 281 78 283 c 1,17,-1
 79 283 l 1,18,-1
 382 283 l 1,19,-1
 382 594 l 1,20,-1
 382 595 l 1,21,22
 386 619 386 619 410 619 c 0,23,24
 432 619 432 619 436 595 c 1,25,-1
 436 594 l 1,26,-1
 436 283 l 1,27,-1
 739 283 l 1,28,-1
 740 283 l 1,29,30
 748 281 748 281 756 274 c 128,-1,31
 764 267 764 267 764 256 c 128,-1,32
 764 245 764 245 757 237.5 c 128,-1,33
 750 230 750 230 740 228 c 1,34,-1
 739 228 l 1,35,-1
 436 228 l 1,36,-1
 436 -83 l 1,37,-1
 436 -84 l 1,38,39
 432 -108 432 -108 410 -108 c 0,40,41
 386 -108 386 -108 382 -84 c 1,42,-1
 382 -83 l 1,43,-1
 382 228 l 1,9,-1
EndSplineSet
Validated: 19457
EndChar

StartChar: harpoonrightleft
Encoding: 8652 8652 13
Width: 1051
Flags: W
HStem: 125 54<168 990.265> 333 54<61.251 884>
LayerCount: 2
Fore
SplineSet
81 387 m 2,0,-1
 884 387 l 1,1,2
 820 445 820 445 795 529 c 1,3,-1
 793 535 l 1,4,-1
 839 535 l 1,5,-1
 841 532 l 1,6,7
 889 414 889 414 995 363 c 1,8,-1
 998 362 l 1,9,-1
 998 333 l 1,10,-1
 81 333 l 2,11,12
 70 333 70 333 61.5 340.5 c 128,-1,13
 53 348 53 348 53 359 c 128,-1,14
 53 370 53 370 61 378.5 c 128,-1,15
 69 387 69 387 81 387 c 2,0,-1
56 148 m 1,16,-1
 53 149 l 1,17,-1
 53 179 l 1,18,-1
 972 179 l 2,19,20
 983 179 983 179 990.5 171 c 128,-1,21
 998 163 998 163 998 152 c 128,-1,22
 998 141 998 141 990.5 133 c 128,-1,23
 983 125 983 125 972 125 c 2,24,-1
 168 125 l 1,25,26
 232 65 232 65 257 -18 c 1,27,-1
 259 -24 l 1,28,-1
 213 -24 l 1,29,-1
 211 -21 l 1,30,31
 163 97 163 97 56 148 c 1,16,-1
EndSplineSet
Validated: 19457
EndChar

StartChar: harpoonupleft
Encoding: 8639 8639 14
Width: 438
Flags: W
HStem: -204 21G<214 225.5> 696 20G<216 247>
VStem: 193 54<-195.749 601>
LayerCount: 2
Fore
SplineSet
193 601 m 1,0,1
 133 537 133 537 50 512 c 1,2,-1
 44 510 l 1,3,-1
 44 556 l 1,4,-1
 47 558 l 1,5,6
 165 606 165 606 216 713 c 1,7,-1
 217 716 l 1,8,-1
 247 716 l 1,9,-1
 247 -177 l 2,10,11
 247 -188 247 -188 239 -196 c 128,-1,12
 231 -204 231 -204 220 -204 c 0,13,14
 208 -204 208 -204 200.5 -196 c 128,-1,15
 193 -188 193 -188 193 -177 c 2,16,-1
 193 601 l 1,0,1
EndSplineSet
Validated: 19457
EndChar

StartChar: followsorequal
Encoding: -1 8829 15
Width: 799
VWidth: 1000
Flags: MW
HStem: -246 60<502 612.5 502 624.5> -63 60<186 296> 429 43<599.5 693 599.5 693>
VStem: 57 30<-220 -212 -212 -180 -220 -163> 711 30<-69 -37 -37 -29>
LayerCount: 2
Fore
SplineSet
72 -246 m 128,-1,1
 60 -246 60 -246 57 -220 c 1,2,-1
 57 -212 l 2,3,4
 57 -132 57 -132 104.5 -67.5 c 128,-1,5
 152 -3 152 -3 228 -3 c 0,6,7
 267 -3 267 -3 304.5 -22 c 128,-1,8
 342 -41 342 -41 372 -67.5 c 128,-1,9
 402 -94 402 -94 431.5 -121 c 128,-1,10
 461 -148 461 -148 497 -167 c 128,-1,11
 533 -186 533 -186 570 -186 c 0,12,13
 632 -186 632 -186 671.5 -139 c 128,-1,14
 711 -92 711 -92 711 -29 c 1,15,16
 714 -3 714 -3 726 -3 c 128,-1,17
 738 -3 738 -3 741 -29 c 1,18,-1
 741 -37 l 2,19,20
 741 -117 741 -117 694 -181.5 c 128,-1,21
 647 -246 647 -246 570 -246 c 0,22,23
 531 -246 531 -246 493.5 -227 c 128,-1,24
 456 -208 456 -208 426 -181 c 128,-1,25
 396 -154 396 -154 366.5 -127.5 c 128,-1,26
 337 -101 337 -101 301 -82 c 128,-1,27
 265 -63 265 -63 228 -63 c 0,28,29
 167 -63 167 -63 127 -110.5 c 128,-1,30
 87 -158 87 -158 87 -220 c 1,31,0
 84 -246 84 -246 72 -246 c 128,-1,1
108 149 m 0,32,33
 86 149 86 149 86 173 c 1,34,35
 108 391 108 391 417 451 c 1,36,37
 108 509 108 509 86 729 c 0,38,39
 86 738 86 738 92 745 c 128,-1,40
 98 752 98 752 108 752 c 0,41,42
 125 752 125 752 129 733 c 1,43,44
 134 682 134 682 159 641 c 128,-1,45
 184 600 184 600 218.5 573.5 c 128,-1,46
 253 547 253 547 303.5 527 c 128,-1,47
 354 507 354 507 400 497 c 128,-1,48
 446 487 446 487 504.5 481 c 128,-1,49
 563 475 563 475 603.5 473.5 c 128,-1,50
 644 472 644 472 693 472 c 1,51,52
 712 468 712 468 712 451 c 0,53,54
 712 433 712 433 693 429 c 1,55,56
 644 429 644 429 603.5 427.5 c 128,-1,57
 563 426 563 426 504 420 c 128,-1,58
 445 414 445 414 399 404 c 128,-1,59
 353 394 353 394 303 374 c 128,-1,60
 253 354 253 354 218.5 327.5 c 128,-1,61
 184 301 184 301 159 260.5 c 128,-1,62
 134 220 134 220 129 169 c 1,63,64
 125 149 125 149 108 149 c 0,32,33
EndSplineSet
Validated: 1
EndChar

StartChar: squareimage
Encoding: 8847 8847 16
Width: 818
Flags: W
HStem: -58 54<137 734.625> 515 54<137 734.625>
VStem: 83 54<-4 515>
LayerCount: 2
Fore
SplineSet
83 545 m 2,0,1
 83 563 83 563 108 569 c 1,2,-1
 109 569 l 1,3,-1
 710 569 l 1,4,-1
 711 569 l 1,5,6
 735 565 735 565 735 543 c 0,7,8
 735 519 735 519 711 515 c 1,9,-1
 710 515 l 1,10,-1
 137 515 l 1,11,-1
 137 -4 l 1,12,-1
 710 -4 l 1,13,-1
 711 -4 l 1,14,15
 735 -8 735 -8 735 -32 c 0,16,17
 735 -54 735 -54 711 -58 c 1,18,-1
 710 -58 l 1,19,-1
 109 -58 l 2,20,21
 89 -58 89 -58 83 -35 c 1,22,-1
 83 545 l 2,0,1
EndSplineSet
Validated: 19457
EndChar

StartChar: triangle
Encoding: 9651 9651 17
Width: 743
Flags: W
HStem: -28 56<152 591>
LayerCount: 2
Fore
SplineSet
152 28 m 1,0,-1
 591 28 l 1,1,-1
 372 505 l 1,2,-1
 152 28 l 1,0,-1
83 -0 m 0,3,4
 83 6 83 6 84 9 c 1,5,6
 84 10 l 1,7,-1
 346 580 l 1,8,9
 355 597 355 597 372 597 c 0,10,11
 388 597 388 597 397 580 c 1,12,-1
 659 10 l 2,13,14
 660 8 660 8 660 0 c 0,15,16
 660 -22 660 -22 637 -28 c 1,17,-1
 107 -28 l 1,18,19
 83 -22 83 -22 83 -0 c 0,3,4
EndSplineSet
Validated: 19457
EndChar

StartChar: nand
Encoding: 8892 8892 18
Width: 643
Flags: W
HStem: -5 21G<75.5 89.5 553 567.5> 684 54<53.6104 588.506>
VStem: 53 51<-4.40027 9> 537 52<-4.56934 12>
LayerCount: 2
Fore
SplineSet
53 712 m 0,0,1
 53 734 53 734 78 738 c 1,2,-1
 79 738 l 1,3,-1
 564 738 l 1,4,-1
 565 738 l 1,5,6
 575 736 575 736 582 729 c 128,-1,7
 589 722 589 722 589 712 c 0,8,9
 589 701 589 701 582 693.5 c 128,-1,10
 575 686 575 686 565 684 c 1,11,-1
 564 684 l 1,12,-1
 79 684 l 1,13,-1
 78 684 l 1,14,15
 68 686 68 686 60.5 693.5 c 128,-1,16
 53 701 53 701 53 712 c 0,0,1
57 36 m 2,17,-1
 299 517 l 2,18,19
 306 530 306 530 322 530 c 0,20,21
 336 530 336 530 346 514 c 1,22,-1
 588 33 l 2,23,24
 589 29 589 29 589 23 c 0,25,26
 589 13 589 13 581 4 c 128,-1,27
 573 -5 573 -5 562 -5 c 0,28,29
 544 -5 544 -5 537 12 c 1,30,-1
 322 444 l 1,31,-1
 104 9 l 2,32,33
 98 -5 98 -5 81 -5 c 0,34,35
 70 -5 70 -5 61.5 3.5 c 128,-1,36
 53 12 53 12 53 23 c 0,37,38
 53 28 53 28 57 36 c 2,17,-1
EndSplineSet
Validated: 19457
EndChar

StartChar: multiopenright
Encoding: 8908 8908 19
Width: 818
Flags: W
HStem: 696 20G<730.5 741>
LayerCount: 2
Fore
SplineSet
53 -1 m 0,0,1
 53 8 53 8 61 18 c 1,2,-1
 717 708 l 2,3,4
 725 716 725 716 736 716 c 0,5,6
 746 716 746 716 755 708 c 128,-1,7
 764 700 764 700 764 689 c 128,-1,8
 764 678 764 678 757 671 c 2,9,-1
 446 344 l 1,10,-1
 757 18 l 1,11,12
 764 8 764 8 764 -1 c 0,13,14
 764 -12 764 -12 755 -20 c 128,-1,15
 746 -28 746 -28 736 -28 c 128,-1,16
 726 -28 726 -28 717 -19 c 2,17,-1
 409 305 l 1,18,-1
 100 -19 l 2,19,20
 91 -28 91 -28 81 -28 c 128,-1,21
 71 -28 71 -28 62 -20 c 128,-1,22
 53 -12 53 -12 53 -1 c 0,0,1
EndSplineSet
Validated: 19457
EndChar

StartChar: revasymptequal
Encoding: 8909 8909 20
Width: 818
Flags: W
HStem: 21 54<53.4944 763.525> 250 71<158.477 316.858> 418 71<501.296 659.23>
VStem: 53 41<388.866 485.809> 723 41<253.191 351.052>
LayerCount: 2
Fore
SplineSet
53 450 m 2,0,-1
 53 458 l 1,1,-1
 53 459 l 1,2,3
 56 481 56 481 66 487 c 0,4,5
 70 489 70 489 74 489 c 0,6,7
 79 489 79 489 83 486 c 0,8,9
 92 480 92 480 94 459 c 1,10,-1
 94 458 l 2,11,12
 94 402 94 402 135.5 361.5 c 128,-1,13
 177 321 177 321 233 321 c 0,14,15
 278 321 278 321 324.5 347.5 c 128,-1,16
 371 374 371 374 405 405 c 128,-1,17
 439 436 439 436 487.5 462.5 c 128,-1,18
 536 489 536 489 584 489 c 0,19,20
 661 489 661 489 712.5 429 c 128,-1,21
 764 369 764 369 764 290 c 2,22,-1
 764 282 l 1,23,-1
 764 281 l 1,24,25
 762 259 762 259 751 252 c 0,26,27
 747 250 747 250 743 250 c 0,28,29
 738 250 738 250 734 253 c 0,30,31
 727 259 727 259 723 281 c 1,32,-1
 723 282 l 2,33,34
 723 338 723 338 681.5 378 c 128,-1,35
 640 418 640 418 584 418 c 0,36,37
 547 418 547 418 510.5 400.5 c 128,-1,38
 474 383 474 383 443 358.5 c 128,-1,39
 412 334 412 334 380.5 309.5 c 128,-1,40
 349 285 349 285 310.5 267.5 c 128,-1,41
 272 250 272 250 233 250 c 0,42,43
 156 250 156 250 104.5 310.5 c 128,-1,44
 53 371 53 371 53 450 c 2,0,-1
53 47 m 128,-1,46
 53 69 53 69 78 75 c 1,47,-1
 740 75 l 1,48,49
 764 68 764 68 764 47 c 0,50,51
 764 37 764 37 756.5 30 c 128,-1,52
 749 23 749 23 740 21 c 1,53,-1
 739 21 l 1,54,-1
 79 21 l 1,55,-1
 78 21 l 1,56,45
 53 25 53 25 53 47 c 128,-1,46
EndSplineSet
Validated: 19457
EndChar

StartChar: forces
Encoding: 8873 8873 21
Width: 759
Flags: W
HStem: -5 21G<69 92 277 300> 329 54<315 704.725> 696 20G<75.5 86 283.5 294>
VStem: 53 54<-4.625 715.506> 261 54<-4.625 329 383 715.506>
LayerCount: 2
Fore
SplineSet
261 20 m 1,0,-1
 261 691 l 1,1,-1
 261 692 l 1,2,3
 263 702 263 702 270.5 709 c 128,-1,4
 278 716 278 716 289 716 c 0,5,6
 299 716 299 716 306 709 c 128,-1,7
 313 702 313 702 315 692 c 1,8,-1
 315 691 l 1,9,-1
 315 383 l 1,10,-1
 681 383 l 1,11,-1
 682 383 l 1,12,13
 705 378 705 378 705 356 c 0,14,15
 705 333 705 333 682 329 c 1,16,-1
 681 329 l 1,17,-1
 315 329 l 1,18,-1
 315 20 l 1,19,-1
 315 19 l 1,20,21
 311 -5 311 -5 289 -5 c 0,22,23
 265 -5 265 -5 261 19 c 1,24,-1
 261 20 l 1,0,-1
53 20 m 1,25,-1
 53 691 l 1,26,-1
 53 692 l 1,27,28
 55 702 55 702 62.5 709 c 128,-1,29
 70 716 70 716 81 716 c 0,30,31
 91 716 91 716 98 709 c 128,-1,32
 105 702 105 702 107 692 c 1,33,-1
 107 691 l 1,34,-1
 107 20 l 1,35,-1
 107 19 l 1,36,37
 103 -5 103 -5 81 -5 c 0,38,39
 57 -5 57 -5 53 19 c 1,40,-1
 53 20 l 1,25,-1
EndSplineSet
Validated: 19457
EndChar

StartChar: arrowtailright
Encoding: 8611 8611 22
Width: 1169
Flags: W
HStem: 228 55<204.496 1007>
LayerCount: 2
Fore
SplineSet
174 235 m 1,0,-1
 174 276 l 1,1,2
 107 335 107 335 71 424 c 1,3,-1
 69 431 l 1,4,-1
 115 431 l 1,5,-1
 117 428 l 1,6,7
 153 336 153 336 232 283 c 1,8,-1
 1007 283 l 1,9,10
 944 344 944 344 911 424 c 1,11,-1
 909 431 l 1,12,-1
 955 431 l 1,13,-1
 957 428 l 1,14,15
 1005 311 1005 311 1112 260 c 1,16,-1
 1121 256 l 1,17,-1
 1112 252 l 1,18,19
 1005 199 1005 199 957 83 c 1,20,-1
 955 80 l 1,21,-1
 909 80 l 1,22,-1
 911 87 l 1,23,24
 944 167 944 167 1007 228 c 1,25,-1
 232 228 l 1,26,27
 155 176 155 176 117 83 c 1,28,-1
 115 80 l 1,29,-1
 69 80 l 1,30,-1
 71 87 l 1,31,32
 107 176 107 176 174 235 c 1,0,-1
EndSplineSet
Validated: 19457
EndChar

StartChar: leqq
Encoding: 8806 8806 23
Width: 818
Flags: W
HStem: -202 54<83.4944 733.725> 6 54<83.4944 733.725> 170 50<721 733.436> 746 52<718 733.588>
LayerCount: 2
Fore
SplineSet
83 484 m 0,0,1
 83 500 83 500 100 509 c 2,2,-1
 697 796 l 2,3,4
 701 798 701 798 708 798 c 0,5,6
 719 798 719 798 726.5 789.5 c 128,-1,7
 734 781 734 781 734 771 c 0,8,9
 734 753 734 753 718 746 c 2,10,-1
 173 484 l 1,11,-1
 721 220 l 2,12,13
 734 214 734 214 734 198 c 0,14,15
 734 187 734 187 726 178.5 c 128,-1,16
 718 170 718 170 708 170 c 2,17,-1
 707 170 l 1,18,-1
 702 170 l 2,19,20
 699 170 699 170 696 173 c 1,21,-1
 97 460 l 2,22,23
 83 466 83 466 83 484 c 0,0,1
83 33 m 0,24,25
 83 56 83 56 108 60 c 1,26,-1
 109 60 l 1,27,-1
 710 60 l 1,28,-1
 711 60 l 1,29,30
 734 56 734 56 734 33 c 0,31,32
 734 11 734 11 711 6 c 1,33,-1
 710 6 l 1,34,-1
 109 6 l 1,35,-1
 108 6 l 1,36,37
 98 8 98 8 90.5 15.5 c 128,-1,38
 83 23 83 23 83 33 c 0,24,25
83 -175 m 0,39,40
 83 -152 83 -152 108 -148 c 1,41,-1
 109 -148 l 1,42,-1
 710 -148 l 1,43,-1
 711 -148 l 1,44,45
 734 -152 734 -152 734 -175 c 0,46,47
 734 -197 734 -197 711 -202 c 1,48,-1
 710 -202 l 1,49,-1
 109 -202 l 1,50,-1
 108 -202 l 1,51,52
 98 -200 98 -200 90.5 -192.5 c 128,-1,53
 83 -185 83 -185 83 -175 c 0,39,40
EndSplineSet
Validated: 19457
EndChar

StartChar: triangleright
Encoding: 8882 8882 24
Width: 818
Flags: W
VStem: 83 54<12 499>
LayerCount: 2
Fore
SplineSet
137 12 m 1,0,-1
 644 256 l 1,1,-1
 137 499 l 1,2,-1
 137 12 l 1,0,-1
83 -34 m 1,3,-1
 83 545 l 1,4,-1
 83 546 l 1,5,6
 87 569 87 569 111 569 c 0,7,8
 117 569 117 569 121 568 c 2,9,-1
 718 280 l 2,10,11
 735 271 735 271 735 256 c 0,12,13
 735 238 735 238 721 232 c 2,14,-1
 121 -57 l 2,15,16
 117 -58 117 -58 111 -58 c 0,17,18
 87 -58 87 -58 83 -35 c 1,19,-1
 83 -34 l 1,3,-1
EndSplineSet
Validated: 19457
EndChar

StartChar: triangleinv
Encoding: 9661 9661 25
Width: 743
Flags: W
HStem: 543 54<152 591>
LayerCount: 2
Fore
SplineSet
372 64 m 1,0,-1
 591 543 l 1,1,-1
 152 543 l 1,2,-1
 372 64 l 1,0,-1
84 559 m 2,3,4
 83 561 83 561 83 569 c 0,5,6
 83 591 83 591 107 597 c 1,7,-1
 637 597 l 1,8,9
 660 591 660 591 660 569 c 0,10,11
 660 563 660 563 659 560 c 1,12,-1
 659 559 l 1,13,-1
 397 -10 l 2,14,15
 389 -28 389 -28 372 -28 c 0,16,17
 356 -28 356 -28 346 -10 c 1,18,-1
 84 559 l 2,3,4
EndSplineSet
Validated: 19457
EndChar

StartChar: measuredangle
Encoding: 8737 8737 26
Width: 759
Flags: W
HStem: -5 54<140 408 464 704.641>
VStem: 408 56<49 142.938>
LayerCount: 2
Fore
SplineSet
140 49 m 1,0,-1
 408 49 l 1,1,2
 394 167 394 167 321 257 c 1,3,-1
 140 49 l 1,0,-1
53 23 m 0,4,5
 53 33 53 33 61 41 c 2,6,-1
 660 730 l 1,7,8
 665 738 665 738 679 738 c 0,9,10
 690 738 690 738 697.5 730 c 128,-1,11
 705 722 705 722 705 711 c 0,12,13
 705 699 705 699 698 692 c 2,14,-1
 357 299 l 1,15,16
 398 250 398 250 430.5 178 c 128,-1,17
 463 106 463 106 464 49 c 1,18,-1
 681 49 l 1,19,-1
 682 49 l 1,20,21
 705 45 705 45 705 23 c 0,22,23
 705 -1 705 -1 682 -5 c 1,24,-1
 681 -5 l 1,25,-1
 465 -5 l 1,26,27
 459 -28 459 -28 438 -28 c 0,28,29
 419 -28 419 -28 412 -5 c 1,30,-1
 79 -5 l 1,31,-1
 78 -5 l 1,32,33
 68 -3 68 -3 60.5 4.5 c 128,-1,34
 53 12 53 12 53 23 c 0,4,5
EndSplineSet
Validated: 19457
EndChar

StartChar: superseteq
Encoding: 8839 8839 27
Width: 799
VWidth: 1000
Flags: W
HStem: -159 53<84.6102 694.657> 44 53<84.6102 509.182> 604 53<84.6102 509.827>
VStem: 664 53<247.885 453.026>
LayerCount: 2
Fore
SplineSet
121 -159 m 2,0,1
 112 -159 112 -159 107 -158.5 c 128,-1,2
 102 -158 102 -158 95 -155.5 c 128,-1,3
 88 -153 88 -153 84.5 -147.5 c 128,-1,4
 81 -142 81 -142 81 -132 c 0,5,6
 81 -106 81 -106 121 -106 c 2,7,-1
 656 -106 l 2,8,9
 695 -106 695 -106 695 -133 c 0,10,11
 695 -159 695 -159 656 -159 c 2,12,-1
 121 -159 l 2,0,1
121 604 m 2,13,14
 112 604 112 604 107 604.5 c 128,-1,15
 102 605 102 605 95 607.5 c 128,-1,16
 88 610 88 610 84.5 615.5 c 128,-1,17
 81 621 81 621 81 631 c 0,18,19
 81 657 81 657 121 657 c 2,20,-1
 401 657 l 2,21,22
 529 657 529 657 623 569 c 128,-1,23
 717 481 717 481 717 350 c 0,24,25
 717 221 717 221 623 132.5 c 128,-1,26
 529 44 529 44 401 44 c 2,27,-1
 121 44 l 2,28,29
 112 44 112 44 107 44.5 c 128,-1,30
 102 45 102 45 95 47.5 c 128,-1,31
 88 50 88 50 84.5 55.5 c 128,-1,32
 81 61 81 61 81 71 c 0,33,34
 81 97 81 97 121 97 c 2,35,-1
 397 97 l 2,36,37
 509 97 509 97 586.5 171 c 128,-1,38
 664 245 664 245 664 351 c 0,39,40
 664 455 664 455 587 529.5 c 128,-1,41
 510 604 510 604 397 604 c 2,42,-1
 121 604 l 2,13,14
EndSplineSet
Validated: 19457
EndChar

StartChar: therefore
Encoding: 8756 8756 28
Width: 701
Flags: W
HStem: -85 125<44.5645 131.436 568.564 655.92> 369 124<306.564 393.92>
VStem: 26 124<-66.4355 20.92> 288 125<387.564 474.436> 550 125<-66.4355 20.92>
LayerCount: 2
Fore
SplineSet
350 493 m 128,-1,1
 376 493 376 493 394.5 474.5 c 128,-1,2
 413 456 413 456 413 431 c 0,3,4
 413 405 413 405 394.5 387 c 128,-1,5
 376 369 376 369 350 369 c 128,-1,6
 324 369 324 369 306 387 c 128,-1,7
 288 405 288 405 288 431 c 128,-1,8
 288 457 288 457 306 475 c 128,-1,0
 324 493 324 493 350 493 c 128,-1,1
612 40 m 128,-1,10
 638 40 638 40 656.5 21 c 128,-1,11
 675 2 675 2 675 -23 c 0,12,13
 675 -49 675 -49 656.5 -67 c 128,-1,14
 638 -85 638 -85 612 -85 c 128,-1,15
 586 -85 586 -85 568 -67 c 128,-1,16
 550 -49 550 -49 550 -23 c 128,-1,17
 550 3 550 3 568 21.5 c 128,-1,9
 586 40 586 40 612 40 c 128,-1,10
88 40 m 0,18,19
 113 40 113 40 131.5 21.5 c 128,-1,20
 150 3 150 3 150 -23 c 128,-1,21
 150 -49 150 -49 132 -67 c 128,-1,22
 114 -85 114 -85 88 -85 c 128,-1,23
 62 -85 62 -85 44 -67 c 128,-1,24
 26 -49 26 -49 26 -23 c 128,-1,25
 26 3 26 3 44 21.5 c 128,-1,26
 62 40 62 40 88 40 c 0,18,19
EndSplineSet
Validated: 19457
EndChar

StartChar: rightanglese
Encoding: 9496 9496 29
Width: 525
Flags: W
HStem: -28 55<53.5292 418>
VStem: 418 54<27 390.625>
LayerCount: 2
Fore
SplineSet
53 -1 m 0,0,1
 53 10 53 10 60.5 17.5 c 128,-1,2
 68 25 68 25 78 27 c 1,3,-1
 79 27 l 1,4,-1
 418 27 l 1,5,-1
 418 366 l 1,6,-1
 418 367 l 1,7,8
 422 391 422 391 444 391 c 0,9,10
 468 391 468 391 472 367 c 1,11,-1
 472 366 l 1,12,-1
 472 -3 l 2,13,14
 472 -22 472 -22 447 -28 c 1,15,-1
 446 -28 l 1,16,-1
 79 -28 l 1,17,-1
 78 -28 l 1,18,19
 68 -26 68 -26 60.5 -18.5 c 128,-1,20
 53 -11 53 -11 53 -1 c 0,0,1
EndSplineSet
Validated: 19457
EndChar

StartChar: squareplus
Encoding: 8862 8862 30
Width: 818
Flags: W
HStem: -5 54<107 382 436 710> 335 54<107 382 436 710> 674 54<107 382 436 710>
VStem: 53 54<49 335 389 674> 382 54<49 335 389 674> 710 54<49 335 389 674>
LayerCount: 2
Fore
SplineSet
436 389 m 1,0,-1
 710 389 l 1,1,-1
 710 674 l 1,2,-1
 436 674 l 1,3,-1
 436 389 l 1,0,-1
107 389 m 1,4,-1
 382 389 l 1,5,-1
 382 674 l 1,6,-1
 107 674 l 1,7,-1
 107 389 l 1,4,-1
436 49 m 1,8,-1
 710 49 l 1,9,-1
 710 335 l 1,10,-1
 436 335 l 1,11,-1
 436 49 l 1,8,-1
107 49 m 1,12,-1
 382 49 l 1,13,-1
 382 335 l 1,14,-1
 107 335 l 1,15,-1
 107 49 l 1,12,-1
53 20 m 2,16,-1
 53 704 l 1,17,18
 59 728 59 728 79 728 c 2,19,-1
 740 728 l 1,20,21
 764 722 764 722 764 703 c 2,22,-1
 764 20 l 1,23,-1
 764 19 l 1,24,25
 762 10 762 10 755.5 2.5 c 128,-1,26
 749 -5 749 -5 739 -5 c 2,27,-1
 79 -5 l 1,28,-1
 78 -5 l 1,29,30
 53 0 53 0 53 20 c 2,16,-1
EndSplineSet
Validated: 19457
EndChar

StartChar: satisfies
Encoding: 8872 8872 31
Width: 643
Flags: W
HStem: -5 21G<69 92> 225 54<107 588.506> 433 54<107 588.506> 696 20G<75.5 86>
VStem: 53 54<-4.625 225 279 433 487 715.506>
LayerCount: 2
Fore
SplineSet
53 20 m 1,0,-1
 53 691 l 1,1,-1
 53 692 l 1,2,3
 55 702 55 702 62.5 709 c 128,-1,4
 70 716 70 716 81 716 c 0,5,6
 91 716 91 716 98 709 c 128,-1,7
 105 702 105 702 107 692 c 1,8,-1
 107 691 l 1,9,-1
 107 487 l 1,10,-1
 564 487 l 1,11,-1
 565 487 l 1,12,13
 575 485 575 485 582 478 c 128,-1,14
 589 471 589 471 589 461 c 0,15,16
 589 450 589 450 582 442.5 c 128,-1,17
 575 435 575 435 565 433 c 1,18,-1
 564 433 l 1,19,-1
 107 433 l 1,20,-1
 107 279 l 1,21,-1
 564 279 l 1,22,-1
 565 279 l 1,23,24
 575 277 575 277 582 270 c 128,-1,25
 589 263 589 263 589 253 c 0,26,27
 589 242 589 242 582 234.5 c 128,-1,28
 575 227 575 227 565 225 c 1,29,-1
 564 225 l 1,30,-1
 107 225 l 1,31,-1
 107 20 l 1,32,-1
 107 19 l 1,33,34
 103 -5 103 -5 81 -5 c 0,35,36
 57 -5 57 -5 53 19 c 1,37,-1
 53 20 l 1,0,-1
EndSplineSet
Validated: 19457
EndChar

StartChar: arrowparrleftright
Encoding: 8646 8646 32
Width: 1051
Flags: W
HStem: -6 21G<793 841> 142 54<61.251 890> 484 55<161 990.265>
LayerCount: 2
Fore
SplineSet
56 507 m 1,0,-1
 47 511 l 1,1,-1
 56 515 l 1,2,3
 163 566 163 566 211 684 c 1,4,-1
 213 687 l 1,5,-1
 259 687 l 1,6,-1
 257 680 l 1,7,8
 224 599 224 599 161 539 c 1,9,-1
 972 539 l 2,10,11
 983 539 983 539 990.5 530.5 c 128,-1,12
 998 522 998 522 998 511 c 128,-1,13
 998 500 998 500 990.5 492 c 128,-1,14
 983 484 983 484 972 484 c 2,15,-1
 161 484 l 1,16,17
 224 422 224 422 257 342 c 1,18,-1
 259 335 l 1,19,-1
 213 335 l 1,20,-1
 211 338 l 1,21,22
 163 456 163 456 56 507 c 1,0,-1
53 170 m 128,-1,24
 53 181 53 181 61.5 188.5 c 128,-1,25
 70 196 70 196 81 196 c 2,26,-1
 890 196 l 1,27,28
 829 255 829 255 795 338 c 1,29,-1
 793 345 l 1,30,-1
 839 345 l 1,31,-1
 841 342 l 1,32,33
 889 225 889 225 995 174 c 1,34,-1
 1004 170 l 1,35,-1
 995 166 l 1,36,37
 889 115 889 115 841 -3 c 1,38,-1
 839 -6 l 1,39,-1
 793 -6 l 1,40,-1
 795 1 l 1,41,42
 829 84 829 84 890 142 c 1,43,-1
 81 142 l 2,44,45
 69 142 69 142 61 150.5 c 128,-1,23
 53 159 53 159 53 170 c 128,-1,24
EndSplineSet
Validated: 19457
EndChar

StartChar: because
Encoding: 8757 8757 33
Width: 701
Flags: W
HStem: -85 125<306.564 393.92> 369 124<44.5645 131.436 568.564 655.92>
VStem: 26 124<387.564 473.92> 288 125<-66.4355 20.92> 550 125<387.564 474.436>
LayerCount: 2
Fore
SplineSet
612 493 m 128,-1,1
 638 493 638 493 656.5 474.5 c 128,-1,2
 675 456 675 456 675 431 c 0,3,4
 675 405 675 405 656.5 387 c 128,-1,5
 638 369 638 369 612 369 c 128,-1,6
 586 369 586 369 568 387 c 128,-1,7
 550 405 550 405 550 431 c 128,-1,8
 550 457 550 457 568 475 c 128,-1,0
 586 493 586 493 612 493 c 128,-1,1
88 493 m 128,-1,10
 114 493 114 493 132 474.5 c 128,-1,11
 150 456 150 456 150 431 c 0,12,13
 150 405 150 405 132 387 c 128,-1,14
 114 369 114 369 88 369 c 128,-1,15
 62 369 62 369 44 387 c 128,-1,16
 26 405 26 405 26 431 c 128,-1,17
 26 457 26 457 44 475 c 128,-1,9
 62 493 62 493 88 493 c 128,-1,10
350 40 m 128,-1,19
 376 40 376 40 394.5 21 c 128,-1,20
 413 2 413 2 413 -23 c 0,21,22
 413 -49 413 -49 394.5 -67 c 128,-1,23
 376 -85 376 -85 350 -85 c 128,-1,24
 324 -85 324 -85 306 -67 c 128,-1,25
 288 -49 288 -49 288 -23 c 128,-1,26
 288 3 288 3 306 21.5 c 128,-1,18
 324 40 324 40 350 40 c 128,-1,19
EndSplineSet
Validated: 19457
EndChar

StartChar: lessorgreater
Encoding: 8822 8822 34
Width: 818
Flags: W
HStem: 231 52<39.4727 55>
LayerCount: 2
Fore
SplineSet
39 441 m 0,0,1
 39 457 39 457 55 466 c 1,2,-1
 55 467 l 1,3,-1
 742 722 l 2,4,5
 744 723 744 723 752 723 c 0,6,7
 763 723 763 723 770.5 715 c 128,-1,8
 778 707 778 707 778 696 c 0,9,10
 778 677 778 677 762 671 c 2,11,-1
 143 441 l 1,12,-1
 762 212 l 1,13,-1
 762 211 l 1,14,15
 778 202 778 202 778 186 c 0,16,17
 778 175 778 175 770.5 167 c 128,-1,18
 763 159 763 159 752 159 c 0,19,20
 745 159 745 159 741 161 c 2,21,-1
 55 416 l 2,22,23
 39 422 39 422 39 441 c 0,0,1
55 -229 m 2,24,-1
 674 1 l 1,25,-1
 55 231 l 2,26,27
 39 237 39 237 39 256 c 0,28,29
 39 266 39 266 47 274.5 c 128,-1,30
 55 283 55 283 65 283 c 2,31,-1
 66 283 l 2,32,33
 69 283 69 283 70.5 282.5 c 128,-1,34
 72 282 72 282 73 282 c 2,35,-1
 74 281 l 1,36,-1
 75 281 l 1,37,-1
 762 27 l 1,38,-1
 762 26 l 1,39,40
 778 17 778 17 778 1 c 0,41,42
 778 -16 778 -16 762 -24 c 1,43,-1
 762 -25 l 1,44,-1
 75 -280 l 2,45,46
 72 -281 72 -281 67 -281 c 2,47,-1
 66 -281 l 2,48,49
 55 -281 55 -281 47 -273.5 c 128,-1,50
 39 -266 39 -266 39 -255 c 0,51,52
 39 -235 39 -235 55 -229 c 2,24,-1
EndSplineSet
Validated: 19457
EndChar

StartChar: trianglerightequal
Encoding: 8885 8885 35
Width: 818
Flags: W
HStem: -163 54<83.4944 734.625> 654 20G<105.5 114>
VStem: 83 54<116 602>
LayerCount: 2
Fore
SplineSet
137 116 m 1,0,-1
 644 359 l 1,1,-1
 137 602 l 1,2,-1
 137 116 l 1,0,-1
83 71 m 1,3,-1
 83 649 l 1,4,-1
 83 650 l 1,5,6
 85 660 85 660 92.5 667 c 128,-1,7
 100 674 100 674 111 674 c 0,8,9
 117 674 117 674 121 673 c 2,10,-1
 718 385 l 2,11,12
 735 376 735 376 735 360 c 0,13,14
 735 342 735 342 721 336 c 2,15,-1
 121 47 l 2,16,17
 117 46 117 46 111 46 c 0,18,19
 100 46 100 46 92.5 53 c 128,-1,20
 85 60 85 60 83 70 c 1,21,-1
 83 71 l 1,3,-1
83 -136 m 0,22,23
 83 -113 83 -113 108 -109 c 1,24,-1
 109 -109 l 1,25,-1
 710 -109 l 1,26,-1
 711 -109 l 1,27,28
 720 -111 720 -111 727.5 -118 c 128,-1,29
 735 -125 735 -125 735 -136 c 0,30,31
 735 -159 735 -159 711 -163 c 1,32,-1
 710 -163 l 1,33,-1
 109 -163 l 1,34,-1
 108 -163 l 1,35,36
 98 -161 98 -161 90.5 -153.5 c 128,-1,37
 83 -146 83 -146 83 -136 c 0,22,23
EndSplineSet
Validated: 19457
EndChar

StartChar: lessequalgreater
Encoding: 8922 8922 36
Width: 796
Flags: W
HStem: 227 54<83.6104 712.39> 677 52<666.879 712.561>
LayerCount: 2
Fore
SplineSet
83 547 m 0,0,1
 83 568 83 568 100 573 c 2,2,-1
 677 728 l 2,3,4
 679 729 679 729 681 729 c 2,5,-1
 682 729 l 1,6,7
 685 729 l 2,8,9
 695 729 695 729 704 721 c 128,-1,10
 713 713 713 713 713 702 c 0,11,12
 713 684 713 684 695 677 c 1,13,-1
 185 547 l 1,14,-1
 695 418 l 2,15,16
 713 413 713 413 713 393 c 0,17,18
 713 382 713 382 704.5 373.5 c 128,-1,19
 696 365 696 365 685 365 c 2,20,-1
 681 365 l 2,21,22
 678 365 678 365 677 366 c 0,23,24
 676 366 676 366 676 366.5 c 128,-1,25
 676 367 676 367 675 367 c 2,26,-1
 100 522 l 1,27,28
 83 528 83 528 83 547 c 0,0,1
83 255 m 0,29,30
 83 277 83 277 108 281 c 1,31,-1
 109 281 l 1,32,-1
 687 281 l 1,33,-1
 688 281 l 1,34,35
 713 277 713 277 713 255 c 0,36,37
 713 244 713 244 705.5 236.5 c 128,-1,38
 698 229 698 229 688 227 c 1,39,-1
 687 227 l 1,40,-1
 109 227 l 1,41,-1
 108 227 l 1,42,43
 98 229 98 229 90.5 236.5 c 128,-1,44
 83 244 83 244 83 255 c 0,29,30
100 -168 m 1,45,-1
 611 -38 l 1,46,-1
 100 92 l 2,47,48
 83 97 83 97 83 117 c 0,49,50
 83 128 83 128 92 136 c 128,-1,51
 101 144 101 144 111 144 c 0,52,53
 117 144 117 144 121 143 c 2,54,-1
 695 -13 l 1,55,56
 713 -20 713 -20 713 -38 c 0,57,58
 713 -48 713 -48 706.5 -55.5 c 128,-1,59
 700 -63 700 -63 695 -64 c 2,60,-1
 119 -219 l 2,61,62
 117 -220 117 -220 115 -220 c 2,63,-1
 114 -220 l 1,64,-1
 111 -220 l 2,65,66
 101 -220 101 -220 92 -212 c 128,-1,67
 83 -204 83 -204 83 -193 c 0,68,69
 83 -174 83 -174 100 -168 c 1,45,-1
EndSplineSet
Validated: 19457
EndChar

StartChar: geomequivalent
Encoding: 8782 8782 37
Width: 818
Flags: W
HStem: -7 54<346.314 471.875> 125 54<53.3906 258.465 558.535 763.625> 333 54<53.4944 258.486 558.535 763.525> 464 54<345.865 471.875>
VStem: 253 51<90.188 125 387 421.731> 513 51<89.6932 125 387 421.758>
LayerCount: 2
Fore
SplineSet
53 359 m 128,-1,1
 53 381 53 381 78 387 c 1,2,-1
 253 387 l 1,3,4
 263 443 263 443 307.5 480.5 c 128,-1,5
 352 518 352 518 409 518 c 128,-1,6
 466 518 466 518 510 480.5 c 128,-1,7
 554 443 554 443 564 387 c 1,8,-1
 740 387 l 1,9,10
 764 380 764 380 764 359 c 0,11,12
 764 349 764 349 756.5 342 c 128,-1,13
 749 335 749 335 740 333 c 1,14,-1
 739 333 l 1,15,-1
 538 333 l 2,16,17
 518 333 518 333 513 356 c 1,18,-1
 513 357 l 2,19,20
 513 400 513 400 482.5 432 c 128,-1,21
 452 464 452 464 409 464 c 128,-1,22
 366 464 366 464 335 432 c 128,-1,23
 304 400 304 400 304 357 c 0,24,25
 304 338 304 338 281 333 c 1,26,-1
 79 333 l 1,27,-1
 78 333 l 1,28,0
 53 337 53 337 53 359 c 128,-1,1
53 152 m 0,29,30
 53 173 53 173 78 179 c 1,31,-1
 280 179 l 2,32,33
 298 179 298 179 304 155 c 1,34,-1
 304 154 l 2,35,36
 304 111 304 111 335 79 c 128,-1,37
 366 47 366 47 409 47 c 128,-1,38
 452 47 452 47 482.5 79 c 128,-1,39
 513 111 513 111 513 154 c 0,40,41
 513 172 513 172 536 179 c 1,42,-1
 537 179 l 1,43,-1
 740 179 l 1,44,45
 764 172 764 172 764 152 c 0,46,47
 764 129 764 129 740 125 c 1,48,-1
 739 125 l 1,49,-1
 564 125 l 1,50,51
 554 68 554 68 510 30.5 c 128,-1,52
 466 -7 466 -7 409 -7 c 0,53,54
 351 -7 351 -7 307 31 c 128,-1,55
 263 69 263 69 253 125 c 1,56,-1
 79 125 l 1,57,-1
 78 125 l 1,58,59
 53 129 53 129 53 152 c 0,29,30
EndSplineSet
Validated: 19457
EndChar

StartChar: complement
Encoding: 8705 8705 38
Width: 525
Flags: W
HStem: -28 99<173.315 353.543> 552 21G<399.5 446.5> 774 98<174.05 350.95>
VStem: 53 98<93.2998 751.361> 374 98<93.2998 285.309 559.691 751.361>
LayerCount: 2
Fore
SplineSet
53 721 m 2,0,1
 53 772 53 772 87.5 807.5 c 128,-1,2
 122 843 122 843 167 857.5 c 128,-1,3
 212 872 212 872 260 872 c 2,4,-1
 265 872 l 2,5,6
 313 872 313 872 358 857.5 c 128,-1,7
 403 843 403 843 437.5 807.5 c 128,-1,8
 472 772 472 772 472 721 c 2,9,-1
 472 599 l 1,10,-1
 472 598 l 1,11,12
 467 557 467 557 426 552 c 1,13,-1
 425 552 l 1,14,-1
 420 552 l 1,15,-1
 419 552 l 1,16,17
 380 557 380 557 374 598 c 1,18,-1
 374 599 l 1,19,-1
 374 716 l 2,20,21
 374 737 374 737 353 751 c 128,-1,22
 332 765 332 765 309 769.5 c 128,-1,23
 286 774 286 774 263 774 c 0,24,25
 192 774 192 774 160 740 c 0,26,27
 159 739 159 739 156.5 736 c 128,-1,28
 154 733 154 733 153 731 c 0,29,30
 151 727 151 727 151 723 c 2,31,-1
 151 129 l 2,32,33
 151 108 151 108 172 94 c 128,-1,34
 193 80 193 80 216.5 75.5 c 128,-1,35
 240 71 240 71 263 71 c 0,36,37
 337 71 337 71 366 104 c 0,38,39
 369 107 369 107 372 114 c 0,40,41
 374 118 374 118 374 122 c 2,42,-1
 374 246 l 1,43,-1
 374 247 l 1,44,45
 380 288 380 288 419 293 c 1,46,-1
 420 293 l 1,47,-1
 425 293 l 1,48,-1
 426 293 l 1,49,50
 467 288 467 288 472 247 c 1,51,-1
 472 246 l 1,52,-1
 472 124 l 2,53,54
 472 50 472 50 407 11 c 128,-1,55
 342 -28 342 -28 265 -28 c 2,56,-1
 260 -28 l 2,57,58
 183 -28 183 -28 118 11 c 128,-1,59
 53 50 53 50 53 124 c 2,60,-1
 53 721 l 2,0,1
EndSplineSet
Validated: 19457
EndChar

StartChar: square
Encoding: 9633 9633 39
Width: 818
Flags: W
HStem: -5 54<107 710> 674 54<107 710>
VStem: 53 54<49 674> 710 54<49 674>
LayerCount: 2
Fore
SplineSet
107 49 m 1,0,-1
 710 49 l 1,1,-1
 710 674 l 1,2,-1
 107 674 l 1,3,-1
 107 49 l 1,0,-1
53 703 m 2,4,5
 53 722 53 722 78 728 c 1,6,-1
 79 728 l 1,7,-1
 739 728 l 2,8,9
 758 728 758 728 764 704 c 1,10,-1
 764 20 l 2,11,12
 764 10 764 10 756.5 3.5 c 128,-1,13
 749 -3 749 -3 740 -5 c 1,14,-1
 79 -5 l 2,15,16
 69 -5 69 -5 62 2 c 128,-1,17
 55 9 55 9 53 19 c 1,18,-1
 53 20 l 1,19,-1
 53 703 l 2,4,5
EndSplineSet
Validated: 19457
EndChar

StartChar: dblarrowheadleft
Encoding: 8606 8606 40
Width: 1051
Flags: W
HStem: 228 55<161 316.488 355 990.265>
LayerCount: 2
Fore
SplineSet
56 252 m 1,0,-1
 47 256 l 1,1,-1
 56 260 l 1,2,3
 163 311 163 311 211 428 c 1,4,-1
 213 431 l 1,5,-1
 259 431 l 1,6,-1
 257 424 l 1,7,8
 224 344 224 344 161 283 c 1,9,-1
 288 283 l 1,10,11
 368 337 368 337 405 428 c 1,12,-1
 407 431 l 1,13,-1
 452 431 l 1,14,-1
 450 424 l 1,15,16
 416 343 416 343 355 283 c 1,17,-1
 972 283 l 2,18,19
 983 283 983 283 990.5 275 c 128,-1,20
 998 267 998 267 998 256 c 128,-1,21
 998 245 998 245 990.5 236.5 c 128,-1,22
 983 228 983 228 972 228 c 2,23,-1
 355 228 l 1,24,25
 416 168 416 168 450 87 c 1,26,-1
 452 80 l 1,27,-1
 407 80 l 1,28,-1
 405 83 l 1,29,30
 368 174 368 174 288 228 c 1,31,-1
 161 228 l 1,32,33
 224 167 224 167 257 87 c 1,34,-1
 259 80 l 1,35,-1
 213 80 l 1,36,-1
 211 83 l 1,37,38
 163 199 163 199 56 252 c 1,0,-1
EndSplineSet
Validated: 19457
EndChar

StartChar: northwestarrow
Encoding: 8598 8598 41
Width: 1027
VWidth: 1000
Flags: W
HStem: 635 40<152.736 286.871>
VStem: 50 54<427.399 520.965> 76 40<464.706 598.225>
LayerCount: 2
Fore
SplineSet
114 599 m 1,0,1
 116 581 116 581 116 566 c 0,2,3
 116 524 116 524 104 479 c 128,-1,4
 92 434 92 434 79 425 c 0,5,6
 75 423 75 423 72 423 c 0,7,8
 65 423 65 423 57.5 429.5 c 128,-1,9
 50 436 50 436 50 445 c 2,10,-1
 50 446 l 1,11,-1
 50 448 l 2,12,13
 50 449 50 449 57 467 c 0,14,15
 76 513 76 513 76 566 c 0,16,17
 76 618 76 618 57 665 c 0,18,19
 54 671 54 671 52 678 c 1,20,-1
 52 681 l 2,21,22
 52 688 52 688 57 693.5 c 128,-1,23
 62 699 62 699 70 699 c 2,24,-1
 73 699 l 1,25,26
 76 698 76 698 86 694 c 0,27,28
 136 675 136 675 185 675 c 2,29,-1
 186 675 l 2,30,31
 240 675 240 675 290 696 c 0,32,33
 293 697 293 697 295 698 c 128,-1,34
 297 699 297 699 298.5 699.5 c 128,-1,35
 300 700 300 700 301 700.5 c 128,-1,36
 302 701 302 701 303 701 c 2,37,-1
 304 701 l 1,38,-1
 306 701 l 2,39,40
 313 701 313 701 320.5 694 c 128,-1,41
 328 687 328 687 328 679 c 0,42,43
 328 674 328 674 326 672 c 0,44,45
 317 658 317 658 271 646.5 c 128,-1,46
 225 635 225 635 186 635 c 0,47,48
 172 635 172 635 152 637 c 1,49,-1
 961 -172 l 2,50,51
 975 -186 975 -186 975 -197 c 128,-1,52
 975 -208 975 -208 967.5 -216 c 128,-1,53
 960 -224 960 -224 948 -224 c 0,54,55
 937 -224 937 -224 923 -210 c 2,56,-1
 114 599 l 1,0,1
EndSplineSet
Validated: 19457
EndChar

StartChar: defines
Encoding: 8796 8796 42
Width: 818
Flags: W
HStem: 125 54<53.3906 764.625> 333 54<53.4944 764.525> 499 54<252 566>
LayerCount: 2
Fore
SplineSet
252 553 m 1,0,-1
 566 553 l 1,1,-1
 410 827 l 1,2,-1
 252 553 l 1,0,-1
177 525 m 0,3,4
 177 533 177 533 181 540 c 2,5,-1
 386 895 l 2,6,7
 394 907 394 907 410 907 c 0,8,9
 423 907 423 907 432 895 c 1,10,-1
 637 540 l 2,11,12
 641 533 641 533 641 525 c 0,13,14
 641 503 641 503 616 499 c 1,15,-1
 615 499 l 1,16,-1
 203 499 l 1,17,-1
 202 499 l 1,18,19
 177 503 177 503 177 525 c 0,3,4
53 359 m 128,-1,21
 53 381 53 381 78 387 c 1,22,-1
 741 387 l 1,23,24
 765 380 765 380 765 359 c 0,25,26
 765 349 765 349 757.5 342 c 128,-1,27
 750 335 750 335 741 333 c 1,28,-1
 740 333 l 1,29,-1
 79 333 l 1,30,-1
 78 333 l 1,31,20
 53 337 53 337 53 359 c 128,-1,21
53 152 m 0,32,33
 53 173 53 173 78 179 c 1,34,-1
 741 179 l 1,35,36
 765 172 765 172 765 152 c 0,37,38
 765 129 765 129 741 125 c 1,39,-1
 740 125 l 1,40,-1
 79 125 l 1,41,-1
 78 125 l 1,42,43
 53 129 53 129 53 152 c 0,32,33
EndSplineSet
Validated: 19457
EndChar

StartChar: subsetdbl
Encoding: 8912 8912 43
Width: 818
Flags: W
HStem: -58 54<298.391 733.641> 106 54<336.789 733.725> 351 54<336.789 733.641> 515 54<298.391 733.641>
VStem: 83 54<151.867 359.706> 247 54<195.497 315.123>
LayerCount: 2
Fore
SplineSet
247 256 m 128,-1,1
 247 318 247 318 291 361.5 c 128,-1,2
 335 405 335 405 397 405 c 2,3,-1
 404 405 l 1,4,-1
 412 405 l 1,5,-1
 710 405 l 1,6,-1
 711 405 l 1,7,8
 734 401 734 401 734 379 c 0,9,10
 734 355 734 355 711 351 c 1,11,-1
 710 351 l 1,12,-1
 405 351 l 1,13,-1
 403 351 l 1,14,15
 400 351 l 1,16,-1
 397 351 l 2,17,18
 358 351 358 351 329.5 322.5 c 128,-1,19
 301 294 301 294 301 256 c 0,20,21
 301 217 301 217 329.5 188.5 c 128,-1,22
 358 160 358 160 397 160 c 2,23,-1
 402 160 l 1,24,-1
 407 160 l 1,25,-1
 710 160 l 1,26,-1
 711 160 l 1,27,28
 734 155 734 155 734 133 c 0,29,30
 734 110 734 110 711 106 c 1,31,-1
 710 106 l 1,32,-1
 411 106 l 1,33,-1
 404 106 l 1,34,-1
 397 106 l 2,35,36
 335 106 335 106 291 150 c 128,-1,0
 247 194 247 194 247 256 c 128,-1,1
407 569 m 2,37,-1
 710 569 l 1,38,-1
 711 569 l 1,39,40
 734 565 734 565 734 543 c 0,41,42
 734 519 734 519 711 515 c 1,43,-1
 710 515 l 1,44,-1
 411 515 l 2,45,46
 299 515 299 515 218 440.5 c 128,-1,47
 137 366 137 366 137 256 c 0,48,49
 137 145 137 145 218 70.5 c 128,-1,50
 299 -4 299 -4 411 -4 c 2,51,-1
 710 -4 l 1,52,-1
 711 -4 l 1,53,54
 734 -8 734 -8 734 -32 c 0,55,56
 734 -54 734 -54 711 -58 c 1,57,-1
 710 -58 l 1,58,-1
 407 -58 l 2,59,60
 275 -58 275 -58 179 33.5 c 128,-1,61
 83 125 83 125 83 256 c 128,-1,62
 83 387 83 387 179 478 c 128,-1,63
 275 569 275 569 407 569 c 2,37,-1
EndSplineSet
Validated: 19457
EndChar

StartChar: ggreater
Encoding: 8811 8811 44
Width: 1027
VWidth: 1000
Flags: W
LayerCount: 2
Fore
SplineSet
952 223 m 2,0,-1
 399 -84 l 1,1,-1
 398 -84 l 2,2,3
 365 -84 365 -84 365 -58 c 0,4,5
 365 -48 365 -48 369.5 -43 c 128,-1,6
 374 -38 374 -38 388 -31 c 2,7,-1
 894 251 l 1,8,-1
 386 533 l 1,9,10
 365 543 365 543 365 559 c 0,11,12
 365 570 365 570 373 577.5 c 128,-1,13
 381 585 381 585 391 585 c 0,14,15
 398 585 398 585 411 578 c 2,16,-1
 955 277 l 2,17,18
 975 266 975 266 975 251 c 0,19,20
 975 244 975 244 972 239 c 128,-1,21
 969 234 969 234 965.5 231 c 128,-1,22
 962 228 962 228 952 223 c 2,0,-1
639 223 m 2,23,-1
 86 -84 l 1,24,-1
 85 -84 l 2,25,26
 52 -84 52 -84 52 -58 c 0,27,28
 52 -48 52 -48 56.5 -43 c 128,-1,29
 61 -38 61 -38 75 -31 c 2,30,-1
 581 251 l 1,31,-1
 73 533 l 1,32,33
 52 543 52 543 52 559 c 0,34,35
 52 570 52 570 60 577.5 c 128,-1,36
 68 585 68 585 78 585 c 0,37,38
 85 585 85 585 98 578 c 2,39,-1
 642 277 l 2,40,41
 662 266 662 266 662 251 c 0,42,43
 662 244 662 244 659 239 c 128,-1,44
 656 234 656 234 652.5 231 c 128,-1,45
 649 228 649 228 639 223 c 2,23,-1
EndSplineSet
Validated: 3073
EndChar

StartChar: circlering
Encoding: 8858 8858 45
Width: 818
Flags: W
HStem: -101 43<296.102 521.802> 106 54<348.235 469.183> 352 54<348.235 469.183> 569 43<296.102 521.519>
VStem: 53 43<143.006 368.312> 258 54<195.817 316.183> 505 54<195.497 316.503> 721 43<141.262 370.356>
LayerCount: 2
Fore
SplineSet
312 256 m 128,-1,1
 312 217 312 217 341 188.5 c 128,-1,2
 370 160 370 160 409 160 c 128,-1,3
 448 160 448 160 476.5 188.5 c 128,-1,4
 505 217 505 217 505 256 c 128,-1,5
 505 295 505 295 476.5 323.5 c 128,-1,6
 448 352 448 352 409 352 c 128,-1,7
 370 352 370 352 341 323.5 c 128,-1,0
 312 295 312 295 312 256 c 128,-1,1
409 406 m 0,8,9
 470 406 470 406 514.5 362 c 128,-1,10
 559 318 559 318 559 256 c 128,-1,11
 559 194 559 194 514.5 150 c 128,-1,12
 470 106 470 106 409 106 c 0,13,14
 347 106 347 106 302.5 150.5 c 128,-1,15
 258 195 258 195 258 256 c 128,-1,16
 258 317 258 317 302.5 361.5 c 128,-1,17
 347 406 347 406 409 406 c 0,8,9
409 -58 m 128,-1,19
 538 -58 538 -58 629.5 34.5 c 128,-1,20
 721 127 721 127 721 256 c 128,-1,21
 721 385 721 385 629.5 477 c 128,-1,22
 538 569 538 569 409 569 c 128,-1,23
 280 569 280 569 188 476.5 c 128,-1,24
 96 384 96 384 96 256 c 0,25,26
 96 127 96 127 188 34.5 c 128,-1,18
 280 -58 280 -58 409 -58 c 128,-1,19
53 256 m 0,27,28
 53 403 53 403 157 507.5 c 128,-1,29
 261 612 261 612 409 612 c 0,30,31
 556 612 556 612 660 507.5 c 128,-1,32
 764 403 764 403 764 256 c 0,33,34
 764 108 764 108 660.5 3.5 c 128,-1,35
 557 -101 557 -101 409 -101 c 128,-1,36
 261 -101 261 -101 157 3.5 c 128,-1,37
 53 108 53 108 53 256 c 0,27,28
EndSplineSet
Validated: 19457
EndChar

StartChar: squaresmallsolid
Encoding: 9642 9642 46
Width: 291
Flags: W
HStem: -5 207<53.3906 236.641>
VStem: 53 184<-4.67285 201.199>
LayerCount: 2
Fore
SplineSet
53 177 m 2,0,1
 53 196 53 196 78 202 c 1,2,-1
 79 202 l 1,3,-1
 213 202 l 2,4,5
 232 202 232 202 237 178 c 1,6,-1
 237 20 l 2,7,8
 237 0 237 0 214 -5 c 1,9,-1
 79 -5 l 2,10,11
 69 -5 69 -5 62 2 c 128,-1,12
 55 9 55 9 53 19 c 1,13,-1
 53 20 l 1,14,-1
 53 177 l 2,0,1
EndSplineSet
Validated: 19457
EndChar

StartChar: Rightarrow
Encoding: 8658 8658 47
Width: 1027
VWidth: 1000
Flags: W
HStem: 122 53<52.3691 680> 326 53<52.3691 680>
LayerCount: 2
Fore
SplineSet
90 326 m 2,0,1
 52 326 52 326 52 352 c 0,2,3
 52 379 52 379 94 379 c 2,4,-1
 680 379 l 1,5,6
 646 416 646 416 618.5 460.5 c 128,-1,7
 591 505 591 505 589 517 c 1,8,-1
 589 518 l 2,9,10
 589 523 589 523 590 526 c 0,11,12
 592 529 592 529 595 531 c 0,13,14
 602 536 602 536 614 536 c 2,15,-1
 615 536 l 2,16,17
 628 536 628 536 632.5 532.5 c 128,-1,18
 637 529 637 529 645 515 c 0,19,20
 749 326 749 326 960 268 c 1,21,-1
 961 268 l 1,22,-1
 961 267 l 1,23,-1
 963 266 l 2,24,25
 965 266 965 266 967 265 c 128,-1,26
 969 264 969 264 971 262 c 128,-1,27
 973 260 973 260 974 257 c 128,-1,28
 975 254 975 254 975 250 c 0,29,30
 973 237 973 237 960 233 c 0,31,32
 836 200 836 200 755 127 c 0,33,34
 691 70 691 70 645 -13 c 0,35,36
 637 -28 637 -28 632.5 -31.5 c 128,-1,37
 628 -35 628 -35 615 -35 c 0,38,39
 601 -35 601 -35 595 -30 c 0,40,41
 592 -28 592 -28 590 -25 c 0,42,43
 589 -23 589 -23 589 -17 c 2,44,-1
 589 -16 l 1,45,46
 591 -3 591 -3 619 41.5 c 128,-1,47
 647 86 647 86 680 122 c 1,48,-1
 94 122 l 2,49,50
 52 122 52 122 52 149 c 0,51,52
 52 175 52 175 90 175 c 2,53,-1
 721 175 l 2,54,55
 737 175 737 175 745 182 c 0,56,57
 797 222 797 222 860 251 c 1,58,59
 802 276 802 276 745 320 c 0,60,61
 738 326 738 326 721 326 c 2,62,-1
 90 326 l 2,0,1
EndSplineSet
Validated: 19457
EndChar

StartChar: squiggleright
Encoding: 8669 8669 48
Width: 1051
Flags: W
HStem: 228 55<676 890>
LayerCount: 2
Fore
SplineSet
53 256 m 0,0,1
 53 266 53 266 62 275 c 2,2,-1
 160 360 l 2,3,4
 167 367 167 367 178 367 c 0,5,6
 188 367 188 367 197 360 c 2,7,-1
 373 207 l 1,8,-1
 549 360 l 1,9,10
 560 367 560 367 567 367 c 0,11,12
 579 367 579 367 586 360 c 2,13,-1
 676 283 l 1,14,-1
 890 283 l 1,15,16
 829 343 829 343 795 424 c 1,17,-1
 793 431 l 1,18,-1
 839 431 l 1,19,-1
 841 428 l 1,20,21
 889 311 889 311 995 260 c 1,22,-1
 1004 256 l 1,23,-1
 995 252 l 1,24,25
 889 200 889 200 841 83 c 1,26,-1
 839 80 l 1,27,-1
 793 80 l 1,28,-1
 795 87 l 1,29,30
 829 168 829 168 890 228 c 1,31,-1
 664 228 l 2,32,33
 655 228 655 228 645 238 c 1,34,-1
 567 304 l 1,35,-1
 391 151 l 2,36,37
 383 143 383 143 373 143 c 0,38,39
 362 143 362 143 354 151 c 2,40,-1
 178 304 l 1,41,-1
 99 236 l 2,42,43
 91 228 91 228 81 228 c 0,44,45
 70 228 70 228 61.5 236.5 c 128,-1,46
 53 245 53 245 53 256 c 0,0,1
EndSplineSet
Validated: 19457
EndChar

StartChar: lessorsimilar
Encoding: 8818 8818 49
Width: 818
Flags: W
HStem: -252 72<503.403 657.417> -74 72<159.583 313.597> 143 50<721 733.436> 719 52<718 733.588>
VStem: 53 41<-248.809 -146.016> 723 41<-109.306 -5.19141>
LayerCount: 2
Fore
SplineSet
83 458 m 0,0,1
 83 473 83 473 100 482 c 2,2,-1
 697 769 l 2,3,4
 701 771 701 771 708 771 c 0,5,6
 719 771 719 771 726.5 762.5 c 128,-1,7
 734 754 734 754 734 744 c 0,8,9
 734 726 734 726 718 719 c 2,10,-1
 173 458 l 1,11,-1
 721 193 l 2,12,13
 734 186 734 186 734 171 c 0,14,15
 734 160 734 160 726 151.5 c 128,-1,16
 718 143 718 143 708 143 c 0,17,18
 702 143 702 143 699 145 c 0,19,20
 698 146 l 0,21,-1
 697 147 l 2,22,23
 697 146 697 146 696 147 c 2,24,-1
 97 433 l 2,25,26
 83 439 83 439 83 458 c 0,0,1
53 -221 m 1,27,-1
 53 -220 l 1,28,-1
 53 -212 l 2,29,30
 53 -130 53 -130 103 -66 c 128,-1,31
 153 -2 153 -2 233 -2 c 0,32,33
 273 -2 273 -2 311.5 -20.5 c 128,-1,34
 350 -39 350 -39 381 -65 c 128,-1,35
 412 -91 412 -91 443 -117 c 128,-1,36
 474 -143 474 -143 510.5 -161.5 c 128,-1,37
 547 -180 547 -180 584 -180 c 0,38,39
 642 -180 642 -180 682.5 -136.5 c 128,-1,40
 723 -93 723 -93 723 -34 c 2,41,-1
 723 -33 l 1,42,43
 726 -11 726 -11 734 -5 c 0,44,45
 737 -2 737 -2 743 -2 c 0,46,47
 748 -2 748 -2 751 -4 c 0,48,49
 762 -11 762 -11 764 -33 c 1,50,-1
 764 -34 l 1,51,-1
 764 -42 l 2,52,53
 764 -123 764 -123 714 -187.5 c 128,-1,54
 664 -252 664 -252 584 -252 c 0,55,56
 544 -252 544 -252 505.5 -233.5 c 128,-1,57
 467 -215 467 -215 436 -189 c 128,-1,58
 405 -163 405 -163 374 -137 c 128,-1,59
 343 -111 343 -111 306.5 -92.5 c 128,-1,60
 270 -74 270 -74 233 -74 c 0,61,62
 175 -74 175 -74 134.5 -117.5 c 128,-1,63
 94 -161 94 -161 94 -220 c 2,64,-1
 94 -221 l 1,65,66
 90 -243 90 -243 83 -249 c 0,67,68
 80 -252 80 -252 74 -252 c 0,69,70
 69 -252 69 -252 66 -250 c 0,71,72
 56 -244 56 -244 53 -221 c 1,27,-1
EndSplineSet
Validated: 19457
EndChar

StartChar: equaldotleftright
Encoding: 8786 8786 50
Width: 818
Flags: W
HStem: -119 125<693.564 780.92> 125 54<53.3906 763.625> 333 54<53.4944 763.525> 505 125<37.5645 124.436>
VStem: 19 124<523.564 610.92> 675 125<-99.92 -12.5645>
LayerCount: 2
Fore
SplineSet
81 630 m 0,0,1
 106 630 106 630 124.5 611.5 c 128,-1,2
 143 593 143 593 143 567 c 128,-1,3
 143 541 143 541 125 523 c 128,-1,4
 107 505 107 505 81 505 c 128,-1,5
 55 505 55 505 37 523 c 128,-1,6
 19 541 19 541 19 567 c 128,-1,7
 19 593 19 593 37 611.5 c 128,-1,8
 55 630 55 630 81 630 c 0,0,1
53 359 m 128,-1,10
 53 381 53 381 78 387 c 1,11,-1
 740 387 l 1,12,13
 764 380 764 380 764 359 c 0,14,15
 764 349 764 349 756.5 342 c 128,-1,16
 749 335 749 335 740 333 c 1,17,-1
 739 333 l 1,18,-1
 79 333 l 1,19,-1
 78 333 l 1,20,9
 53 337 53 337 53 359 c 128,-1,10
53 152 m 0,21,22
 53 173 53 173 78 179 c 1,23,-1
 740 179 l 1,24,25
 764 172 764 172 764 152 c 0,26,27
 764 129 764 129 740 125 c 1,28,-1
 739 125 l 1,29,-1
 79 125 l 1,30,-1
 78 125 l 1,31,32
 53 129 53 129 53 152 c 0,21,22
737 6 m 128,-1,34
 763 6 763 6 781.5 -12.5 c 128,-1,35
 800 -31 800 -31 800 -56 c 0,36,37
 800 -82 800 -82 781.5 -100.5 c 128,-1,38
 763 -119 763 -119 737 -119 c 128,-1,39
 711 -119 711 -119 693 -100.5 c 128,-1,40
 675 -82 675 -82 675 -56 c 128,-1,41
 675 -30 675 -30 693 -12 c 128,-1,33
 711 6 711 6 737 6 c 128,-1,34
EndSplineSet
Validated: 19457
EndChar

StartChar: triangledownsld
Encoding: 9660 9660 51
Width: 743
Flags: W
LayerCount: 2
Fore
SplineSet
84 559 m 2,0,1
 83 561 83 561 83 569 c 0,2,3
 83 591 83 591 107 597 c 1,4,-1
 637 597 l 1,5,6
 660 591 660 591 660 569 c 0,7,8
 660 563 660 563 659 560 c 1,9,-1
 659 559 l 1,10,-1
 397 -10 l 2,11,12
 389 -28 389 -28 372 -28 c 0,13,14
 356 -28 356 -28 346 -10 c 1,15,-1
 84 559 l 2,0,1
EndSplineSet
Validated: 3073
EndChar

StartChar: Yen
Encoding: 165 165 52
Width: 788
Flags: W
HStem: -5 46<241 343.453 445.562 549> 210 43<76 345 444 714> 418 43<76 229 374 478 560 714> 659 45<8 113.375 233.015 302 550 603.109 689.092 780>
VStem: 345 99<49.1846 210 253 279>
LayerCount: 2
Fore
SplineSet
426 335 m 1,0,-1
 478 418 l 1,1,-1
 374 418 l 1,2,-1
 426 335 l 1,0,-1
60 228 m 1,3,-1
 60 234 l 2,4,5
 60 236 60 236 61 237 c 2,6,-1
 61 238 l 2,7,8
 64 247 64 247 72 251 c 0,9,10
 76 253 76 253 78 253 c 2,11,-1
 345 253 l 1,12,-1
 345 279 l 1,13,-1
 256 418 l 1,14,-1
 78 418 l 2,15,16
 78 418 78 418 76 418 c 2,17,-1
 74 419 l 2,18,19
 64 423 64 423 61 432 c 2,20,-1
 60 434 l 1,21,-1
 60 436 l 1,22,-1
 60 442 l 2,23,24
 60 444 60 444 61 445 c 2,25,-1
 61 446 l 2,26,27
 64 455 64 455 72 459 c 0,28,29
 76 461 76 461 78 461 c 2,30,-1
 229 461 l 1,31,-1
 122 627 l 1,32,33
 106 648 106 648 80 653.5 c 128,-1,34
 54 659 54 659 13 659 c 2,35,-1
 8 659 l 1,36,-1
 8 704 l 1,37,-1
 13 704 l 2,38,39
 34 704 34 704 77.5 702.5 c 128,-1,40
 121 701 121 701 143 701 c 0,41,42
 168 701 168 701 220 702.5 c 128,-1,43
 272 704 272 704 297 704 c 2,44,-1
 302 704 l 1,45,-1
 302 659 l 1,46,-1
 297 659 l 1,47,-1
 296 659 l 2,48,49
 233 659 233 659 233 640 c 0,50,51
 233 635 233 635 235 633 c 2,52,-1
 346 461 l 1,53,-1
 506 461 l 1,54,-1
 598 604 l 2,55,56
 605 616 605 616 605 626 c 0,57,58
 605 643 605 643 589 651 c 128,-1,59
 573 659 573 659 555 659 c 2,60,-1
 550 659 l 1,61,-1
 550 704 l 1,62,-1
 555 704 l 2,63,64
 575 704 575 704 615.5 702.5 c 128,-1,65
 656 701 656 701 677 701 c 0,66,67
 694 701 694 701 726.5 702.5 c 128,-1,68
 759 704 759 704 775 704 c 2,69,-1
 780 704 l 1,70,-1
 780 659 l 1,71,-1
 775 659 l 2,72,73
 689 659 689 659 649 598 c 2,74,-1
 560 461 l 1,75,-1
 711 461 l 2,76,77
 714 461 714 461 717 459 c 0,78,79
 725 455 725 455 728 446 c 2,80,-1
 728 444 l 2,81,82
 728 442 728 442 729 442 c 2,83,-1
 729 436 l 2,84,85
 729 434 729 434 728.5 433.5 c 128,-1,86
 728 433 728 433 728 432 c 0,87,88
 725 423 725 423 715 419 c 2,89,-1
 714 418 l 2,90,91
 712 418 712 418 711 418 c 2,92,-1
 533 418 l 1,93,-1
 444 279 l 1,94,-1
 444 253 l 1,95,-1
 711 253 l 2,96,97
 714 253 714 253 717 251 c 0,98,99
 725 247 725 247 728 238 c 2,100,-1
 728 236 l 2,101,102
 728 234 728 234 729 234 c 2,103,-1
 729 228 l 2,104,105
 729 226 729 226 728.5 225.5 c 128,-1,106
 728 225 728 225 728 224 c 0,107,108
 725 215 725 215 715 211 c 2,109,-1
 714 210 l 2,110,111
 712 210 712 210 711 210 c 2,112,-1
 444 210 l 1,113,-1
 444 70 l 2,114,115
 444 41 444 41 544 41 c 2,116,-1
 549 41 l 1,117,-1
 549 -5 l 1,118,-1
 544 -5 l 2,119,120
 519 -5 519 -5 469 -3.5 c 128,-1,121
 419 -2 419 -2 394 -2 c 0,122,123
 370 -2 370 -2 320.5 -3.5 c 128,-1,124
 271 -5 271 -5 246 -5 c 2,125,-1
 241 -5 l 1,126,-1
 241 41 l 1,127,-1
 246 41 l 2,128,129
 345 41 345 41 345 70 c 2,130,-1
 345 210 l 1,131,-1
 78 210 l 2,132,133
 78 210 78 210 76 210 c 2,134,-1
 74 211 l 2,135,136
 64 215 64 215 61 224 c 2,137,-1
 60 226 l 1,138,-1
 60 228 l 1,3,-1
EndSplineSet
Validated: 19457
EndChar

StartChar: uniondbl
Encoding: 8914 8914 53
Width: 701
Flags: W
HStem: -28 55<225.553 474.075> 136 54<293.654 406.346>
VStem: 53 54<124.082 618.641> 217 54<211.374 618.641> 429 54<211.374 618.641> 593 54<122.847 618.641>
LayerCount: 2
Fore
SplineSet
217 254 m 2,0,-1
 217 595 l 1,1,-1
 217 596 l 1,2,3
 221 619 221 619 245 619 c 0,4,5
 267 619 267 619 271 596 c 1,6,-1
 271 595 l 1,7,-1
 271 258 l 2,8,9
 271 228 271 228 295 209 c 128,-1,10
 319 190 319 190 350 190 c 128,-1,11
 381 190 381 190 405 209 c 128,-1,12
 429 228 429 228 429 258 c 2,13,-1
 429 595 l 1,14,-1
 429 596 l 1,15,16
 433 619 433 619 457 619 c 0,17,18
 479 619 479 619 483 596 c 1,19,-1
 483 595 l 1,20,-1
 483 254 l 2,21,22
 483 203 483 203 442 169.5 c 128,-1,23
 401 136 401 136 350 136 c 128,-1,24
 299 136 299 136 258 169.5 c 128,-1,25
 217 203 217 203 217 254 c 2,0,-1
53 196 m 2,26,-1
 53 595 l 1,27,-1
 53 596 l 1,28,29
 57 619 57 619 81 619 c 0,30,31
 103 619 103 619 107 596 c 1,32,-1
 107 595 l 1,33,-1
 107 200 l 2,34,35
 107 143 107 143 147 102 c 128,-1,36
 187 61 187 61 240 44 c 128,-1,37
 293 27 293 27 350 27 c 0,38,39
 406 27 406 27 459.5 44 c 128,-1,40
 513 61 513 61 553 101.5 c 128,-1,41
 593 142 593 142 593 199 c 2,42,-1
 593 595 l 1,43,-1
 593 596 l 1,44,45
 597 619 597 619 621 619 c 0,46,47
 643 619 643 619 647 596 c 1,48,-1
 647 595 l 1,49,-1
 647 195 l 2,50,51
 647 140 647 140 619 95.5 c 128,-1,52
 591 51 591 51 546 25 c 128,-1,53
 501 -1 501 -1 450.5 -14.5 c 128,-1,54
 400 -28 400 -28 350 -28 c 0,55,56
 281 -28 281 -28 215.5 -5.5 c 128,-1,57
 150 17 150 17 101.5 70 c 128,-1,58
 53 123 53 123 53 196 c 2,26,-1
EndSplineSet
Validated: 19457
EndChar

StartChar: rightanglene
Encoding: 9488 9488 54
Width: 525
Flags: W
HStem: 662 54<53.4944 418>
VStem: 418 54<297.61 662>
LayerCount: 2
Fore
SplineSet
418 662 m 1,0,-1
 79 662 l 1,1,-1
 78 662 l 1,2,3
 53 666 53 666 53 689 c 0,4,5
 53 699 53 699 60.5 706.5 c 128,-1,6
 68 714 68 714 78 716 c 1,7,-1
 79 716 l 1,8,-1
 446 716 l 2,9,10
 466 716 466 716 472 692 c 1,11,-1
 472 323 l 1,12,-1
 472 322 l 1,13,14
 470 312 470 312 462.5 304.5 c 128,-1,15
 455 297 455 297 444 297 c 0,16,17
 422 297 422 297 418 322 c 1,18,-1
 418 323 l 1,19,-1
 418 662 l 1,0,-1
EndSplineSet
Validated: 19457
EndChar

StartChar: ominus
Encoding: 8854 8854 55
Width: 799
VWidth: 1000
Flags: W
HStem: -97 38<293.038 504.658> 232 38<90 708> 560 38<292.734 505.266>
VStem: 52 38<144.356 232 270 356.463> 708 38<144.537 232 270 356.644>
LayerCount: 2
Fore
SplineSet
708 232 m 1,0,-1
 90 232 l 1,1,2
 99 106 99 106 189 23.5 c 128,-1,3
 279 -59 279 -59 399 -59 c 0,4,5
 518 -59 518 -59 608.5 23.5 c 128,-1,6
 699 106 699 106 708 232 c 1,0,-1
90 270 m 1,7,-1
 708 270 l 1,8,9
 699 395 699 395 609.5 477.5 c 128,-1,10
 520 560 520 560 399 560 c 128,-1,11
 278 560 278 560 188.5 477.5 c 128,-1,12
 99 395 99 395 90 270 c 1,7,-1
399 -97 m 128,-1,14
 255 -97 255 -97 153.5 4.5 c 128,-1,15
 52 106 52 106 52 251 c 0,16,17
 52 394 52 394 153.5 496 c 128,-1,18
 255 598 255 598 399 598 c 128,-1,19
 543 598 543 598 644.5 496.5 c 128,-1,20
 746 395 746 395 746 250 c 0,21,22
 746 107 746 107 644.5 5 c 128,-1,13
 543 -97 543 -97 399 -97 c 128,-1,14
EndSplineSet
Validated: 19457
EndChar

StartChar: clockwise
Encoding: 8635 8635 56
Width: 818
Flags: W
HStem: -101 43<296.102 521.802> 539 39<539.188 577.858> 569 43<387.221 423.296>
VStem: 53 43<143.006 367.539> 721 43<141.262 368.481>
LayerCount: 2
Fore
SplineSet
53 256 m 0,0,1
 53 365 53 365 116 457.5 c 128,-1,2
 179 550 179 550 281 589 c 1,3,4
 233 613 233 613 181 665 c 2,5,-1
 175 671 l 1,6,-1
 222 683 l 1,7,-1
 224 680 l 1,8,9
 270 627 270 627 343 606 c 1,10,11
 373 612 373 612 408 612 c 0,12,13
 417 612 417 612 423.5 606 c 128,-1,14
 430 600 430 600 430 591 c 128,-1,15
 430 582 430 582 424.5 575.5 c 128,-1,16
 419 569 419 569 411 569 c 0,17,18
 394 569 394 569 387 568 c 1,19,20
 316 508 316 508 300 417 c 1,21,-1
 299 414 l 1,22,-1
 254 401 l 1,23,-1
 255 409 l 1,24,25
 267 482 267 482 311 543 c 1,26,-1
 308 553 l 1,27,28
 214 521 214 521 155 438 c 128,-1,29
 96 355 96 355 96 256 c 0,30,31
 96 127 96 127 188 34.5 c 128,-1,32
 280 -58 280 -58 409 -58 c 128,-1,33
 538 -58 538 -58 629.5 34.5 c 128,-1,34
 721 127 721 127 721 256 c 0,35,36
 721 346 721 346 673 423 c 128,-1,37
 625 500 625 500 544 539 c 0,38,39
 533 544 533 544 533 557 c 0,40,41
 533 566 533 566 539 572 c 128,-1,42
 545 578 545 578 554 578 c 0,43,44
 556 578 556 578 564 576 c 1,45,46
 655 533 655 533 709.5 445 c 128,-1,47
 764 357 764 357 764 256 c 0,48,49
 764 108 764 108 660.5 3.5 c 128,-1,50
 557 -101 557 -101 409 -101 c 128,-1,51
 261 -101 261 -101 157 3.5 c 128,-1,52
 53 108 53 108 53 256 c 0,0,1
EndSplineSet
Validated: 19457
EndChar

StartChar: dblarrowdwn
Encoding: 8650 8650 57
Width: 876
Flags: W
HStem: -204 21G<257.5 269.5 611.5 619.5> -37 43<73.219 126.319> 696 20G<257.5 267.5 608 618>
VStem: 237 53<-96 708.265> 587 54<-96 708.78>
LayerCount: 2
Fore
SplineSet
70 -22 m 2,0,-1
 70 -10 l 2,1,2
 70 -4 70 -4 73 -1 c 0,3,4
 80 6 80 6 88 6 c 2,5,-1
 93 6 l 1,6,-1
 94 6 l 1,7,8
 178 -28 178 -28 237 -96 c 1,9,-1
 237 691 l 2,10,11
 237 701 237 701 244.5 708.5 c 128,-1,12
 252 716 252 716 263 716 c 0,13,14
 272 716 272 716 281 708.5 c 128,-1,15
 290 701 290 701 290 691 c 2,16,-1
 290 -96 l 1,17,18
 347 -29 347 -29 432 6 c 1,19,-1
 433 6 l 1,20,-1
 443 6 l 1,21,-1
 444 6 l 1,22,23
 530 -28 530 -28 587 -96 c 1,24,-1
 587 691 l 2,25,26
 587 702 587 702 595 709 c 128,-1,27
 603 716 603 716 613 716 c 128,-1,28
 623 716 623 716 632 709 c 128,-1,29
 641 702 641 702 641 691 c 2,30,-1
 641 -96 l 1,31,32
 699 -28 699 -28 783 6 c 1,33,-1
 784 6 l 1,34,-1
 790 6 l 2,35,36
 800 6 800 6 805 -3 c 1,37,38
 807 -9 807 -9 807 -10 c 2,39,-1
 807 -22 l 2,40,41
 807 -25 807 -25 805 -29 c 0,42,43
 802 -36 802 -36 796 -37 c 1,44,45
 679 -80 679 -80 631 -192 c 0,46,47
 626 -204 626 -204 613 -204 c 0,48,49
 610 -204 610 -204 607 -203 c 1,50,51
 598 -194 598 -194 597 -192 c 0,52,53
 549 -83 549 -83 438 -39 c 1,54,55
 327 -83 327 -83 280 -192 c 1,56,57
 276 -204 276 -204 263 -204 c 0,58,59
 252 -204 252 -204 246 -192 c 0,60,61
 198 -81 198 -81 82 -37 c 1,62,63
 76 -37 76 -37 72 -29 c 0,64,65
 70 -25 70 -25 70 -22 c 2,0,-1
EndSplineSet
Validated: 19457
EndChar

StartChar: curlyleft
Encoding: 8619 8619 58
Width: 1051
Flags: W
HStem: 228 55<161 649 703 907.332> 542 55<751.696 925.221>
VStem: 649 54<-49.625 228 283 485.758> 966 55<333.735 501.809>
LayerCount: 2
Fore
SplineSet
703 283 m 1,0,-1
 741 283 l 2,1,2
 773 283 773 283 789 283.5 c 128,-1,3
 805 284 805 284 833.5 286 c 128,-1,4
 862 288 862 288 877 293 c 128,-1,5
 892 298 892 298 912 307.5 c 128,-1,6
 932 317 932 317 941.5 330.5 c 128,-1,7
 951 344 951 344 958.5 365 c 128,-1,8
 966 386 966 386 966 413 c 0,9,10
 966 482 966 482 935 512 c 128,-1,11
 904 542 904 542 835 542 c 0,12,13
 780 542 780 542 751.5 520 c 128,-1,14
 723 498 723 498 713 446 c 0,15,16
 703 397 703 397 703 283 c 1,0,-1
56 252 m 1,17,-1
 47 256 l 1,18,-1
 56 260 l 1,19,20
 163 311 163 311 211 428 c 1,21,-1
 213 431 l 1,22,-1
 259 431 l 1,23,-1
 257 424 l 1,24,25
 224 344 224 344 161 283 c 1,26,-1
 649 283 l 1,27,28
 649 322 649 322 649.5 345.5 c 128,-1,29
 650 369 650 369 654 406 c 128,-1,30
 658 443 658 443 664.5 466 c 128,-1,31
 671 489 671 489 685 516.5 c 128,-1,32
 699 544 699 544 718 560 c 128,-1,33
 737 576 737 576 767 586.5 c 128,-1,34
 797 597 797 597 835 597 c 0,35,36
 1021 597 1021 597 1021 413 c 0,37,38
 1021 376 1021 376 1012 347 c 128,-1,39
 1003 318 1003 318 990 298.5 c 128,-1,40
 977 279 977 279 954 265.5 c 128,-1,41
 931 252 931 252 910 245 c 128,-1,42
 889 238 889 238 857 234 c 128,-1,43
 825 230 825 230 801.5 229 c 128,-1,44
 778 228 778 228 742 228 c 2,45,-1
 703 228 l 1,46,-1
 703 -26 l 1,47,48
 696 -50 696 -50 676 -50 c 0,49,50
 665 -50 665 -50 658 -42.5 c 128,-1,51
 651 -35 651 -35 649 -26 c 1,52,-1
 649 -25 l 1,53,-1
 649 228 l 1,54,-1
 161 228 l 1,55,56
 224 167 224 167 257 87 c 1,57,-1
 259 80 l 1,58,-1
 213 80 l 1,59,-1
 211 83 l 1,60,61
 163 199 163 199 56 252 c 1,17,-1
EndSplineSet
Validated: 19457
EndChar

StartChar: geqq
Encoding: 8807 8807 59
Width: 818
Flags: W
HStem: -202 54<83.4944 733.725> 6 54<83.4944 733.725> 170 52<83.5997 100> 747 51<83.4307 97>
LayerCount: 2
Fore
SplineSet
100 222 m 2,0,-1
 644 484 l 1,1,-1
 97 747 l 2,2,3
 83 753 83 753 83 771 c 0,4,5
 83 782 83 782 92 790 c 128,-1,6
 101 798 101 798 111 798 c 0,7,8
 117 798 117 798 121 797 c 2,9,-1
 721 507 l 2,10,11
 734 500 734 500 734 484 c 0,12,13
 734 466 734 466 718 459 c 2,14,-1
 121 173 l 2,15,16
 117 170 117 170 111 170 c 0,17,18
 100 170 100 170 91.5 178.5 c 128,-1,19
 83 187 83 187 83 198 c 0,20,21
 83 213 83 213 100 222 c 2,0,-1
83 33 m 0,22,23
 83 56 83 56 108 60 c 1,24,-1
 109 60 l 1,25,-1
 710 60 l 1,26,-1
 711 60 l 1,27,28
 734 56 734 56 734 33 c 0,29,30
 734 11 734 11 711 6 c 1,31,-1
 710 6 l 1,32,-1
 109 6 l 1,33,-1
 108 6 l 1,34,35
 98 8 98 8 90.5 15.5 c 128,-1,36
 83 23 83 23 83 33 c 0,22,23
83 -175 m 0,37,38
 83 -152 83 -152 108 -148 c 1,39,-1
 109 -148 l 1,40,-1
 710 -148 l 1,41,-1
 711 -148 l 1,42,43
 734 -152 734 -152 734 -175 c 0,44,45
 734 -197 734 -197 711 -202 c 1,46,-1
 710 -202 l 1,47,-1
 109 -202 l 1,48,-1
 108 -202 l 1,49,50
 98 -200 98 -200 90.5 -192.5 c 128,-1,51
 83 -185 83 -185 83 -175 c 0,37,38
EndSplineSet
Validated: 19457
EndChar

StartChar: arrowtripleleft
Encoding: 8666 8666 60
Width: 1051
Flags: W
HStem: 21 54<395 997.725> 228 55<201 990.265> 436 54<395 997.641>
CounterMasks: 1 e0
LayerCount: 2
Fore
SplineSet
79 252 m 1,0,-1
 71 256 l 1,1,-1
 79 260 l 1,2,3
 190 321 190 321 273 418.5 c 128,-1,4
 356 516 356 516 399 636 c 1,5,-1
 400 639 l 1,6,-1
 465 639 l 1,7,-1
 463 632 l 1,8,9
 439 562 439 562 395 490 c 1,10,-1
 974 490 l 1,11,-1
 975 490 l 1,12,13
 998 486 998 486 998 464 c 0,14,15
 998 440 998 440 975 436 c 1,16,-1
 974 436 l 1,17,-1
 358 436 l 1,18,19
 291 347 291 347 201 283 c 1,20,-1
 972 283 l 2,21,22
 983 283 983 283 990.5 275 c 128,-1,23
 998 267 998 267 998 256 c 128,-1,24
 998 245 998 245 990.5 236.5 c 128,-1,25
 983 228 983 228 972 228 c 2,26,-1
 201 228 l 1,27,28
 291 164 291 164 358 75 c 1,29,-1
 974 75 l 1,30,-1
 975 75 l 1,31,32
 998 70 998 70 998 48 c 0,33,34
 998 25 998 25 975 21 c 1,35,-1
 974 21 l 1,36,-1
 395 21 l 1,37,38
 439 -51 439 -51 463 -121 c 1,39,-1
 465 -128 l 1,40,-1
 400 -128 l 1,41,-1
 399 -125 l 1,42,43
 356 -4 356 -4 273 94 c 128,-1,44
 190 192 190 192 79 252 c 1,0,-1
EndSplineSet
Validated: 19457
EndChar

StartChar: uprise
Encoding: 8911 8911 61
Width: 806
Flags: W
HStem: -28 55<92.2817 182.939 621.675 713.718>
VStem: 376 54<348.891 596.617>
LayerCount: 2
Fore
SplineSet
107 27 m 1,0,1
 175 34 175 34 226 75.5 c 128,-1,2
 277 117 277 117 304.5 173 c 128,-1,3
 332 229 332 229 349 305 c 128,-1,4
 366 381 366 381 371 443 c 128,-1,5
 376 505 376 505 376 572 c 2,6,-1
 376 573 l 1,7,8
 380 597 380 597 403 597 c 0,9,10
 414 597 414 597 421 589 c 128,-1,11
 428 581 428 581 430 573 c 1,12,-1
 430 572 l 2,13,14
 430 505 430 505 435 443 c 128,-1,15
 440 381 440 381 457 305 c 128,-1,16
 474 229 474 229 501.5 173 c 128,-1,17
 529 117 529 117 580 75.5 c 128,-1,18
 631 34 631 34 699 27 c 1,19,20
 723 23 723 23 723 -1 c 0,21,22
 723 -13 723 -13 714 -20.5 c 128,-1,23
 705 -28 705 -28 694 -28 c 1,24,25
 631 -22 631 -22 580 7.5 c 128,-1,26
 529 37 529 37 495 84 c 128,-1,27
 461 131 461 131 439 182.5 c 128,-1,28
 417 234 417 234 403 296 c 1,29,30
 331 -7 331 -7 112 -28 c 1,31,32
 101 -28 101 -28 92 -20.5 c 128,-1,33
 83 -13 83 -13 83 -1 c 0,34,35
 83 23 83 23 107 27 c 1,0,1
EndSplineSet
Validated: 19457
EndChar

StartChar: circleS
Encoding: 9416 9416 62
Width: 937
Flags: W
HStem: -186 54<334.124 603.876> -19 41<397.842 549.946> 519 39<387.406 521.117> 693 54<333.57 604.43>
VStem: 2 54<146.124 416.018> 282 66<370.137 479.66> 282 42<89.3579 175.875> 590 66<64.4492 188.294> 591 43<355 445.884> 882 54<146.124 416.018>
LayerCount: 2
Fore
SplineSet
282 169 m 2,0,1
 282 173 282 173 284 176 c 0,2,3
 287 180 287 180 293 182 c 0,4,5
 295 183 295 183 297 183 c 2,6,-1
 309 183 l 2,7,8
 311 183 311 183 313 182 c 0,9,10
 319 180 319 180 322 176 c 0,11,12
 324 172 324 172 324 169 c 0,13,14
 324 97 324 97 371 59.5 c 128,-1,15
 418 22 418 22 492 22 c 0,16,17
 533 22 533 22 561.5 53 c 128,-1,18
 590 84 590 84 590 124 c 0,19,20
 590 159 590 159 568.5 187.5 c 128,-1,21
 547 216 547 216 513 223 c 2,22,-1
 406 248 l 2,23,24
 353 261 353 261 317.5 303.5 c 128,-1,25
 282 346 282 346 282 400 c 0,26,27
 282 466 282 466 331 512 c 128,-1,28
 380 558 380 558 446 558 c 0,29,30
 522 558 522 558 572 512 c 1,31,-1
 602 552 l 2,32,33
 606 556 606 556 609 557 c 0,34,35
 611 558 611 558 615 558 c 2,36,-1
 616 558 l 2,37,38
 621 558 621 558 627 555 c 1,39,40
 634 550 634 550 634 544 c 2,41,-1
 634 370 l 2,42,43
 634 365 634 365 628.5 360 c 128,-1,44
 623 355 623 355 618 355 c 2,45,-1
 606 355 l 2,46,47
 602 355 602 355 599 357 c 0,48,49
 595 359 595 359 593 363 c 128,-1,50
 591 367 591 367 591 370 c 0,51,52
 591 397 591 397 577.5 429.5 c 128,-1,53
 564 462 564 462 544 482 c 0,54,55
 506 519 506 519 446 519 c 0,56,57
 407 519 407 519 377.5 492 c 128,-1,58
 348 465 348 465 348 427 c 0,59,60
 348 395 348 395 369.5 370.5 c 128,-1,61
 391 346 391 346 423 338 c 2,62,-1
 529 312 l 2,63,64
 585 299 585 299 620.5 252.5 c 128,-1,65
 656 206 656 206 656 148 c 0,66,67
 656 80 656 80 608 30.5 c 128,-1,68
 560 -19 560 -19 492 -19 c 0,69,70
 401 -19 401 -19 343 28 c 1,71,-1
 313 -13 l 2,72,73
 309 -17 309 -17 306 -18 c 0,74,75
 304 -19 304 -19 300 -19 c 2,76,-1
 299 -19 l 2,77,78
 294 -19 294 -19 289 -16 c 0,79,80
 282 -11 282 -11 282 -5 c 2,81,-1
 282 169 l 2,0,1
56 281 m 0,82,83
 56 111 56 111 177.5 -10.5 c 128,-1,84
 299 -132 299 -132 469 -132 c 128,-1,85
 639 -132 639 -132 760.5 -10.5 c 128,-1,86
 882 111 882 111 882 281 c 0,87,88
 882 450 882 450 760.5 571.5 c 128,-1,89
 639 693 639 693 469 693 c 128,-1,90
 299 693 299 693 177.5 571.5 c 128,-1,91
 56 450 56 450 56 281 c 0,82,83
469 747 m 128,-1,93
 595 747 595 747 703 684.5 c 128,-1,94
 811 622 811 622 873.5 514.5 c 128,-1,95
 936 407 936 407 936 281 c 0,96,97
 936 186 936 186 899 99.5 c 128,-1,98
 862 13 862 13 799.5 -49.5 c 128,-1,99
 737 -112 737 -112 650.5 -149 c 128,-1,100
 564 -186 564 -186 469 -186 c 128,-1,101
 374 -186 374 -186 287.5 -149 c 128,-1,102
 201 -112 201 -112 138.5 -49.5 c 128,-1,103
 76 13 76 13 39 99.5 c 128,-1,104
 2 186 2 186 2 281 c 0,105,106
 2 407 2 407 64.5 514.5 c 128,-1,107
 127 622 127 622 235 684.5 c 128,-1,92
 343 747 343 747 469 747 c 128,-1,93
EndSplineSet
Validated: 19457
EndChar

StartChar: harpoonleftright
Encoding: 8651 8651 63
Width: 1051
Flags: W
HStem: 125 54<61.251 884> 333 54<168 990.265>
LayerCount: 2
Fore
SplineSet
53 333 m 1,0,-1
 53 362 l 1,1,-1
 56 363 l 1,2,3
 163 414 163 414 211 532 c 1,4,-1
 213 535 l 1,5,-1
 259 535 l 1,6,-1
 257 529 l 1,7,8
 232 445 232 445 168 387 c 1,9,-1
 972 387 l 2,10,11
 983 387 983 387 990.5 378.5 c 128,-1,12
 998 370 998 370 998 359 c 128,-1,13
 998 348 998 348 990.5 340.5 c 128,-1,14
 983 333 983 333 972 333 c 2,15,-1
 53 333 l 1,0,-1
53 152 m 128,-1,17
 53 163 53 163 61 171 c 128,-1,18
 69 179 69 179 81 179 c 2,19,-1
 998 179 l 1,20,-1
 998 149 l 1,21,-1
 995 148 l 1,22,23
 889 97 889 97 841 -21 c 1,24,-1
 839 -24 l 1,25,-1
 793 -24 l 1,26,-1
 795 -18 l 1,27,28
 820 65 820 65 884 125 c 1,29,-1
 81 125 l 2,30,31
 69 125 69 125 61 133 c 128,-1,16
 53 141 53 141 53 152 c 128,-1,17
EndSplineSet
Validated: 19457
EndChar

StartChar: harpoondownright
Encoding: 8642 8642 64
Width: 438
Flags: W
HStem: -204 21G<192 224> 696 20G<213 224.5>
VStem: 192 54<-89 707.749>
LayerCount: 2
Fore
SplineSet
192 689 m 2,0,1
 192 700 192 700 199.5 708 c 128,-1,2
 207 716 207 716 219 716 c 0,3,4
 230 716 230 716 238 708 c 128,-1,5
 246 700 246 700 246 689 c 2,6,-1
 246 -89 l 1,7,8
 306 -24 306 -24 388 0 c 1,9,-1
 394 2 l 1,10,-1
 394 -44 l 1,11,-1
 391 -46 l 1,12,13
 274 -94 274 -94 224 -201 c 1,14,-1
 222 -204 l 1,15,-1
 192 -204 l 1,16,-1
 192 689 l 2,0,1
EndSplineSet
Validated: 19457
EndChar

StartChar: greaterorless
Encoding: 8823 8823 65
Width: 818
Flags: W
HStem: -283 54<718 733.436> 159 53<83.415 100> 229 52<718 733.719> 671 52<83.4307 100>
LayerCount: 2
Fore
SplineSet
100 212 m 2,0,-1
 638 441 l 1,1,-1
 100 671 l 1,2,3
 83 677 83 677 83 696 c 0,4,5
 83 707 83 707 92 715 c 128,-1,6
 101 723 101 723 111 723 c 0,7,8
 117 723 117 723 121 722 c 2,9,-1
 718 467 l 1,10,11
 734 458 734 458 734 441 c 0,12,13
 734 422 734 422 718 416 c 2,14,-1
 121 161 l 2,15,16
 117 159 117 159 112 159 c 2,17,-1
 111 159 l 2,18,19
 100 159 100 159 91.5 167 c 128,-1,20
 83 175 83 175 83 186 c 0,21,22
 83 204 83 204 100 212 c 2,0,-1
83 -0 m 0,23,24
 83 17 83 17 100 25 c 2,25,-1
 697 280 l 2,26,27
 699 281 699 281 708 281 c 0,28,29
 718 281 718 281 726 273 c 128,-1,30
 734 265 734 265 734 255 c 0,31,32
 734 235 734 235 718 229 c 2,33,-1
 179 -0 l 1,34,-1
 718 -229 l 1,35,36
 734 -238 734 -238 734 -255 c 0,37,38
 734 -266 734 -266 726 -274.5 c 128,-1,39
 718 -283 718 -283 708 -283 c 0,40,41
 702 -283 702 -283 699 -281 c 0,42,43
 698 -280 l 0,44,-1
 697 -279 l 2,45,46
 697 -280 697 -280 696 -279 c 2,47,-1
 100 -25 l 1,48,49
 83 -19 83 -19 83 -0 c 0,23,24
EndSplineSet
Validated: 19457
EndChar

StartChar: leftarrow
Encoding: 8592 8592 66
Width: 1027
VWidth: 1000
Flags: W
HStem: 224 53<162 971.39>
VStem: 220 41<66.0176 117.875 383.584 433>
LayerCount: 2
Fore
SplineSet
162 224 m 1,0,1
 207 188 207 188 233 146 c 128,-1,2
 259 104 259 104 261 86 c 1,3,-1
 261 84 l 2,4,5
 261 66 261 66 241 66 c 0,6,7
 227 66 227 66 220 80 c 0,8,9
 170 188 170 188 78 228 c 0,10,11
 61 235 61 235 58 238 c 1,12,13
 53 241 53 241 52 248 c 1,14,15
 52 251 l 1,16,-1
 52 253 l 1,17,18
 53 259 53 259 57 263 c 0,19,20
 58 264 58 264 74 272 c 1,21,22
 169 312 169 312 215 410 c 0,23,24
 223 428 223 428 229 432 c 0,25,26
 230 433 230 433 232 433 c 0,27,28
 238 435 238 435 241 435 c 0,29,30
 261 435 261 435 261 417 c 2,31,32
 261 415 l 1,33,34
 258 397 258 397 232 355 c 128,-1,35
 206 313 206 313 162 277 c 1,36,-1
 935 277 l 2,37,38
 944 277 944 277 949 276.5 c 128,-1,39
 954 276 954 276 961 273.5 c 128,-1,40
 968 271 968 271 971.5 265.5 c 128,-1,41
 975 260 975 260 975 250 c 0,42,43
 975 224 975 224 935 224 c 2,44,-1
 162 224 l 1,0,1
EndSplineSet
Validated: 19457
EndChar

StartChar: xor
Encoding: 8891 8891 67
Width: 643
Flags: W
HStem: -5 54<53.6104 588.506>
VStem: 53 50<725 737.5> 539 50<725 737.543>
LayerCount: 2
Fore
SplineSet
56 701 m 2,0,1
 54 703 54 703 53 706 c 1,2,3
 53 712 l 2,4,5
 53 722 53 722 61 730 c 128,-1,6
 69 738 69 738 81 738 c 0,7,8
 96 738 96 738 103 725 c 2,9,-1
 322 291 l 1,10,-1
 539 725 l 2,11,12
 546 738 546 738 562 738 c 0,13,14
 572 738 572 738 580.5 730.5 c 128,-1,15
 589 723 589 723 589 712 c 0,16,17
 589 704 589 704 588 702 c 2,18,-1
 587 701 l 1,19,-1
 345 217 l 1,20,21
 336 203 336 203 322 203 c 0,22,23
 303 203 303 203 298 217 c 1,24,-1
 56 701 l 2,0,1
53 23 m 0,25,26
 53 45 53 45 78 49 c 1,27,-1
 79 49 l 1,28,-1
 564 49 l 1,29,-1
 565 49 l 1,30,31
 575 47 575 47 582 40 c 128,-1,32
 589 33 589 33 589 23 c 0,33,34
 589 12 589 12 582 4.5 c 128,-1,35
 575 -3 575 -3 565 -5 c 1,36,-1
 564 -5 l 1,37,-1
 79 -5 l 1,38,-1
 78 -5 l 1,39,40
 68 -3 68 -3 60.5 4.5 c 128,-1,41
 53 12 53 12 53 23 c 0,25,26
EndSplineSet
Validated: 19457
EndChar

StartChar: multiopenleft
Encoding: 8907 8907 68
Width: 818
Flags: W
HStem: 696 20G<76 86.5>
LayerCount: 2
Fore
SplineSet
53 -1 m 0,0,1
 53 8 53 8 61 18 c 1,2,-1
 371 344 l 1,3,-1
 61 671 l 2,4,5
 53 679 53 679 53 689 c 0,6,7
 53 700 53 700 62 708 c 128,-1,8
 71 716 71 716 81 716 c 0,9,10
 92 716 92 716 100 708 c 2,11,-1
 757 18 l 1,12,13
 764 8 764 8 764 -1 c 0,14,15
 764 -12 764 -12 755 -20 c 128,-1,16
 746 -28 746 -28 736 -28 c 128,-1,17
 726 -28 726 -28 717 -19 c 2,18,-1
 409 305 l 1,19,-1
 100 -19 l 2,20,21
 91 -28 91 -28 81 -28 c 128,-1,22
 71 -28 71 -28 62 -20 c 128,-1,23
 53 -12 53 -12 53 -1 c 0,0,1
EndSplineSet
Validated: 19457
EndChar

StartChar: revsimilar
Encoding: 8765 8765 69
Width: 818
Flags: W
HStem: 126 72<159.387 311.387> 314 72<505.613 657.613>
VStem: 53 41<271.961 382.809> 723 41<129.191 240.039>
LayerCount: 2
Fore
SplineSet
53 346 m 2,0,-1
 53 354 l 1,1,-1
 53 355 l 1,2,3
 55 377 55 377 66 384 c 0,4,5
 70 386 70 386 74 386 c 0,6,7
 79 386 79 386 83 383 c 0,8,9
 90 377 90 377 94 355 c 1,10,-1
 94 354 l 2,11,12
 94 291 94 291 133 244.5 c 128,-1,13
 172 198 172 198 233 198 c 0,14,15
 271 198 271 198 307 217.5 c 128,-1,16
 343 237 343 237 373.5 264.5 c 128,-1,17
 404 292 404 292 435 319.5 c 128,-1,18
 466 347 466 347 504.5 366.5 c 128,-1,19
 543 386 543 386 584 386 c 0,20,21
 666 386 666 386 715 317.5 c 128,-1,22
 764 249 764 249 764 166 c 2,23,-1
 764 158 l 1,24,-1
 764 157 l 1,25,26
 762 135 762 135 751 128 c 0,27,28
 747 126 747 126 743 126 c 0,29,30
 738 126 738 126 734 129 c 0,31,32
 727 135 727 135 723 157 c 1,33,-1
 723 158 l 2,34,35
 723 221 723 221 684 267.5 c 128,-1,36
 645 314 645 314 584 314 c 0,37,38
 546 314 546 314 510 294.5 c 128,-1,39
 474 275 474 275 443.5 247.5 c 128,-1,40
 413 220 413 220 382 192.5 c 128,-1,41
 351 165 351 165 312.5 145.5 c 128,-1,42
 274 126 274 126 233 126 c 0,43,44
 151 126 151 126 102 194.5 c 128,-1,45
 53 263 53 263 53 346 c 2,0,-1
EndSplineSet
Validated: 19457
EndChar

StartChar: squareminus
Encoding: 8863 8863 70
Width: 818
Flags: W
HStem: -5 54<107 710> 335 54<107 710> 674 54<107 710>
VStem: 53 54<49 335 389 674> 710 54<49 335 389 674>
LayerCount: 2
Fore
SplineSet
107 389 m 1,0,-1
 710 389 l 1,1,-1
 710 674 l 1,2,-1
 107 674 l 1,3,-1
 107 389 l 1,0,-1
107 49 m 1,4,-1
 710 49 l 1,5,-1
 710 335 l 1,6,-1
 107 335 l 1,7,-1
 107 49 l 1,4,-1
53 703 m 2,8,9
 53 722 53 722 78 728 c 1,10,-1
 79 728 l 1,11,-1
 739 728 l 2,12,13
 758 728 758 728 764 704 c 1,14,-1
 764 20 l 2,15,16
 764 10 764 10 756.5 3.5 c 128,-1,17
 749 -3 749 -3 740 -5 c 1,18,-1
 79 -5 l 2,19,20
 69 -5 69 -5 62 2 c 128,-1,21
 55 9 55 9 53 19 c 1,22,-1
 53 20 l 1,23,-1
 53 703 l 2,8,9
EndSplineSet
Validated: 19457
EndChar

StartChar: harpoondownleft
Encoding: 8643 8643 71
Width: 438
Flags: W
HStem: -204 21G<216 247> 696 20G<214 225.5>
VStem: 193 54<-89 707.749>
LayerCount: 2
Fore
SplineSet
44 -44 m 1,0,-1
 44 2 l 1,1,-1
 50 -0 l 1,2,3
 133 -25 133 -25 193 -89 c 1,4,-1
 193 689 l 2,5,6
 193 700 193 700 200.5 708 c 128,-1,7
 208 716 208 716 220 716 c 0,8,9
 231 716 231 716 239 708 c 128,-1,10
 247 700 247 700 247 689 c 2,11,-1
 247 -204 l 1,12,-1
 217 -204 l 1,13,-1
 216 -201 l 1,14,15
 165 -94 165 -94 47 -46 c 1,16,-1
 44 -44 l 1,0,-1
EndSplineSet
Validated: 19457
EndChar

StartChar: greaterorsimilar
Encoding: 8819 8819 72
Width: 818
Flags: W
HStem: -257 72<505.613 657.613> -70 72<160.032 311.387> 148 52<83.415 100> 724 51<83.2812 97>
VStem: 53 41<-253.809 -144.861> 723 41<-110.139 -1.19141>
LayerCount: 2
Fore
SplineSet
100 200 m 2,0,-1
 644 462 l 1,1,-1
 97 724 l 2,2,3
 83 730 83 730 83 749 c 0,4,5
 83 759 83 759 91 767 c 128,-1,6
 99 775 99 775 111 775 c 0,7,8
 117 775 117 775 121 774 c 2,9,-1
 721 484 l 2,10,11
 734 478 734 478 734 462 c 0,12,13
 734 443 734 443 718 436 c 2,14,-1
 121 151 l 2,15,16
 117 148 117 148 111 148 c 0,17,18
 100 148 100 148 91.5 156 c 128,-1,19
 83 164 83 164 83 175 c 0,20,21
 83 191 83 191 100 200 c 2,0,-1
53 -226 m 1,22,-1
 53 -225 l 1,23,-1
 53 -217 l 2,24,25
 53 -134 53 -134 102.5 -66 c 128,-1,26
 152 2 152 2 233 2 c 0,27,28
 274 2 274 2 312.5 -17.5 c 128,-1,29
 351 -37 351 -37 382 -64.5 c 128,-1,30
 413 -92 413 -92 443.5 -119 c 128,-1,31
 474 -146 474 -146 510 -165.5 c 128,-1,32
 546 -185 546 -185 584 -185 c 0,33,34
 645 -185 645 -185 684 -138.5 c 128,-1,35
 723 -92 723 -92 723 -30 c 2,36,-1
 723 -29 l 1,37,38
 726 -7 726 -7 734 -1 c 0,39,40
 737 2 737 2 743 2 c 0,41,42
 748 2 748 2 751 0 c 0,43,44
 762 -7 762 -7 764 -29 c 1,45,-1
 764 -30 l 1,46,-1
 764 -38 l 2,47,48
 764 -121 764 -121 715 -189 c 128,-1,49
 666 -257 666 -257 584 -257 c 0,50,51
 543 -257 543 -257 504.5 -237.5 c 128,-1,52
 466 -218 466 -218 435 -191 c 128,-1,53
 404 -164 404 -164 373.5 -136.5 c 128,-1,54
 343 -109 343 -109 307 -89.5 c 128,-1,55
 271 -70 271 -70 233 -70 c 0,56,57
 173 -70 173 -70 133.5 -116.5 c 128,-1,58
 94 -163 94 -163 94 -225 c 2,59,-1
 94 -226 l 1,60,61
 90 -248 90 -248 83 -254 c 0,62,63
 80 -257 80 -257 74 -257 c 0,64,65
 69 -257 69 -257 66 -255 c 0,66,67
 56 -249 56 -249 53 -226 c 1,22,-1
EndSplineSet
Validated: 19457
EndChar

StartChar: squareoriginal
Encoding: 8848 8848 73
Width: 818
Flags: W
HStem: -58 54<62.3594 703> 515 54<62.3594 703>
VStem: 703 54<-4 515>
LayerCount: 2
Fore
SplineSet
62 -32 m 0,0,1
 62 -8 62 -8 85 -4 c 1,2,-1
 86 -4 l 1,3,-1
 703 -4 l 1,4,-1
 703 515 l 1,5,-1
 86 515 l 1,6,-1
 85 515 l 1,7,8
 62 519 62 519 62 543 c 0,9,10
 62 565 62 565 85 569 c 1,11,-1
 86 569 l 1,12,-1
 731 569 l 2,13,14
 749 569 749 569 757 547 c 1,15,-1
 757 546 l 1,16,-1
 757 -34 l 2,17,18
 757 -52 757 -52 732 -58 c 1,19,-1
 86 -58 l 1,20,-1
 85 -58 l 1,21,22
 62 -54 62 -54 62 -32 c 0,0,1
EndSplineSet
Validated: 19457
EndChar

StartChar: trianglesolid
Encoding: 9650 9650 74
Width: 743
Flags: W
LayerCount: 2
Fore
SplineSet
83 -0 m 0,0,1
 83 6 83 6 84 9 c 1,2,3
 84 10 l 1,4,-1
 346 580 l 1,5,6
 355 597 355 597 372 597 c 0,7,8
 388 597 388 597 397 580 c 1,9,-1
 659 10 l 2,10,11
 660 8 660 8 660 0 c 0,12,13
 660 -22 660 -22 637 -28 c 1,14,-1
 107 -28 l 1,15,16
 83 -22 83 -22 83 -0 c 0,0,1
EndSplineSet
Validated: 3073
EndChar

StartChar: subseteq
Encoding: 8838 8838 75
Width: 799
VWidth: 1000
Flags: W
HStem: -159 53<103.343 713.39> 44 53<288.173 713.39> 604 53<288.818 713.39>
VStem: 81 53<247.974 453.115>
LayerCount: 2
Fore
SplineSet
677 -106 m 2,0,1
 686 -106 686 -106 691 -106.5 c 128,-1,2
 696 -107 696 -107 703 -109.5 c 128,-1,3
 710 -112 710 -112 713.5 -117.5 c 128,-1,4
 717 -123 717 -123 717 -133 c 0,5,6
 717 -159 717 -159 677 -159 c 2,7,-1
 142 -159 l 2,8,9
 103 -159 103 -159 103 -132 c 0,10,11
 103 -106 103 -106 142 -106 c 2,12,-1
 677 -106 l 2,0,1
401 604 m 2,13,14
 289 604 289 604 211.5 530 c 128,-1,15
 134 456 134 456 134 350 c 0,16,17
 134 246 134 246 211 171.5 c 128,-1,18
 288 97 288 97 401 97 c 2,19,-1
 677 97 l 2,20,21
 686 97 686 97 691 96.5 c 128,-1,22
 696 96 696 96 703 93.5 c 128,-1,23
 710 91 710 91 713.5 85.5 c 128,-1,24
 717 80 717 80 717 70 c 0,25,26
 717 44 717 44 677 44 c 2,27,-1
 397 44 l 2,28,29
 269 44 269 44 175 132 c 128,-1,30
 81 220 81 220 81 351 c 0,31,32
 81 480 81 480 175 568.5 c 128,-1,33
 269 657 269 657 397 657 c 2,34,-1
 677 657 l 2,35,36
 686 657 686 657 691 656.5 c 128,-1,37
 696 656 696 656 703 653.5 c 128,-1,38
 710 651 710 651 713.5 645.5 c 128,-1,39
 717 640 717 640 717 630 c 0,40,41
 717 604 717 604 677 604 c 2,42,-1
 401 604 l 2,13,14
EndSplineSet
Validated: 19457
EndChar

StartChar: rightanglesw
Encoding: 9492 9492 76
Width: 525
Flags: W
HStem: -28 55<107 471.471>
VStem: 53 54<27 390.625>
LayerCount: 2
Fore
SplineSet
53 -4 m 1,0,-1
 53 366 l 1,1,-1
 53 367 l 1,2,3
 57 391 57 391 81 391 c 0,4,5
 103 391 103 391 107 367 c 1,6,-1
 107 366 l 1,7,-1
 107 27 l 1,8,-1
 446 27 l 1,9,-1
 447 27 l 1,10,11
 457 25 457 25 464.5 17.5 c 128,-1,12
 472 10 472 10 472 -1 c 0,13,14
 472 -11 472 -11 464.5 -18.5 c 128,-1,15
 457 -26 457 -26 447 -28 c 1,16,-1
 446 -28 l 1,17,-1
 79 -28 l 2,18,19
 59 -28 59 -28 53 -4 c 1,0,-1
EndSplineSet
Validated: 19457
EndChar

StartChar: squaredot
Encoding: 8865 8865 77
Width: 818
Flags: W
HStem: -5 54<107 710> 300 125<366.08 453.436> 674 54<107 710>
VStem: 53 54<49 674> 347 125<318.564 405.92> 710 54<49 674>
LayerCount: 2
Fore
SplineSet
410 425 m 0,0,1
 435 425 435 425 453.5 406.5 c 128,-1,2
 472 388 472 388 472 362 c 128,-1,3
 472 336 472 336 454 318 c 128,-1,4
 436 300 436 300 410 300 c 128,-1,5
 384 300 384 300 365.5 318 c 128,-1,6
 347 336 347 336 347 362 c 128,-1,7
 347 388 347 388 365.5 406.5 c 128,-1,8
 384 425 384 425 410 425 c 0,0,1
107 49 m 1,9,-1
 710 49 l 1,10,-1
 710 674 l 1,11,-1
 107 674 l 1,12,-1
 107 49 l 1,9,-1
53 703 m 2,13,14
 53 722 53 722 78 728 c 1,15,-1
 79 728 l 1,16,-1
 739 728 l 2,17,18
 758 728 758 728 764 704 c 1,19,-1
 764 20 l 2,20,21
 764 10 764 10 756.5 3.5 c 128,-1,22
 749 -3 749 -3 740 -5 c 1,23,-1
 79 -5 l 2,24,25
 69 -5 69 -5 62 2 c 128,-1,26
 55 9 55 9 53 19 c 1,27,-1
 53 20 l 1,28,-1
 53 703 l 2,13,14
EndSplineSet
Validated: 19457
EndChar

StartChar: forcesbar
Encoding: 8874 8874 78
Width: 934
Flags: W
HStem: -5 21G<69 92 269.5 286.5 458 481.5> 329 54<497 881.617> 696 20G<75.5 86 263.5 280.5 464.5 475.5>
VStem: 53 54<-4.625 715.506> 248 54<-4.625 715.617> 442 55<-4.625 329 383 715.5>
LayerCount: 2
Fore
SplineSet
442 20 m 1,0,-1
 442 691 l 1,1,-1
 442 692 l 1,2,3
 444 702 444 702 451.5 709 c 128,-1,4
 459 716 459 716 470 716 c 128,-1,5
 481 716 481 716 488 708 c 128,-1,6
 495 700 495 700 497 692 c 1,7,-1
 497 691 l 1,8,-1
 497 383 l 1,9,-1
 857 383 l 1,10,-1
 858 383 l 1,11,12
 866 381 866 381 874 374 c 128,-1,13
 882 367 882 367 882 356 c 0,14,15
 882 333 882 333 858 329 c 1,16,-1
 857 329 l 1,17,-1
 497 329 l 1,18,-1
 497 20 l 1,19,-1
 497 19 l 1,20,21
 493 -5 493 -5 470 -5 c 0,22,23
 446 -5 446 -5 442 19 c 1,24,-1
 442 20 l 1,0,-1
248 20 m 1,25,-1
 248 691 l 1,26,-1
 248 692 l 1,27,28
 252 716 252 716 275 716 c 0,29,30
 286 716 286 716 293 708 c 128,-1,31
 300 700 300 700 302 692 c 1,32,-1
 302 691 l 1,33,-1
 302 20 l 1,34,-1
 302 19 l 1,35,36
 298 -5 298 -5 275 -5 c 0,37,38
 264 -5 264 -5 257 2.5 c 128,-1,39
 250 10 250 10 248 19 c 1,40,-1
 248 20 l 1,25,-1
53 20 m 1,41,-1
 53 691 l 1,42,-1
 53 692 l 1,43,44
 55 702 55 702 62.5 709 c 128,-1,45
 70 716 70 716 81 716 c 0,46,47
 91 716 91 716 98 709 c 128,-1,48
 105 702 105 702 107 692 c 1,49,-1
 107 691 l 1,50,-1
 107 20 l 1,51,-1
 107 19 l 1,52,53
 103 -5 103 -5 81 -5 c 0,54,55
 57 -5 57 -5 53 19 c 1,56,-1
 53 20 l 1,41,-1
EndSplineSet
Validated: 19457
EndChar

StartChar: arrowtailleft
Encoding: 8610 8610 79
Width: 1169
Flags: W
HStem: 228 55<161 964.148>
LayerCount: 2
Fore
SplineSet
56 252 m 1,0,-1
 47 256 l 1,1,-1
 56 260 l 1,2,3
 163 311 163 311 211 428 c 1,4,-1
 213 431 l 1,5,-1
 259 431 l 1,6,-1
 257 424 l 1,7,8
 224 344 224 344 161 283 c 1,9,-1
 936 283 l 1,10,11
 1017 337 1017 337 1052 428 c 1,12,-1
 1054 431 l 1,13,-1
 1100 431 l 1,14,-1
 1098 424 l 1,15,16
 1062 337 1062 337 994 276 c 1,17,-1
 994 235 l 1,18,19
 1062 174 1062 174 1098 87 c 1,20,-1
 1100 80 l 1,21,-1
 1054 80 l 1,22,-1
 1052 83 l 1,23,24
 1015 175 1015 175 936 228 c 1,25,-1
 161 228 l 1,26,27
 224 167 224 167 257 87 c 1,28,-1
 259 80 l 1,29,-1
 213 80 l 1,30,-1
 211 83 l 1,31,32
 163 199 163 199 56 252 c 1,0,-1
EndSplineSet
Validated: 19457
EndChar

StartChar: multimap
Encoding: 8888 8888 80
Width: 1169
Flags: W
HStem: 82 54<873.429 1009.64> 228 55<53.5292 774.889> 375 54<873.429 1009.32>
VStem: 770 52<187.738 228 283 323.262> 1061 54<187.821 323.32>
CounterMasks: 1 e0
LayerCount: 2
Fore
SplineSet
942 136 m 0,0,1
 990 136 990 136 1025.5 171.5 c 128,-1,2
 1061 207 1061 207 1061 256 c 0,3,4
 1061 304 1061 304 1025.5 339.5 c 128,-1,5
 990 375 990 375 942 375 c 0,6,7
 893 375 893 375 857.5 339.5 c 128,-1,8
 822 304 822 304 822 256 c 0,9,10
 822 207 822 207 857.5 171.5 c 128,-1,11
 893 136 893 136 942 136 c 0,0,1
53 256 m 0,12,13
 53 266 53 266 60.5 273.5 c 128,-1,14
 68 281 68 281 78 283 c 1,15,-1
 79 283 l 1,16,-1
 770 283 l 1,17,18
 781 345 781 345 829.5 387 c 128,-1,19
 878 429 878 429 942 429 c 0,20,21
 1012 429 1012 429 1063.5 377.5 c 128,-1,22
 1115 326 1115 326 1115 256 c 0,23,24
 1115 185 1115 185 1064 133.5 c 128,-1,25
 1013 82 1013 82 942 82 c 0,26,27
 878 82 878 82 829.5 124 c 128,-1,28
 781 166 781 166 770 228 c 1,29,-1
 79 228 l 1,30,-1
 78 228 l 1,31,32
 68 230 68 230 60.5 237.5 c 128,-1,33
 53 245 53 245 53 256 c 0,12,13
EndSplineSet
Validated: 19457
EndChar

StartChar: leq
Encoding: 8804 8804 81
Width: 799
VWidth: 1000
Flags: W
HStem: -159 53<81.3516 716.648> 44 53<696 716.585> 603 54<694 716.321>
LayerCount: 2
Fore
SplineSet
121 -159 m 2,0,1
 81 -159 81 -159 81 -133 c 0,2,3
 81 -106 81 -106 121 -106 c 2,4,-1
 677 -106 l 2,5,6
 717 -106 717 -106 717 -133 c 0,7,8
 717 -159 717 -159 677 -159 c 2,9,-1
 121 -159 l 2,0,1
169 351 m 1,10,-1
 696 97 l 2,11,12
 717 87 717 87 717 70 c 0,13,14
 717 61 717 61 709.5 52.5 c 128,-1,15
 702 44 702 44 690 44 c 0,16,17
 685 44 685 44 670 52 c 2,18,-1
 102 325 l 2,19,20
 81 335 81 335 81 350 c 0,21,22
 81 366 81 366 104 378 c 2,23,-1
 672 650 l 2,24,25
 686 657 686 657 690 657 c 2,26,-1
 691 657 l 2,27,28
 700 657 700 657 708.5 649.5 c 128,-1,29
 717 642 717 642 717 630 c 0,30,31
 717 616 717 616 694 603 c 1,32,-1
 169 351 l 1,10,-1
EndSplineSet
Validated: 19457
EndChar

StartChar: triangleleft
Encoding: 8883 8883 82
Width: 818
Flags: W
VStem: 680 54<12 499>
LayerCount: 2
Fore
SplineSet
174 256 m 1,0,-1
 680 12 l 1,1,-1
 680 499 l 1,2,-1
 174 256 l 1,0,-1
84 256 m 0,3,4
 84 274 84 274 97 279 c 1,5,-1
 697 567 l 2,6,7
 701 569 701 569 708 569 c 0,8,9
 730 569 730 569 734 546 c 1,10,-1
 734 545 l 1,11,-1
 734 -34 l 1,12,-1
 734 -35 l 1,13,14
 730 -58 730 -58 708 -58 c 0,15,16
 700 -58 700 -58 698 -57 c 0,17,18
 698 -56 698 -56 697 -56 c 2,19,-1
 100 231 l 1,20,21
 84 237 84 237 84 256 c 0,3,4
EndSplineSet
Validated: 19457
EndChar

StartChar: ringinequal
Encoding: 8790 8790 83
Width: 818
Flags: W
HStem: 125 54<53.3906 315 341.118 475.93 503 763.625> 333 54<53.4944 315 341.588 476.641 503 763.525>
VStem: 287 35<203.572 307.669> 495 35<203.923 310.23>
LayerCount: 2
Fore
SplineSet
370 179 m 1,0,-1
 448 179 l 1,1,2
 469 189 469 189 482 210 c 128,-1,3
 495 231 495 231 495 256 c 0,4,5
 495 310 495 310 448 333 c 1,6,-1
 370 333 l 1,7,8
 348 323 348 323 335 301.5 c 128,-1,9
 322 280 322 280 322 256 c 0,10,11
 322 231 322 231 335 210 c 128,-1,12
 348 189 348 189 370 179 c 1,0,-1
53 152 m 0,13,14
 53 173 53 173 78 179 c 1,15,-1
 315 179 l 1,16,17
 287 213 287 213 287 256 c 128,-1,18
 287 299 287 299 315 333 c 1,19,-1
 79 333 l 1,20,-1
 78 333 l 1,21,22
 53 337 53 337 53 359 c 128,-1,23
 53 381 53 381 78 387 c 1,24,-1
 740 387 l 1,25,26
 764 380 764 380 764 359 c 0,27,28
 764 349 764 349 756.5 342 c 128,-1,29
 749 335 749 335 740 333 c 1,30,-1
 739 333 l 1,31,-1
 503 333 l 1,32,33
 530 300 530 300 530 256 c 128,-1,34
 530 212 530 212 503 179 c 1,35,-1
 740 179 l 1,36,37
 764 172 764 172 764 152 c 0,38,39
 764 129 764 129 740 125 c 1,40,-1
 739 125 l 1,41,-1
 79 125 l 1,42,-1
 78 125 l 1,43,44
 53 129 53 129 53 152 c 0,13,14
EndSplineSet
Validated: 19457
EndChar

StartChar: sphericalangle
Encoding: 8738 8738 84
Width: 759
Flags: W
HStem: -59 51<689 704.719>
VStem: 550 54<110.703 400.361> 670 35<-58 -33>
LayerCount: 2
Fore
SplineSet
143 256 m 1,0,-1
 515 77 l 1,1,2
 550 159 550 159 550 256 c 0,3,4
 550 352 550 352 515 434 c 1,5,-1
 143 256 l 1,0,-1
53 256 m 0,6,7
 53 272 53 272 68 279 c 2,8,-1
 669 568 l 2,9,10
 675 570 675 570 677 570 c 2,11,-1
 679 570 l 2,12,13
 690 570 690 570 697.5 562.5 c 128,-1,14
 705 555 705 555 705 544 c 0,15,16
 705 527 705 527 692 520 c 2,17,-1
 563 459 l 1,18,19
 604 362 604 362 604 256 c 0,20,21
 604 149 604 149 563 52 c 1,22,-1
 689 -8 l 1,23,24
 705 -17 705 -17 705 -33 c 0,25,26
 705 -43 705 -43 697 -51 c 128,-1,27
 689 -59 689 -59 679 -59 c 2,28,-1
 678 -59 l 2,29,30
 672 -59 672 -59 670 -58 c 0,31,32
 670 -57 670 -57 669 -57 c 2,33,-1
 71 231 l 2,34,35
 53 239 53 239 53 256 c 0,6,7
EndSplineSet
Validated: 19457
EndChar

StartChar: sim
Encoding: 8764 8764 85
Width: 799
VWidth: 1000
Flags: W
HStem: 123 90<488.684 642.333> 287 90<155.667 309.316>
VStem: 52 44<124.255 229.356> 702 44<273.186 373.684>
LayerCount: 2
Fore
SplineSet
52 162 m 2,0,-1
 52 175 l 2,1,2
 52 254 52 254 101 315.5 c 128,-1,3
 150 377 150 377 228 377 c 0,4,5
 267 377 267 377 304.5 360 c 128,-1,6
 342 343 342 343 372.5 319 c 128,-1,7
 403 295 403 295 433.5 271 c 128,-1,8
 464 247 464 247 499.5 230 c 128,-1,9
 535 213 535 213 570 213 c 0,10,11
 621 213 621 213 661.5 250.5 c 128,-1,12
 702 288 702 288 702 339 c 0,13,14
 702 364 702 364 715 374 c 0,15,16
 719 377 719 377 724 377 c 128,-1,17
 729 377 729 377 731 375 c 0,18,19
 746 368 746 368 746 339 c 2,20,-1
 746 326 l 2,21,22
 746 246 746 246 697 184.5 c 128,-1,23
 648 123 648 123 570 123 c 0,24,25
 531 123 531 123 493.5 140 c 128,-1,26
 456 157 456 157 425.5 181 c 128,-1,27
 395 205 395 205 364.5 229 c 128,-1,28
 334 253 334 253 298.5 270 c 128,-1,29
 263 287 263 287 228 287 c 0,30,31
 177 287 177 287 136.5 250 c 128,-1,32
 96 213 96 213 96 162 c 0,33,34
 96 137 96 137 82 126 c 0,35,36
 79 123 79 123 74 123 c 128,-1,37
 69 123 69 123 68 124 c 0,38,39
 52 132 52 132 52 162 c 2,0,-1
EndSplineSet
Validated: 19457
EndChar

StartChar: squaremultiply
Encoding: 8864 8864 86
Width: 818
Flags: W
HStem: -5 54<144 673> 674 54<144 673>
VStem: 53 54<89 634> 710 54<89 634>
LayerCount: 2
Fore
SplineSet
409 400 m 1,0,-1
 673 674 l 1,1,-1
 144 674 l 1,2,-1
 409 400 l 1,0,-1
710 89 m 1,3,-1
 710 634 l 1,4,-1
 446 361 l 1,5,-1
 710 89 l 1,3,-1
107 89 m 1,6,-1
 371 361 l 1,7,-1
 107 634 l 1,8,-1
 107 89 l 1,6,-1
144 49 m 1,9,-1
 673 49 l 1,10,-1
 409 323 l 1,11,-1
 144 49 l 1,9,-1
53 703 m 2,12,13
 53 722 53 722 78 728 c 1,14,-1
 79 728 l 1,15,-1
 739 728 l 2,16,17
 758 728 758 728 764 704 c 1,18,-1
 764 20 l 2,19,20
 764 10 764 10 756.5 3.5 c 128,-1,21
 749 -3 749 -3 740 -5 c 1,22,-1
 79 -5 l 2,23,24
 69 -5 69 -5 62 2 c 128,-1,25
 55 9 55 9 53 19 c 1,26,-1
 53 20 l 1,27,-1
 53 703 l 2,12,13
EndSplineSet
Validated: 19457
EndChar

StartChar: dblarrowheadright
Encoding: 8608 8608 87
Width: 1051
Flags: W
HStem: 228 55<61.251 697 735.512 890>
LayerCount: 2
Fore
SplineSet
53 256 m 0,0,1
 53 267 53 267 61 275 c 128,-1,2
 69 283 69 283 81 283 c 2,3,-1
 697 283 l 1,4,5
 634 344 634 344 601 424 c 1,6,-1
 599 431 l 1,7,-1
 645 431 l 1,8,-1
 647 428 l 1,9,10
 684 337 684 337 764 283 c 1,11,-1
 890 283 l 1,12,13
 829 343 829 343 795 424 c 1,14,-1
 793 431 l 1,15,-1
 839 431 l 1,16,-1
 841 428 l 1,17,18
 889 311 889 311 995 260 c 1,19,-1
 1004 256 l 1,20,-1
 995 252 l 1,21,22
 889 200 889 200 841 83 c 1,23,-1
 839 80 l 1,24,-1
 793 80 l 1,25,-1
 795 87 l 1,26,27
 829 168 829 168 890 228 c 1,28,-1
 764 228 l 1,29,30
 684 174 684 174 647 83 c 1,31,-1
 645 80 l 1,32,-1
 599 80 l 1,33,-1
 601 87 l 1,34,35
 634 167 634 167 697 228 c 1,36,-1
 81 228 l 2,37,38
 69 228 69 228 61 236 c 128,-1,39
 53 244 53 244 53 256 c 0,0,1
EndSplineSet
Validated: 19457
EndChar

StartChar: arrowparrrightleft
Encoding: 8644 8644 88
Width: 1051
Flags: W
HStem: -6 21G<211 259> 143 55<161 990.265> 484 55<61.251 890>
LayerCount: 2
Fore
SplineSet
53 512 m 128,-1,1
 53 523 53 523 61 531 c 128,-1,2
 69 539 69 539 81 539 c 2,3,-1
 890 539 l 1,4,5
 829 599 829 599 795 680 c 1,6,-1
 793 687 l 1,7,-1
 839 687 l 1,8,-1
 841 684 l 1,9,10
 889 567 889 567 995 516 c 1,11,-1
 1004 512 l 1,12,-1
 995 508 l 1,13,14
 889 457 889 457 841 339 c 1,15,-1
 839 336 l 1,16,-1
 793 336 l 1,17,-1
 795 343 l 1,18,19
 829 426 829 426 890 484 c 1,20,-1
 81 484 l 2,21,22
 69 484 69 484 61 492.5 c 128,-1,0
 53 501 53 501 53 512 c 128,-1,1
56 166 m 1,23,-1
 47 170 l 1,24,-1
 56 174 l 1,25,26
 163 225 163 225 211 343 c 1,27,-1
 213 346 l 1,28,-1
 259 346 l 1,29,-1
 257 339 l 1,30,31
 224 258 224 258 161 198 c 1,32,-1
 972 198 l 2,33,34
 983 198 983 198 990.5 189.5 c 128,-1,35
 998 181 998 181 998 170 c 128,-1,36
 998 159 998 159 990.5 151 c 128,-1,37
 983 143 983 143 972 143 c 2,38,-1
 161 143 l 1,39,40
 224 81 224 81 257 1 c 1,41,-1
 259 -6 l 1,42,-1
 213 -6 l 1,43,-1
 211 -3 l 1,44,45
 163 115 163 115 56 166 c 1,23,-1
EndSplineSet
Validated: 19457
EndChar

StartChar: equalsdots
Encoding: 8785 8785 89
Width: 818
Flags: W
HStem: -124 135<361.627 455.889> 125 54<53.3906 763.625> 333 54<53.4944 763.525> 500 135<361.627 455.889>
VStem: 341 135<-103.373 -9.11145 520.111 614.373>
LayerCount: 2
Fore
SplineSet
409 635 m 128,-1,1
 437 635 437 635 456.5 615 c 128,-1,2
 476 595 476 595 476 567 c 128,-1,3
 476 539 476 539 456.5 519.5 c 128,-1,4
 437 500 437 500 409 500 c 128,-1,5
 381 500 381 500 361 519.5 c 128,-1,6
 341 539 341 539 341 567 c 128,-1,7
 341 595 341 595 361 615 c 128,-1,0
 381 635 381 635 409 635 c 128,-1,1
53 359 m 128,-1,9
 53 381 53 381 78 387 c 1,10,-1
 740 387 l 1,11,12
 764 380 764 380 764 359 c 0,13,14
 764 349 764 349 756.5 342 c 128,-1,15
 749 335 749 335 740 333 c 1,16,-1
 739 333 l 1,17,-1
 79 333 l 1,18,-1
 78 333 l 1,19,8
 53 337 53 337 53 359 c 128,-1,9
53 152 m 0,20,21
 53 173 53 173 78 179 c 1,22,-1
 740 179 l 1,23,24
 764 172 764 172 764 152 c 0,25,26
 764 129 764 129 740 125 c 1,27,-1
 739 125 l 1,28,-1
 79 125 l 1,29,-1
 78 125 l 1,30,31
 53 129 53 129 53 152 c 0,20,21
409 11 m 128,-1,33
 437 11 437 11 456.5 -8.5 c 128,-1,34
 476 -28 476 -28 476 -56 c 128,-1,35
 476 -84 476 -84 456.5 -104 c 128,-1,36
 437 -124 437 -124 409 -124 c 128,-1,37
 381 -124 381 -124 361 -104 c 128,-1,38
 341 -84 341 -84 341 -56 c 128,-1,39
 341 -28 341 -28 361 -8.5 c 128,-1,32
 381 11 381 11 409 11 c 128,-1,33
EndSplineSet
Validated: 19457
EndChar

StartChar: primereverse
Encoding: 8245 8245 90
Width: 285
Flags: W
VStem: 7 252
LayerCount: 2
Fore
SplineSet
12 491 m 2,0,1
 7 504 7 504 7 517 c 0,2,3
 7 542 7 542 27 559.5 c 128,-1,4
 47 577 47 577 73 577 c 0,5,6
 94 577 94 577 110.5 564 c 128,-1,7
 127 551 127 551 132 530 c 2,8,-1
 259 68 l 1,9,-1
 259 67 l 2,10,11
 259 57 259 57 252 51 c 0,12,13
 252 50 252 50 251 50 c 128,-1,14
 250 50 250 50 249 49 c 1,15,-1
 249 48 l 1,16,-1
 218 38 l 1,17,-1
 217 38 l 1,18,-1
 215 38 l 1,19,-1
 214 38 l 2,20,21
 206 38 206 38 201 44 c 2,22,-1
 200 45 l 1,23,-1
 200 46 l 1,24,-1
 12 491 l 2,0,1
201 44 m 1,25,-1
 201 44 l 1,25,-1
EndSplineSet
Validated: 19457
EndChar

StartChar: triangleleftequal
Encoding: 8884 8884 91
Width: 818
Flags: W
HStem: -163 54<84.375 733.725> 653 20G<704.5 713>
VStem: 680 54<116 602>
LayerCount: 2
Fore
SplineSet
174 359 m 1,0,-1
 680 116 l 1,1,-1
 680 602 l 1,2,-1
 174 359 l 1,0,-1
84 359 m 128,-1,4
 84 378 84 378 97 383 c 1,5,-1
 697 671 l 2,6,7
 701 673 701 673 708 673 c 0,8,9
 718 673 718 673 725 666 c 128,-1,10
 732 659 732 659 734 649 c 1,11,-1
 734 648 l 1,12,-1
 734 70 l 1,13,-1
 734 69 l 1,14,15
 732 59 732 59 725 52 c 128,-1,16
 718 45 718 45 708 45 c 0,17,18
 700 45 700 45 698 46 c 0,19,20
 698 47 698 47 697 47 c 2,21,-1
 100 334 l 1,22,3
 84 340 84 340 84 359 c 128,-1,4
84 -136 m 0,23,24
 84 -125 84 -125 91.5 -118 c 128,-1,25
 99 -111 99 -111 108 -109 c 1,26,-1
 109 -109 l 1,27,-1
 710 -109 l 1,28,-1
 711 -109 l 1,29,30
 734 -113 734 -113 734 -136 c 0,31,32
 734 -158 734 -158 711 -163 c 1,33,-1
 710 -163 l 1,34,-1
 109 -163 l 1,35,-1
 108 -163 l 1,36,37
 84 -159 84 -159 84 -136 c 0,23,24
EndSplineSet
Validated: 19457
EndChar

StartChar: greaterlessequal
Encoding: 8923 8923 92
Width: 796
Flags: W
HStem: 92 52<666.879 712.561> 227 54<83.6104 712.39>
LayerCount: 2
Fore
SplineSet
100 418 m 2,0,-1
 611 548 l 1,1,-1
 100 678 l 1,2,3
 83 684 83 684 83 703 c 0,4,5
 83 714 83 714 92 722 c 128,-1,6
 101 730 101 730 111 730 c 0,7,8
 117 730 117 730 121 729 c 2,9,-1
 695 574 l 2,10,11
 700 573 700 573 706.5 565.5 c 128,-1,12
 713 558 713 558 713 548 c 0,13,14
 713 530 713 530 695 523 c 1,15,-1
 119 367 l 2,16,17
 117 366 117 366 115 366 c 2,18,-1
 114 366 l 1,19,-1
 111 366 l 2,20,21
 101 366 101 366 92 374 c 128,-1,22
 83 382 83 382 83 393 c 0,23,24
 83 413 83 413 100 418 c 2,0,-1
83 255 m 0,25,26
 83 277 83 277 108 281 c 1,27,-1
 109 281 l 1,28,-1
 687 281 l 1,29,-1
 688 281 l 1,30,31
 713 277 713 277 713 255 c 0,32,33
 713 244 713 244 705.5 236.5 c 128,-1,34
 698 229 698 229 688 227 c 1,35,-1
 687 227 l 1,36,-1
 109 227 l 1,37,-1
 108 227 l 1,38,39
 98 229 98 229 90.5 236.5 c 128,-1,40
 83 244 83 244 83 255 c 0,25,26
83 -38 m 0,41,42
 83 -19 83 -19 100 -13 c 1,43,-1
 677 143 l 2,44,45
 679 144 679 144 681 144 c 2,46,-1
 682 144 l 1,47,-1
 685 144 l 2,48,49
 695 144 695 144 704 136 c 128,-1,50
 713 128 713 128 713 117 c 0,51,52
 713 97 713 97 695 92 c 2,53,-1
 185 -38 l 1,54,-1
 695 -167 l 1,55,56
 713 -176 713 -176 713 -192 c 0,57,58
 713 -203 713 -203 704.5 -211.5 c 128,-1,59
 696 -220 696 -220 685 -220 c 2,60,-1
 681 -220 l 2,61,62
 678 -220 678 -220 677 -219 c 0,63,64
 676 -219 676 -219 676 -218.5 c 128,-1,65
 676 -218 676 -218 675 -218 c 2,66,-1
 100 -64 l 2,67,68
 83 -59 83 -59 83 -38 c 0,41,42
EndSplineSet
Validated: 19457
EndChar

StartChar: frown
Encoding: 8994 8994 93
Width: 818
Flags: W
HStem: 339 54<295.484 522.348>
VStem: 53 51<119.578 171.209> 713 51<126.735 171.209>
LayerCount: 2
Fore
SplineSet
58 160 m 0,0,1
 110 263 110 263 204.5 328 c 128,-1,2
 299 393 299 393 409 393 c 128,-1,3
 519 393 519 393 613 328 c 128,-1,4
 707 263 707 263 759 160 c 0,5,6
 764 150 764 150 764 145 c 0,7,8
 764 134 764 134 756 126.5 c 128,-1,9
 748 119 748 119 737 119 c 0,10,11
 719 119 719 119 713 133 c 0,12,13
 668 224 668 224 586.5 281.5 c 128,-1,14
 505 339 505 339 409 339 c 128,-1,15
 313 339 313 339 231 281.5 c 128,-1,16
 149 224 149 224 104 133 c 0,17,18
 97 119 97 119 81 119 c 0,19,20
 70 119 70 119 61.5 126.5 c 128,-1,21
 53 134 53 134 53 145 c 0,22,23
 53 150 53 150 58 160 c 0,0,1
EndSplineSet
Validated: 19457
EndChar

StartChar: lless
Encoding: 8810 8810 94
Width: 1027
VWidth: 1000
Flags: W
LayerCount: 2
Fore
SplineSet
446 250 m 1,0,-1
 954 -32 l 1,1,2
 975 -42 975 -42 975 -58 c 0,3,4
 975 -68 975 -68 968 -76 c 128,-1,5
 961 -84 961 -84 949 -84 c 0,6,7
 941 -84 941 -84 927 -77 c 2,8,-1
 385 224 l 2,9,10
 365 235 365 235 365 250 c 0,11,12
 365 257 365 257 368 262 c 128,-1,13
 371 267 371 267 374.5 270 c 128,-1,14
 378 273 378 273 388 278 c 2,15,-1
 929 578 l 2,16,17
 942 585 942 585 949 585 c 0,18,19
 959 585 959 585 967 577.5 c 128,-1,20
 975 570 975 570 975 559 c 0,21,22
 975 549 975 549 970.5 544 c 128,-1,23
 966 539 966 539 952 532 c 2,24,-1
 446 250 l 1,0,-1
133 250 m 1,25,-1
 641 -32 l 1,26,27
 662 -42 662 -42 662 -58 c 0,28,29
 662 -68 662 -68 655 -76 c 128,-1,30
 648 -84 648 -84 636 -84 c 0,31,32
 628 -84 628 -84 614 -77 c 2,33,-1
 72 224 l 2,34,35
 52 235 52 235 52 250 c 0,36,37
 52 257 52 257 55 262 c 128,-1,38
 58 267 58 267 61.5 270 c 128,-1,39
 65 273 65 273 75 278 c 2,40,-1
 616 578 l 2,41,42
 629 585 629 585 636 585 c 0,43,44
 646 585 646 585 654 577.5 c 128,-1,45
 662 570 662 570 662 559 c 0,46,47
 662 549 662 549 657.5 544 c 128,-1,48
 653 539 653 539 639 532 c 2,49,-1
 133 250 l 1,25,-1
EndSplineSet
Validated: 3073
EndChar

StartChar: intercal
Encoding: 8890 8890 95
Width: 584
Flags: W
HStem: 348 98<60.6914 243 341 522.309>
VStem: 243 98<-214.705 348>
LayerCount: 2
Fore
SplineSet
243 348 m 1,0,-1
 100 348 l 1,1,-1
 99 348 l 1,2,3
 58 353 58 353 53 394 c 1,4,-1
 53 395 l 1,5,-1
 53 400 l 1,6,-1
 53 401 l 1,7,8
 58 440 58 440 99 446 c 1,9,-1
 100 446 l 1,10,-1
 483 446 l 1,11,-1
 484 446 l 1,12,13
 525 440 525 440 530 401 c 1,14,-1
 530 400 l 1,15,-1
 530 395 l 1,16,-1
 530 394 l 1,17,18
 525 353 525 353 484 348 c 1,19,-1
 483 348 l 1,20,-1
 341 348 l 1,21,-1
 341 -177 l 1,22,-1
 341 -178 l 1,23,24
 338 -195 338 -195 326.5 -208 c 128,-1,25
 315 -221 315 -221 295 -223 c 1,26,-1
 290 -223 l 1,27,28
 248 -220 248 -220 243 -178 c 1,29,-1
 243 -177 l 1,30,-1
 243 348 l 1,0,-1
EndSplineSet
Validated: 19457
EndChar

StartChar: squaresolid
Encoding: 9632 9632 96
Width: 818
Flags: W
HStem: -5 733<53.3906 763.588>
VStem: 53 711<-4.58545 727.199>
LayerCount: 2
Fore
SplineSet
53 703 m 2,0,1
 53 722 53 722 78 728 c 1,2,-1
 79 728 l 1,3,-1
 739 728 l 2,4,5
 758 728 758 728 764 704 c 1,6,-1
 764 20 l 2,7,8
 764 10 764 10 756.5 3.5 c 128,-1,9
 749 -3 749 -3 740 -5 c 1,10,-1
 79 -5 l 2,11,12
 69 -5 69 -5 62 2 c 128,-1,13
 55 9 55 9 53 19 c 1,14,-1
 53 20 l 1,15,-1
 53 703 l 2,0,1
EndSplineSet
Validated: 19457
EndChar

StartChar: Leftrightarrow
Encoding: 8660 8660 97
Width: 1027
VWidth: 1000
Flags: W
HStem: 122 53<280 747> 326 53<280 747>
LayerCount: 2
Fore
SplineSet
230 175 m 1,0,-1
 797 175 l 1,1,2
 841 217 841 217 900 251 c 1,3,4
 843 282 843 282 797 326 c 1,5,-1
 230 326 l 1,6,7
 186 284 186 284 127 250 c 1,8,9
 184 219 184 219 230 175 c 1,0,-1
668 517 m 1,10,-1
 668 518 l 2,11,12
 668 523 668 523 669 526 c 0,13,14
 671 533 671 533 676 533 c 1,15,16
 684 536 684 536 691 536 c 2,17,18
 694 536 l 2,19,20
 708 536 708 536 713 532 c 128,-1,21
 718 528 718 528 725 512 c 0,22,23
 800 343 800 343 981 269 c 0,24,25
 989 265 989 265 993 261 c 0,26,27
 994 260 l 0,28,29
 994 258 994 258 995 258 c 0,30,31
 997 254 997 254 997 250 c 0,32,33
 997 238 997 238 985 233 c 0,34,35
 885 192 885 192 823.5 130 c 128,-1,36
 762 68 762 68 720 -24 c 0,37,38
 714 -35 714 -35 697 -35 c 2,39,-1
 694 -35 l 2,40,41
 682 -35 682 -35 676 -32 c 1,42,43
 671 -32 671 -32 669 -25 c 0,44,45
 668 -23 668 -23 668 -17 c 2,46,-1
 668 -15 l 1,47,48
 670 -2 670 -2 692.5 40 c 128,-1,49
 715 82 715 82 747 122 c 1,50,-1
 280 122 l 1,51,52
 313 81 313 81 335.5 38.5 c 128,-1,53
 358 -4 358 -4 359 -16 c 1,54,-1
 359 -17 l 2,55,56
 359 -22 359 -22 358 -25 c 0,57,58
 356 -32 356 -32 351 -32 c 1,59,60
 344 -35 344 -35 336 -35 c 2,61,-1
 333 -35 l 2,62,63
 319 -35 319 -35 314 -31 c 128,-1,64
 309 -27 309 -27 302 -11 c 0,65,66
 227 158 227 158 46 232 c 0,67,68
 38 236 38 236 34 240 c 2,69,-1
 33 241 l 2,70,71
 32 242 32 242 32 243 c 0,72,73
 30 247 30 247 30 251 c 0,74,75
 30 264 30 264 42 268 c 0,76,77
 142 309 142 309 203.5 371 c 128,-1,78
 265 433 265 433 307 525 c 0,79,80
 312 536 312 536 330 536 c 2,81,-1
 333 536 l 2,82,83
 345 536 345 536 351 533 c 1,84,85
 356 533 356 533 358 526 c 0,86,87
 359 524 359 524 359 518 c 2,88,-1
 359 516 l 1,89,90
 357 503 357 503 334.5 461 c 128,-1,91
 312 419 312 419 280 379 c 1,92,-1
 747 379 l 1,93,94
 714 420 714 420 691.5 462.5 c 128,-1,95
 669 505 669 505 668 517 c 1,10,-1
EndSplineSet
Validated: 19457
EndChar

StartChar: northeastarrow
Encoding: 8599 8599 98
Width: 1027
VWidth: 1000
Flags: W
HStem: 635 40<740.595 874.012> 646.5 53.5<703.458 803.234>
VStem: 911 40<464.121 598.32>
LayerCount: 2
Fore
SplineSet
104 -210 m 2,0,1
 90 -224 90 -224 79 -224 c 128,-1,2
 68 -224 68 -224 60 -216.5 c 128,-1,3
 52 -209 52 -209 52 -197 c 0,4,5
 52 -186 52 -186 66 -172 c 2,6,-1
 875 637 l 1,7,8
 857 635 857 635 842 635 c 2,9,-1
 841 635 l 2,10,11
 800 635 800 635 755 646.5 c 128,-1,12
 710 658 710 658 701 672 c 0,13,14
 699 676 699 676 699 679 c 0,15,16
 699 686 699 686 705.5 693.5 c 128,-1,17
 712 701 712 701 721 700 c 2,18,-1
 722 700 l 1,19,-1
 724 700 l 2,20,21
 725 700 725 700 743 694 c 0,22,23
 789 675 789 675 842 675 c 0,24,25
 894 675 894 675 941 694 c 0,26,27
 947 697 947 697 954 699 c 1,28,-1
 957 699 l 2,29,30
 964 699 964 699 969.5 693.5 c 128,-1,31
 975 688 975 688 975 681 c 2,32,-1
 975 678 l 1,33,34
 974 675 974 675 970 665 c 0,35,36
 951 615 951 615 951 566 c 0,37,38
 951 512 951 512 972 461 c 0,39,40
 973 458 973 458 974 456 c 128,-1,41
 975 454 975 454 975.5 452.5 c 128,-1,42
 976 451 976 451 976.5 450 c 128,-1,43
 977 449 977 449 977 448 c 2,44,-1
 977 447 l 1,45,-1
 977 445 l 2,46,47
 977 438 977 438 970 430.5 c 128,-1,48
 963 423 963 423 955 423 c 0,49,50
 950 423 950 423 948 425 c 0,51,52
 934 434 934 434 922.5 480 c 128,-1,53
 911 526 911 526 911 565 c 0,54,55
 911 579 911 579 913 599 c 1,56,-1
 104 -210 l 2,0,1
EndSplineSet
Validated: 19457
EndChar

StartChar: precedesim
Encoding: 8830 8830 99
Width: 818
Flags: W
HStem: -252 72<503.403 657.417> -74 72<159.583 313.597> 430 54<83.6104 393.02>
VStem: 53 41<-248.809 -146.016> 680 54<152.282 243.761 670.983 770.506> 723 41<-109.306 -5.19141>
LayerCount: 2
Fore
SplineSet
83 458 m 0,0,1
 83 480 83 480 108 484 c 1,2,-1
 109 484 l 2,3,4
 159 484 159 484 201 485.5 c 128,-1,5
 243 487 243 487 302 493 c 128,-1,6
 361 499 361 499 408 509.5 c 128,-1,7
 455 520 455 520 505.5 540 c 128,-1,8
 556 560 556 560 590.5 587 c 128,-1,9
 625 614 625 614 650 655 c 128,-1,10
 675 696 675 696 680 747 c 1,11,12
 682 757 682 757 689.5 764 c 128,-1,13
 697 771 697 771 708 771 c 128,-1,14
 719 771 719 771 726.5 762 c 128,-1,15
 734 753 734 753 734 742 c 1,16,17
 712 522 712 522 415 458 c 1,18,19
 712 392 712 392 734 173 c 1,20,21
 734 161 734 161 727 152 c 128,-1,22
 720 143 720 143 708 143 c 0,23,24
 697 143 697 143 689.5 150.5 c 128,-1,25
 682 158 682 158 680 168 c 1,26,27
 675 219 675 219 650 259.5 c 128,-1,28
 625 300 625 300 590.5 327 c 128,-1,29
 556 354 556 354 505.5 374 c 128,-1,30
 455 394 455 394 408 404.5 c 128,-1,31
 361 415 361 415 302 421 c 128,-1,32
 243 427 243 427 201 428.5 c 128,-1,33
 159 430 159 430 109 430 c 2,34,-1
 108 430 l 1,35,36
 98 432 98 432 90.5 439.5 c 128,-1,37
 83 447 83 447 83 458 c 0,0,1
53 -221 m 1,38,-1
 53 -220 l 1,39,-1
 53 -212 l 2,40,41
 53 -130 53 -130 103 -66 c 128,-1,42
 153 -2 153 -2 233 -2 c 0,43,44
 273 -2 273 -2 311.5 -20.5 c 128,-1,45
 350 -39 350 -39 381 -65 c 128,-1,46
 412 -91 412 -91 443 -117 c 128,-1,47
 474 -143 474 -143 510.5 -161.5 c 128,-1,48
 547 -180 547 -180 584 -180 c 0,49,50
 642 -180 642 -180 682.5 -136.5 c 128,-1,51
 723 -93 723 -93 723 -34 c 2,52,-1
 723 -33 l 1,53,54
 726 -11 726 -11 734 -5 c 0,55,56
 737 -2 737 -2 743 -2 c 0,57,58
 748 -2 748 -2 751 -4 c 0,59,60
 762 -11 762 -11 764 -33 c 1,61,-1
 764 -34 l 1,62,-1
 764 -42 l 2,63,64
 764 -123 764 -123 714 -187.5 c 128,-1,65
 664 -252 664 -252 584 -252 c 0,66,67
 544 -252 544 -252 505.5 -233.5 c 128,-1,68
 467 -215 467 -215 436 -189 c 128,-1,69
 405 -163 405 -163 374 -137 c 128,-1,70
 343 -111 343 -111 306.5 -92.5 c 128,-1,71
 270 -74 270 -74 233 -74 c 0,72,73
 175 -74 175 -74 134.5 -117.5 c 128,-1,74
 94 -161 94 -161 94 -220 c 2,75,-1
 94 -221 l 1,76,77
 90 -243 90 -243 83 -249 c 0,78,79
 80 -252 80 -252 74 -252 c 0,80,81
 69 -252 69 -252 66 -250 c 0,82,83
 56 -244 56 -244 53 -221 c 1,38,-1
EndSplineSet
Validated: 19457
EndChar

StartChar: equaldotrightleft
Encoding: 8787 8787 100
Width: 818
Flags: W
HStem: -119 125<37.5645 123.92> 125 54<53.3906 763.625> 333 54<53.4944 763.525> 505 125<693.564 780.92>
VStem: 19 124<-99.92 -12.5645> 675 125<523.564 610.92>
LayerCount: 2
Fore
SplineSet
737 630 m 0,0,1
 762 630 762 630 781 611 c 128,-1,2
 800 592 800 592 800 567 c 0,3,4
 800 541 800 541 781.5 523 c 128,-1,5
 763 505 763 505 737 505 c 128,-1,6
 711 505 711 505 693 523 c 128,-1,7
 675 541 675 541 675 567 c 128,-1,8
 675 593 675 593 693 611.5 c 128,-1,9
 711 630 711 630 737 630 c 0,0,1
53 359 m 128,-1,11
 53 381 53 381 78 387 c 1,12,-1
 740 387 l 1,13,14
 764 380 764 380 764 359 c 0,15,16
 764 349 764 349 756.5 342 c 128,-1,17
 749 335 749 335 740 333 c 1,18,-1
 739 333 l 1,19,-1
 79 333 l 1,20,-1
 78 333 l 1,21,10
 53 337 53 337 53 359 c 128,-1,11
53 152 m 0,22,23
 53 173 53 173 78 179 c 1,24,-1
 740 179 l 1,25,26
 764 172 764 172 764 152 c 0,27,28
 764 129 764 129 740 125 c 1,29,-1
 739 125 l 1,30,-1
 79 125 l 1,31,-1
 78 125 l 1,32,33
 53 129 53 129 53 152 c 0,22,23
81 6 m 0,34,35
 106 6 106 6 124.5 -12 c 128,-1,36
 143 -30 143 -30 143 -56 c 128,-1,37
 143 -82 143 -82 125 -100.5 c 128,-1,38
 107 -119 107 -119 81 -119 c 128,-1,39
 55 -119 55 -119 37 -100.5 c 128,-1,40
 19 -82 19 -82 19 -56 c 128,-1,41
 19 -30 19 -30 37 -12 c 128,-1,42
 55 6 55 6 81 6 c 0,34,35
EndSplineSet
Validated: 19457
EndChar

StartChar: between
Encoding: 8812 8812 101
Width: 525
Flags: W
VStem: 72 63<106.148 405.852> 390 64<104.55 407.45>
LayerCount: 2
Fore
SplineSet
263 -95 m 1,0,1
 390 55 390 55 390 256 c 128,-1,2
 390 457 390 457 263 607 c 1,3,4
 135 457 135 457 135 256 c 128,-1,5
 135 55 135 55 263 -95 c 1,0,1
109 -221 m 0,6,7
 175 -184 175 -184 231 -131 c 1,8,9
 156 -52 156 -52 114 48.5 c 128,-1,10
 72 149 72 149 72 256 c 128,-1,11
 72 363 72 363 114 463.5 c 128,-1,12
 156 564 156 564 231 643 c 1,13,14
 176 695 176 695 109 733 c 0,15,16
 98 739 98 739 98 752 c 0,17,18
 98 760 98 760 104.5 766.5 c 128,-1,19
 111 773 111 773 121 773 c 2,20,-1
 122 773 l 1,21,22
 142 770 142 770 187.5 736.5 c 128,-1,23
 233 703 233 703 263 676 c 1,24,25
 294 703 294 703 342 738 c 128,-1,26
 390 773 390 773 406 773 c 0,27,28
 415 773 415 773 421 767 c 128,-1,29
 427 761 427 761 427 752 c 0,30,31
 427 739 427 739 416 733 c 0,32,33
 352 697 352 697 296 643 c 1,34,35
 371 564 371 564 412.5 463.5 c 128,-1,36
 454 363 454 363 454 256 c 128,-1,37
 454 149 454 149 412.5 48.5 c 128,-1,38
 371 -52 371 -52 296 -131 c 1,39,40
 347 -182 347 -182 416 -221 c 0,41,42
 427 -227 427 -227 427 -240 c 0,43,44
 427 -248 427 -248 420.5 -254.5 c 128,-1,45
 414 -261 414 -261 404 -261 c 2,46,-1
 403 -261 l 1,47,48
 383 -258 383 -258 336.5 -223.5 c 128,-1,49
 290 -189 290 -189 263 -164 c 1,50,51
 149 -261 149 -261 120 -261 c 0,52,53
 111 -261 111 -261 104.5 -255 c 128,-1,54
 98 -249 98 -249 98 -240 c 0,55,56
 98 -227 98 -227 109 -221 c 0,6,7
EndSplineSet
Validated: 19457
EndChar

StartChar: supersetdbl
Encoding: 8913 8913 102
Width: 818
Flags: W
HStem: -58 54<83.6104 519.514> 106 54<83.4944 480.795> 351 55<83.6104 406 407 412 413 480.795> 515 54<83.6104 519.434>
VStem: 516 54<195.235 315.381> 680 54<150.086 359.706>
LayerCount: 2
Fore
SplineSet
83 133 m 0,0,1
 83 143 83 143 90.5 150.5 c 128,-1,2
 98 158 98 158 108 160 c 1,3,-1
 109 160 l 1,4,-1
 411 160 l 1,5,6
 415 159 415 159 416 159 c 0,7,-1
 421 159 l 2,8,9
 459 159 459 159 487.5 188 c 128,-1,10
 516 217 516 217 516 256 c 0,11,12
 516 294 516 294 487.5 323 c 128,-1,13
 459 352 459 352 421 352 c 2,14,-1
 416 352 l 1,15,-1
 415 352 l 1,16,-1
 413 352 l 1,17,-1
 412 351 l 1,18,-1
 109 351 l 1,19,-1
 108 351 l 1,20,21
 98 353 98 353 90.5 360.5 c 128,-1,22
 83 368 83 368 83 379 c 0,23,24
 83 401 83 401 108 405 c 1,25,-1
 109 405 l 1,26,-1
 406 405 l 1,27,-1
 407 406 l 2,28,29
 408 406 408 406 409 406 c 2,30,-1
 410 406 l 1,31,-1
 414 406 l 1,32,-1
 420 406 l 2,33,34
 482 406 482 406 526 362 c 128,-1,35
 570 318 570 318 570 256 c 128,-1,36
 570 194 570 194 526 149.5 c 128,-1,37
 482 105 482 105 420 105 c 2,38,-1
 414 105 l 2,39,40
 412 106 412 106 410 106 c 2,41,-1
 407 106 l 1,42,-1
 109 106 l 1,43,-1
 108 106 l 1,44,45
 83 110 83 110 83 133 c 0,0,1
83 -32 m 0,46,47
 83 -21 83 -21 90.5 -13.5 c 128,-1,48
 98 -6 98 -6 108 -4 c 1,49,-1
 109 -4 l 1,50,-1
 407 -4 l 2,51,52
 519 -4 519 -4 599.5 70.5 c 128,-1,53
 680 145 680 145 680 256 c 0,54,55
 680 366 680 366 599 440.5 c 128,-1,56
 518 515 518 515 407 515 c 2,57,-1
 109 515 l 1,58,-1
 108 515 l 1,59,60
 98 517 98 517 90.5 524.5 c 128,-1,61
 83 532 83 532 83 543 c 0,62,63
 83 565 83 565 108 569 c 1,64,-1
 109 569 l 1,65,-1
 411 569 l 2,66,67
 543 569 543 569 638.5 478 c 128,-1,68
 734 387 734 387 734 256 c 128,-1,69
 734 125 734 125 638.5 33.5 c 128,-1,70
 543 -58 543 -58 411 -58 c 2,71,-1
 109 -58 l 1,72,-1
 108 -58 l 1,73,74
 83 -54 83 -54 83 -32 c 0,46,47
EndSplineSet
Validated: 19457
EndChar

StartChar: rightanglenw
Encoding: 9484 9484 103
Width: 525
Flags: W
HStem: 662 54<107 471.506>
VStem: 53 54<297.494 662>
LayerCount: 2
Fore
SplineSet
53 691 m 2,0,1
 53 710 53 710 78 716 c 1,2,-1
 79 716 l 1,3,-1
 446 716 l 1,4,-1
 447 716 l 1,5,6
 457 714 457 714 464.5 706.5 c 128,-1,7
 472 699 472 699 472 689 c 0,8,9
 472 666 472 666 447 662 c 1,10,-1
 446 662 l 1,11,-1
 107 662 l 1,12,-1
 107 323 l 1,13,-1
 107 322 l 1,14,15
 103 297 103 297 81 297 c 128,-1,16
 59 297 59 297 53 322 c 1,17,-1
 53 691 l 2,0,1
EndSplineSet
Validated: 19457
EndChar

StartChar: circleasterisk
Encoding: 8859 8859 104
Width: 818
Flags: W
HStem: -100 43<296.006 523.638> 124 67<212.246 227 590 604.754> 320 67<212.246 227 590 604.754> 568 43<294.262 523.638>
VStem: 52 43<143.102 368.519> 373 71<39.798 143.824 367.176 471.202> 722 43<142.798 368.519>
CounterMasks: 1 0e
LayerCount: 2
Fore
SplineSet
209 162 m 0,0,1
 209 181 209 181 227 191 c 1,2,-1
 365 256 l 1,3,-1
 227 320 l 1,4,5
 209 330 209 330 209 349 c 0,6,7
 209 365 209 365 220.5 376 c 128,-1,8
 232 387 232 387 245 387 c 0,9,10
 255 387 255 387 263 381 c 2,11,-1
 387 293 l 1,12,-1
 373 445 l 1,13,-1
 373 447 l 2,14,15
 373 462 373 462 384 471.5 c 128,-1,16
 395 481 395 481 409 481 c 128,-1,17
 423 481 423 481 433.5 471.5 c 128,-1,18
 444 462 444 462 444 447 c 2,19,-1
 444 445 l 1,20,-1
 430 293 l 1,21,-1
 554 381 l 2,22,23
 562 387 562 387 572 387 c 0,24,25
 585 387 585 387 596.5 376 c 128,-1,26
 608 365 608 365 608 349 c 0,27,28
 608 330 608 330 590 320 c 1,29,-1
 452 256 l 1,30,-1
 590 191 l 1,31,32
 608 181 608 181 608 162 c 0,33,34
 608 146 608 146 596.5 135 c 128,-1,35
 585 124 585 124 572 124 c 0,36,37
 562 124 562 124 554 130 c 2,38,-1
 430 218 l 1,39,-1
 444 66 l 1,40,-1
 444 63 l 2,41,42
 444 49 444 49 433.5 39.5 c 128,-1,43
 423 30 423 30 409 30 c 128,-1,44
 395 30 395 30 384 39.5 c 128,-1,45
 373 49 373 49 373 63 c 2,46,-1
 373 66 l 1,47,-1
 387 218 l 1,48,-1
 263 130 l 2,49,50
 255 124 255 124 245 124 c 0,51,52
 232 124 232 124 220.5 135 c 128,-1,53
 209 146 209 146 209 162 c 0,0,1
95 256 m 128,-1,55
 95 127 95 127 187.5 35 c 128,-1,56
 280 -57 280 -57 409 -57 c 128,-1,57
 538 -57 538 -57 630 34.5 c 128,-1,58
 722 126 722 126 722 256 c 0,59,60
 722 385 722 385 630 476.5 c 128,-1,61
 538 568 538 568 409 568 c 128,-1,62
 280 568 280 568 187.5 476.5 c 128,-1,54
 95 385 95 385 95 256 c 128,-1,55
409 611 m 128,-1,64
 557 611 557 611 661 507 c 128,-1,65
 765 403 765 403 765 256 c 0,66,67
 765 108 765 108 661 4 c 128,-1,68
 557 -100 557 -100 409 -100 c 128,-1,69
 261 -100 261 -100 156.5 4 c 128,-1,70
 52 108 52 108 52 256 c 0,71,72
 52 403 52 403 156.5 507 c 128,-1,63
 261 611 261 611 409 611 c 128,-1,64
EndSplineSet
Validated: 19457
EndChar

StartChar: dblarrowup
Encoding: 8648 8648 105
Width: 876
Flags: W
HStem: -204 21G<257.5 267.5 608 618> 506 43<750.681 807> 696 20G<256.5 264.5 611 619.5>
VStem: 237 53<-196.265 608> 587 54<-196.78 608>
LayerCount: 2
Fore
SplineSet
237 608 m 1,0,1
 178 540 178 540 94 506 c 1,2,-1
 93 506 l 1,3,-1
 88 506 l 2,4,5
 80 506 80 506 73 513 c 0,6,7
 70 517 70 517 70 522 c 2,8,-1
 70 534 l 2,9,10
 70 537 70 537 72 541 c 0,11,12
 75 548 75 548 81 549 c 1,13,14
 198 592 198 592 246 704 c 1,15,16
 250 716 250 716 263 716 c 0,17,18
 266 716 266 716 269 715 c 0,19,20
 275 712 275 712 279 705 c 1,21,-1
 279 704 l 1,22,-1
 280 704 l 1,23,24
 327 595 327 595 438 551 c 1,25,26
 549 595 549 595 597 704 c 0,27,28
 600 712 600 712 607 715 c 0,29,30
 609 716 609 716 613 716 c 0,31,32
 626 716 626 716 631 704 c 0,33,34
 679 593 679 593 795 549 c 1,35,36
 801 549 801 549 805 541 c 0,37,38
 807 537 807 537 807 534 c 2,39,-1
 807 522 l 2,40,41
 807 518 807 518 805 515 c 0,42,43
 800 506 800 506 790 506 c 2,44,-1
 784 506 l 1,45,-1
 783 506 l 1,46,47
 699 540 699 540 641 608 c 1,48,-1
 641 -179 l 2,49,50
 641 -190 641 -190 632 -197 c 128,-1,51
 623 -204 623 -204 613 -204 c 128,-1,52
 603 -204 603 -204 595 -197 c 128,-1,53
 587 -190 587 -190 587 -179 c 2,54,-1
 587 608 l 1,55,56
 530 540 530 540 444 506 c 1,57,-1
 443 506 l 1,58,-1
 433 506 l 1,59,-1
 432 506 l 1,60,61
 347 541 347 541 290 608 c 1,62,-1
 290 -179 l 2,63,64
 290 -189 290 -189 281 -196.5 c 128,-1,65
 272 -204 272 -204 263 -204 c 0,66,67
 252 -204 252 -204 244.5 -196.5 c 128,-1,68
 237 -189 237 -189 237 -179 c 2,69,-1
 237 608 l 1,0,1
EndSplineSet
Validated: 19457
EndChar

StartChar: squiggleleftright
Encoding: 8621 8621 106
Width: 1461
Flags: W
HStem: 228 55<161 289 1171 1299>
LayerCount: 2
Fore
SplineSet
56 252 m 1,0,-1
 47 256 l 1,1,-1
 56 260 l 1,2,3
 163 311 163 311 211 428 c 1,4,-1
 213 431 l 1,5,-1
 259 431 l 1,6,-1
 257 424 l 1,7,8
 224 344 224 344 161 283 c 1,9,-1
 289 283 l 1,10,-1
 367 360 l 2,11,12
 374 367 374 367 386 367 c 0,13,14
 397 367 397 367 405 360 c 2,15,-1
 558 209 l 1,16,-1
 711 360 l 2,17,18
 719 367 719 367 730 367 c 128,-1,19
 741 367 741 367 749 360 c 2,20,-1
 902 209 l 1,21,-1
 1055 360 l 2,22,23
 1063 367 1063 367 1074 367 c 0,24,25
 1087 367 1087 367 1094 360 c 2,26,-1
 1171 283 l 1,27,-1
 1299 283 l 1,28,29
 1236 344 1236 344 1203 424 c 1,30,-1
 1201 431 l 1,31,-1
 1247 431 l 1,32,-1
 1249 428 l 1,33,34
 1297 311 1297 311 1404 260 c 1,35,-1
 1413 256 l 1,36,-1
 1404 252 l 1,37,38
 1297 199 1297 199 1249 83 c 1,39,-1
 1247 80 l 1,40,-1
 1201 80 l 1,41,-1
 1203 87 l 1,42,43
 1236 167 1236 167 1299 228 c 1,44,-1
 1159 228 l 2,45,46
 1149 228 1149 228 1139 240 c 1,47,-1
 1074 302 l 1,48,-1
 922 151 l 2,49,50
 914 143 914 143 902 143 c 0,51,52
 891 143 891 143 883 151 c 2,53,-1
 730 302 l 1,54,-1
 577 151 l 2,55,56
 569 143 569 143 558 143 c 128,-1,57
 547 143 547 143 539 151 c 2,58,-1
 386 302 l 1,59,-1
 321 240 l 1,60,61
 311 228 311 228 302 228 c 2,62,-1
 161 228 l 1,63,64
 224 167 224 167 257 87 c 1,65,-1
 259 80 l 1,66,-1
 213 80 l 1,67,-1
 211 83 l 1,68,69
 163 199 163 199 56 252 c 1,0,-1
EndSplineSet
Validated: 19457
EndChar

StartChar: followsorcurly
Encoding: 8829 8829 107
Width: 818
Flags: W
HStem: -5 21G<105 116> 118 54<520.361 725.234> 282 54<496.302 733.725>
VStem: 83 54<4.28198 94.7666 523.233 613.234> 200 54<-159.718 -67.9609>
LayerCount: 2
Fore
SplineSet
83 25 m 1,0,1
 105 244 105 244 403 309 c 1,2,3
 105 374 105 374 83 594 c 1,4,5
 83 605 83 605 91 613.5 c 128,-1,6
 99 622 99 622 111 622 c 0,7,8
 133 622 133 622 137 599 c 1,9,10
 164 336 164 336 710 336 c 2,11,-1
 711 336 l 1,12,13
 734 331 734 331 734 309 c 0,14,15
 734 286 734 286 711 282 c 1,16,-1
 710 282 l 2,17,18
 165 282 165 282 137 19 c 0,19,20
 136 9 136 9 128.5 2 c 128,-1,21
 121 -5 121 -5 111 -5 c 0,22,23
 99 -5 99 -5 91 4 c 128,-1,24
 83 13 83 13 83 25 c 1,0,1
200 -140 m 2,25,-1
 200 -139 l 1,26,27
 209 -53 209 -53 260.5 11 c 128,-1,28
 312 75 312 75 389 108.5 c 128,-1,29
 466 142 466 142 545 157 c 128,-1,30
 624 172 624 172 706 172 c 0,31,32
 717 172 717 172 725.5 164.5 c 128,-1,33
 734 157 734 157 734 145 c 0,34,35
 734 122 734 122 711 118 c 1,36,-1
 710 118 l 2,37,38
 637 118 637 118 566.5 105.5 c 128,-1,39
 496 93 496 93 426 65 c 128,-1,40
 356 37 356 37 309 -17 c 128,-1,41
 262 -71 262 -71 254 -145 c 0,42,43
 253 -153 253 -153 245.5 -161 c 128,-1,44
 238 -169 238 -169 227 -169 c 0,45,46
 215 -169 215 -169 207.5 -160 c 128,-1,47
 200 -151 200 -151 200 -140 c 2,25,-1
EndSplineSet
Validated: 19457
EndChar

StartChar: arrowtripleright
Encoding: 8667 8667 108
Width: 1051
Flags: W
HStem: 21 54<53.4944 657> 228 55<61.251 850> 436 54<53.6104 657>
CounterMasks: 1 e0
LayerCount: 2
Fore
SplineSet
53 48 m 0,0,1
 53 58 53 58 60.5 65.5 c 128,-1,2
 68 73 68 73 78 75 c 1,3,-1
 79 75 l 1,4,-1
 693 75 l 1,5,6
 760 164 760 164 850 228 c 1,7,-1
 81 228 l 2,8,9
 69 228 69 228 61 236 c 128,-1,10
 53 244 53 244 53 256 c 0,11,12
 53 267 53 267 61 275 c 128,-1,13
 69 283 69 283 81 283 c 2,14,-1
 850 283 l 1,15,16
 760 347 760 347 693 436 c 1,17,-1
 79 436 l 1,18,-1
 78 436 l 1,19,20
 68 438 68 438 60.5 445.5 c 128,-1,21
 53 453 53 453 53 464 c 0,22,23
 53 486 53 486 78 490 c 1,24,-1
 79 490 l 1,25,-1
 657 490 l 1,26,27
 613 562 613 562 589 632 c 1,28,-1
 587 639 l 1,29,-1
 651 639 l 1,30,-1
 652 636 l 1,31,32
 695 516 695 516 778.5 418.5 c 128,-1,33
 862 321 862 321 974 260 c 1,34,-1
 983 256 l 1,35,-1
 974 252 l 1,36,37
 862 191 862 191 778.5 93 c 128,-1,38
 695 -5 695 -5 652 -125 c 1,39,-1
 651 -128 l 1,40,-1
 587 -128 l 1,41,-1
 589 -121 l 1,42,43
 613 -51 613 -51 657 21 c 1,44,-1
 79 21 l 1,45,-1
 78 21 l 1,46,47
 53 25 53 25 53 48 c 0,0,1
EndSplineSet
Validated: 19457
EndChar

StartChar: intersectiondbl
Encoding: 8915 8915 109
Width: 701
Flags: W
HStem: 402 54<293.654 406.346> 565 54<225.925 471.161>
VStem: 53 54<-27.5061 468.906> 217 54<-27.5061 380.626> 429 54<-27.5061 380.626> 593 54<-27.5061 470.322>
LayerCount: 2
Fore
SplineSet
217 338 m 2,0,1
 217 389 217 389 258 422.5 c 128,-1,2
 299 456 299 456 350 456 c 128,-1,3
 401 456 401 456 442 422.5 c 128,-1,4
 483 389 483 389 483 338 c 2,5,-1
 483 -3 l 1,6,-1
 483 -4 l 1,7,8
 481 -14 481 -14 474 -21 c 128,-1,9
 467 -28 467 -28 457 -28 c 0,10,11
 446 -28 446 -28 438.5 -21 c 128,-1,12
 431 -14 431 -14 429 -4 c 1,13,-1
 429 -3 l 1,14,-1
 429 334 l 2,15,16
 429 364 429 364 405 383 c 128,-1,17
 381 402 381 402 350 402 c 128,-1,18
 319 402 319 402 295 383 c 128,-1,19
 271 364 271 364 271 334 c 2,20,-1
 271 -3 l 1,21,-1
 271 -4 l 1,22,23
 269 -14 269 -14 262 -21 c 128,-1,24
 255 -28 255 -28 245 -28 c 0,25,26
 234 -28 234 -28 226.5 -21 c 128,-1,27
 219 -14 219 -14 217 -4 c 1,28,-1
 217 -3 l 1,29,-1
 217 338 l 2,0,1
53 397 m 2,30,31
 53 452 53 452 81 496 c 128,-1,32
 109 540 109 540 154 566 c 128,-1,33
 199 592 199 592 249.5 605.5 c 128,-1,34
 300 619 300 619 350 619 c 0,35,36
 401 619 401 619 451.5 605.5 c 128,-1,37
 502 592 502 592 546.5 566 c 128,-1,38
 591 540 591 540 619 496 c 128,-1,39
 647 452 647 452 647 397 c 2,40,-1
 647 -3 l 1,41,-1
 647 -4 l 1,42,43
 645 -14 645 -14 638 -21 c 128,-1,44
 631 -28 631 -28 621 -28 c 0,45,46
 610 -28 610 -28 602.5 -21 c 128,-1,47
 595 -14 595 -14 593 -4 c 1,48,-1
 593 -3 l 1,49,-1
 593 393 l 2,50,51
 593 476 593 476 517 520.5 c 128,-1,52
 441 565 441 565 350 565 c 0,53,54
 294 565 294 565 240.5 548 c 128,-1,55
 187 531 187 531 147 490.5 c 128,-1,56
 107 450 107 450 107 393 c 2,57,-1
 107 -3 l 1,58,-1
 107 -4 l 1,59,60
 105 -14 105 -14 98 -21 c 128,-1,61
 91 -28 91 -28 81 -28 c 0,62,63
 70 -28 70 -28 62.5 -21 c 128,-1,64
 55 -14 55 -14 53 -4 c 1,65,-1
 53 -3 l 1,66,-1
 53 397 l 2,30,31
EndSplineSet
Validated: 19457
EndChar

StartChar: circleR
Encoding: 174 174 110
Width: 984
Flags: W
HStem: -186 54<357.124 627.307> -19 39<676.357 738.368> -5 42<216 273.01 390.989 447> 250 40<375 524.224> 502 42<216 273.01 380.675 551.932> 693 54<356.57 627.307>
VStem: 25 54<146.124 416.018> 289 86<43.1912 250 290 495.809> 588 102<329.951 461.995> 749 42<26.9453 90.8118> 904 54<145.57 416.018>
LayerCount: 2
Fore
SplineSet
375 290 m 1,0,-1
 457 290 l 2,1,2
 524 290 524 290 556 313 c 128,-1,3
 588 336 588 336 588 396 c 128,-1,4
 588 456 588 456 555.5 479 c 128,-1,5
 523 502 523 502 457 502 c 2,6,-1
 406 502 l 2,7,8
 386 502 386 502 380.5 496 c 128,-1,9
 375 490 375 490 375 469 c 2,10,-1
 375 290 l 1,0,-1
216 -5 m 1,11,-1
 216 37 l 1,12,-1
 221 37 l 2,13,14
 258 37 258 37 273.5 43 c 128,-1,15
 289 49 289 49 289 70 c 2,16,-1
 289 469 l 2,17,18
 289 490 289 490 273.5 496 c 128,-1,19
 258 502 258 502 221 502 c 2,20,-1
 216 502 l 1,21,-1
 216 544 l 1,22,-1
 469 544 l 2,23,24
 514 544 514 544 562.5 530 c 128,-1,25
 611 516 611 516 650.5 480.5 c 128,-1,26
 690 445 690 445 690 396 c 0,27,28
 690 349 690 349 655 316 c 128,-1,29
 620 283 620 283 571 266 c 1,30,31
 633 234 633 234 645 172 c 2,32,-1
 661 92 l 1,33,34
 664 71 664 71 667.5 58 c 128,-1,35
 671 45 671 45 681.5 32.5 c 128,-1,36
 692 20 692 20 708 20 c 0,37,38
 727 20 727 20 738 38 c 128,-1,39
 749 56 749 56 749 78 c 1,40,41
 750 93 750 93 765 95 c 1,42,-1
 766 95 l 1,43,-1
 775 95 l 2,44,45
 781 95 781 95 785 91 c 0,46,47
 791 85 791 85 791 76 c 0,48,49
 791 39 791 39 767.5 10 c 128,-1,50
 744 -19 744 -19 708 -19 c 0,51,52
 646 -19 646 -19 601.5 9 c 128,-1,53
 557 37 557 37 557 97 c 2,54,-1
 557 166 l 2,55,56
 557 201 557 201 530.5 225.5 c 128,-1,57
 504 250 504 250 468 250 c 2,58,-1
 375 250 l 1,59,-1
 375 70 l 2,60,61
 375 49 375 49 390.5 43 c 128,-1,62
 406 37 406 37 442 37 c 2,63,-1
 447 37 l 1,64,-1
 447 -5 l 1,65,-1
 442 -5 l 2,66,67
 424 -5 424 -5 387 -3.5 c 128,-1,68
 350 -2 350 -2 332 -2 c 128,-1,69
 314 -2 314 -2 277 -3.5 c 128,-1,70
 240 -5 240 -5 221 -5 c 2,71,-1
 216 -5 l 1,11,-1
79 281 m 0,72,73
 79 111 79 111 200.5 -10.5 c 128,-1,74
 322 -132 322 -132 492 -132 c 128,-1,75
 662 -132 662 -132 783 -10.5 c 128,-1,76
 904 111 904 111 904 281 c 0,77,78
 904 450 904 450 783 571.5 c 128,-1,79
 662 693 662 693 492 693 c 128,-1,80
 322 693 322 693 200.5 571.5 c 128,-1,81
 79 450 79 450 79 281 c 0,72,73
492 747 m 128,-1,83
 618 747 618 747 725.5 684.5 c 128,-1,84
 833 622 833 622 895.5 514.5 c 128,-1,85
 958 407 958 407 958 281 c 128,-1,86
 958 155 958 155 895.5 47 c 128,-1,87
 833 -61 833 -61 725.5 -123.5 c 128,-1,88
 618 -186 618 -186 492 -186 c 0,89,90
 397 -186 397 -186 310.5 -149 c 128,-1,91
 224 -112 224 -112 161.5 -49.5 c 128,-1,92
 99 13 99 13 62 99.5 c 128,-1,93
 25 186 25 186 25 281 c 0,94,95
 25 407 25 407 87.5 514.5 c 128,-1,96
 150 622 150 622 258 684.5 c 128,-1,82
 366 747 366 747 492 747 c 128,-1,83
EndSplineSet
Validated: 19457
EndChar

StartChar: fork
Encoding: 8916 8916 111
Width: 701
Flags: W
HStem: 492 55<212.806 324 378 491.354>
VStem: 53 54<-27.5061 412.625> 324 54<-27.6172 492 547 760.506> 593 54<-27.5061 411.065>
LayerCount: 2
Fore
SplineSet
53 348 m 2,0,1
 53 412 53 412 98.5 459 c 128,-1,2
 144 506 144 506 203.5 526 c 128,-1,3
 263 546 263 546 324 547 c 1,4,-1
 324 735 l 1,5,-1
 324 736 l 1,6,7
 328 761 328 761 351 761 c 0,8,9
 361 761 361 761 368.5 753.5 c 128,-1,10
 376 746 376 746 378 736 c 1,11,-1
 378 735 l 1,12,-1
 378 547 l 1,13,14
 422 546 422 546 467.5 533.5 c 128,-1,15
 513 521 513 521 554 498 c 128,-1,16
 595 475 595 475 621 435.5 c 128,-1,17
 647 396 647 396 647 348 c 2,18,-1
 647 -3 l 1,19,-1
 647 -4 l 1,20,21
 645 -14 645 -14 638 -21 c 128,-1,22
 631 -28 631 -28 621 -28 c 0,23,24
 610 -28 610 -28 602.5 -21 c 128,-1,25
 595 -14 595 -14 593 -4 c 1,26,-1
 593 -3 l 1,27,-1
 593 344 l 2,28,29
 593 392 593 392 556.5 427 c 128,-1,30
 520 462 520 462 473.5 476.5 c 128,-1,31
 427 491 427 491 378 492 c 1,32,-1
 378 -3 l 1,33,-1
 378 -4 l 1,34,35
 376 -12 376 -12 369 -20 c 128,-1,36
 362 -28 362 -28 351 -28 c 0,37,38
 328 -28 328 -28 324 -4 c 1,39,-1
 324 -3 l 1,40,-1
 324 492 l 1,41,42
 244 490 244 490 175.5 452 c 128,-1,43
 107 414 107 414 107 344 c 2,44,-1
 107 -3 l 1,45,-1
 107 -4 l 1,46,47
 105 -14 105 -14 98 -21 c 128,-1,48
 91 -28 91 -28 81 -28 c 0,49,50
 70 -28 70 -28 62.5 -21 c 128,-1,51
 55 -14 55 -14 53 -4 c 1,52,-1
 53 -3 l 1,53,-1
 53 348 l 2,0,1
EndSplineSet
Validated: 19457
EndChar

StartChar: doublebarwedge
Encoding: 8966 8966 112
Width: 643
Flags: W
HStem: 581 54<53.4944 588.617> 789 54<53.4944 588.617>
VStem: 53 51<-108.422 -95> 537 52<-108.585 -92>
LayerCount: 2
Fore
SplineSet
53 816 m 0,0,1
 53 826 53 826 60.5 833.5 c 128,-1,2
 68 841 68 841 78 843 c 1,3,-1
 79 843 l 1,4,-1
 564 843 l 1,5,-1
 565 843 l 1,6,7
 573 841 573 841 581 834 c 128,-1,8
 589 827 589 827 589 816 c 0,9,10
 589 793 589 793 565 789 c 1,11,-1
 564 789 l 1,12,-1
 79 789 l 1,13,-1
 78 789 l 1,14,15
 53 793 53 793 53 816 c 0,0,1
53 608 m 0,16,17
 53 618 53 618 60.5 625.5 c 128,-1,18
 68 633 68 633 78 635 c 1,19,-1
 79 635 l 1,20,-1
 564 635 l 1,21,-1
 565 635 l 1,22,23
 573 633 573 633 581 626 c 128,-1,24
 589 619 589 619 589 608 c 0,25,26
 589 585 589 585 565 581 c 1,27,-1
 564 581 l 1,28,-1
 79 581 l 1,29,-1
 78 581 l 1,30,31
 53 585 53 585 53 608 c 0,16,17
57 -69 m 2,32,-1
 299 413 l 2,33,34
 306 426 306 426 322 426 c 0,35,36
 336 426 336 426 346 410 c 1,37,-1
 588 -72 l 2,38,39
 589 -76 589 -76 589 -82 c 0,40,41
 589 -93 589 -93 581 -101 c 128,-1,42
 573 -109 573 -109 562 -109 c 0,43,44
 544 -109 544 -109 537 -92 c 1,45,-1
 322 339 l 1,46,-1
 104 -95 l 2,47,48
 98 -109 98 -109 81 -109 c 0,49,50
 70 -109 70 -109 61.5 -101 c 128,-1,51
 53 -93 53 -93 53 -82 c 0,52,53
 53 -77 53 -77 57 -69 c 2,32,-1
EndSplineSet
Validated: 19457
EndChar

StartChar: curlyprecede
Encoding: 8926 8926 113
Width: 818
Flags: W
HStem: -5 21G<696 714> 282 54<83.4944 322.261> 446 54<91.7667 297.712>
VStem: 563 54<682.459 777.749> 680 54<4.28198 94.7666 523.233 613.234>
LayerCount: 2
Fore
SplineSet
108 500 m 1,0,-1
 109 500 l 2,1,2
 181 500 181 500 251.5 512.5 c 128,-1,3
 322 525 322 525 392 553 c 128,-1,4
 462 581 462 581 509 635 c 128,-1,5
 556 689 556 689 563 763 c 1,6,7
 568 786 568 786 590 786 c 0,8,9
 602 786 602 786 609.5 778 c 128,-1,10
 617 770 617 770 617 758 c 2,11,-1
 617 757 l 1,12,13
 611 698 611 698 585 649.5 c 128,-1,14
 559 601 559 601 519 568 c 128,-1,15
 479 535 479 535 430.5 510.5 c 128,-1,16
 382 486 382 486 326 472.5 c 128,-1,17
 270 459 270 459 217.5 452.5 c 128,-1,18
 165 446 165 446 113 446 c 0,19,20
 100 446 100 446 91.5 453.5 c 128,-1,21
 83 461 83 461 83 473 c 0,22,23
 83 483 83 483 90.5 490.5 c 128,-1,24
 98 498 98 498 108 500 c 1,0,-1
83 309 m 0,25,26
 83 319 83 319 90.5 326.5 c 128,-1,27
 98 334 98 334 108 336 c 1,28,-1
 109 336 l 2,29,30
 653 336 653 336 680 599 c 1,31,32
 684 622 684 622 708 622 c 0,33,34
 720 622 720 622 727 613.5 c 128,-1,35
 734 605 734 605 734 594 c 1,36,37
 712 374 712 374 414 309 c 1,38,39
 712 244 712 244 734 25 c 1,40,41
 734 13 734 13 727 4 c 128,-1,42
 720 -5 720 -5 708 -5 c 0,43,44
 684 -5 684 -5 680 19 c 1,45,46
 653 282 653 282 109 282 c 2,47,-1
 108 282 l 1,48,49
 83 286 83 286 83 309 c 0,25,26
EndSplineSet
Validated: 19457
EndChar

StartChar: curlyfollow
Encoding: 8927 8927 114
Width: 818
Flags: W
HStem: -5 21G<105 116> 282 54<496.302 733.725> 446 54<520.361 725.749>
VStem: 83 54<4.28198 94.7666 523.233 613.234> 200 54<683.58 777.749>
LayerCount: 2
Fore
SplineSet
227 786 m 0,0,1
 250 786 250 786 254 763 c 1,2,3
 261 689 261 689 308 635 c 128,-1,4
 355 581 355 581 425.5 553 c 128,-1,5
 496 525 496 525 566.5 512.5 c 128,-1,6
 637 500 637 500 710 500 c 2,7,-1
 711 500 l 1,8,9
 734 495 734 495 734 473 c 0,10,11
 734 461 734 461 726 453.5 c 128,-1,12
 718 446 718 446 706 446 c 0,13,14
 624 446 624 446 545 461 c 128,-1,15
 466 476 466 476 389 509.5 c 128,-1,16
 312 543 312 543 260.5 607 c 128,-1,17
 209 671 209 671 200 757 c 1,18,-1
 200 758 l 2,19,20
 200 770 200 770 207.5 778 c 128,-1,21
 215 786 215 786 227 786 c 0,0,1
83 25 m 1,22,23
 105 244 105 244 403 309 c 1,24,25
 105 374 105 374 83 594 c 1,26,27
 83 605 83 605 91 613.5 c 128,-1,28
 99 622 99 622 111 622 c 0,29,30
 133 622 133 622 137 599 c 1,31,32
 164 336 164 336 710 336 c 2,33,-1
 711 336 l 1,34,35
 734 331 734 331 734 309 c 0,36,37
 734 286 734 286 711 282 c 1,38,-1
 710 282 l 2,39,40
 165 282 165 282 137 19 c 0,41,42
 136 9 136 9 128.5 2 c 128,-1,43
 121 -5 121 -5 111 -5 c 0,44,45
 99 -5 99 -5 91 4 c 128,-1,46
 83 13 83 13 83 25 c 1,22,23
EndSplineSet
Validated: 19457
EndChar

StartChar: precedecurly
Encoding: 8828 8828 115
Width: 818
Flags: W
HStem: -5 21G<696 714> 118 54<92.282 297.712> 282 54<83.4944 322.261>
VStem: 563 54<-159.718 -64.4586> 680 54<4.28198 94.7666 523.233 613.234>
LayerCount: 2
Fore
SplineSet
83 309 m 0,0,1
 83 319 83 319 90.5 326.5 c 128,-1,2
 98 334 98 334 108 336 c 1,3,-1
 109 336 l 2,4,5
 653 336 653 336 680 599 c 1,6,7
 684 622 684 622 708 622 c 0,8,9
 720 622 720 622 727 613.5 c 128,-1,10
 734 605 734 605 734 594 c 1,11,12
 712 374 712 374 414 309 c 1,13,14
 712 244 712 244 734 25 c 1,15,16
 734 13 734 13 727 4 c 128,-1,17
 720 -5 720 -5 708 -5 c 0,18,19
 684 -5 684 -5 680 19 c 1,20,21
 653 282 653 282 109 282 c 2,22,-1
 108 282 l 1,23,24
 83 286 83 286 83 309 c 0,0,1
83 145 m 0,25,26
 83 157 83 157 92 164.5 c 128,-1,27
 101 172 101 172 113 172 c 0,28,29
 165 172 165 172 217.5 165.5 c 128,-1,30
 270 159 270 159 326 145.5 c 128,-1,31
 382 132 382 132 430.5 107.5 c 128,-1,32
 479 83 479 83 519 50 c 128,-1,33
 559 17 559 17 585 -31.5 c 128,-1,34
 611 -80 611 -80 617 -139 c 1,35,-1
 617 -140 l 2,36,37
 617 -151 617 -151 609.5 -160 c 128,-1,38
 602 -169 602 -169 590 -169 c 0,39,40
 567 -169 567 -169 563 -145 c 1,41,42
 556 -71 556 -71 509 -17 c 128,-1,43
 462 37 462 37 392 65 c 128,-1,44
 322 93 322 93 251.5 105.5 c 128,-1,45
 181 118 181 118 109 118 c 2,46,-1
 108 118 l 1,47,48
 83 122 83 122 83 145 c 0,25,26
EndSplineSet
Validated: 19457
EndChar

StartChar: eqless
Encoding: 8924 8924 116
Width: 799
VWidth: 1000
Flags: W
HStem: -159 54<694 716.321> 401 53<696 716.585> 604 53<81.3516 716.648>
LayerCount: 2
Fore
SplineSet
717 631 m 0,0,1
 717 604 717 604 677 604 c 2,2,-1
 121 604 l 2,3,4
 81 604 81 604 81 631 c 0,5,6
 81 657 81 657 121 657 c 2,7,-1
 677 657 l 2,8,9
 717 657 717 657 717 631 c 0,0,1
717 -132 m 0,10,11
 717 -144 717 -144 708.5 -151.5 c 128,-1,12
 700 -159 700 -159 691 -159 c 2,13,-1
 690 -159 l 2,14,15
 686 -159 686 -159 672 -152 c 2,16,-1
 104 120 l 2,17,18
 81 132 81 132 81 148 c 0,19,20
 81 163 81 163 102 173 c 2,21,-1
 670 446 l 2,22,23
 685 454 685 454 690 454 c 0,24,25
 702 454 702 454 709.5 445.5 c 128,-1,26
 717 437 717 437 717 428 c 0,27,28
 717 411 717 411 696 401 c 2,29,-1
 169 147 l 1,30,-1
 694 -105 l 1,31,32
 717 -118 717 -118 717 -132 c 0,10,11
EndSplineSet
Validated: 19457
EndChar

StartChar: staroperator
Encoding: 8902 8902 117
Width: 625
VWidth: 1000
Flags: W
HStem: 518 20G<308 316.5>
LayerCount: 2
Fore
SplineSet
148 58 m 2,0,-1
 148 60 l 1,1,-1
 204 231 l 1,2,-1
 59 337 l 1,3,4
 57 339 l 2,5,6
 54 342 54 342 54 347 c 0,7,8
 54 359 54 359 66 359 c 2,9,-1
 245 359 l 1,10,-1
 301 529 l 2,11,12
 303 538 303 538 313 538 c 0,13,14
 320 538 320 538 323 531 c 1,15,-1
 324 531 l 1,16,-1
 380 359 l 1,17,-1
 559 359 l 2,18,19
 571 359 571 359 571 347 c 0,20,21
 571 344 571 344 568 339 c 1,22,23
 566 337 l 1,24,-1
 421 231 l 1,25,-1
 477 60 l 1,26,-1
 477 58 l 2,27,28
 477 45 477 45 465 45 c 2,29,30
 461 45 l 2,31,32
 460 45 460 45 458 47 c 2,33,-1
 313 152 l 1,34,-1
 168 48 l 1,35,-1
 167 48 l 1,36,37
 165 47 165 47 164 46 c 2,38,-1
 163 45 l 1,39,-1
 160 45 l 2,40,41
 148 45 148 45 148 58 c 2,0,-1
EndSplineSet
Validated: 19457
EndChar

StartChar: uni2720
Encoding: 10016 10016 118
Width: 876
Flags: W
HStem: -28 30<204.126 233.441 642.559 675.742> 339 33<308.732 421 455 566.948> 709 29<201.156 233.441 642.559 675.862>
VStem: 55 30<124 150.562 560.438 593.738> 421 34<227.052 339 372 483.948> 792 29<124.125 150.562 560.438 587.844>
LayerCount: 2
Fore
SplineSet
55 133 m 2,0,-1
 55 578 l 2,1,2
 55 583 55 583 58 587 c 0,3,4
 61 592 61 592 71 594 c 1,5,-1
 72 594 l 2,6,7
 74 594 74 594 76 593 c 0,8,9
 81 592 81 592 85 588 c 1,10,-1
 85 587 l 1,11,-1
 85 586 l 1,12,13
 194 375 194 375 421 372 c 1,14,15
 418 598 418 598 208 709 c 1,16,-1
 207 709 l 1,17,-1
 206 709 l 1,18,19
 202 714 202 714 200 721 c 1,20,-1
 200 722 l 2,21,22
 200 724 200 724 201 727 c 0,23,24
 206 735 206 735 211 737 c 0,25,26
 213 738 213 738 216 738 c 2,27,-1
 659 738 l 2,28,29
 674 738 674 738 676 723 c 1,30,-1
 676 722 l 2,31,32
 676 720 676 720 675 718 c 0,33,34
 674 713 674 713 670 709 c 1,35,-1
 669 709 l 1,36,-1
 668 709 l 1,37,38
 458 598 458 598 455 372 c 1,39,40
 681 375 681 375 792 586 c 1,41,-1
 792 587 l 1,42,-1
 792 588 l 1,43,44
 794 590 794 590 796 591 c 0,45,46
 797 592 797 592 798 592 c 0,47,48
 802 594 802 594 804 594 c 2,49,-1
 805 594 l 2,50,51
 807 594 807 594 810 593 c 0,52,53
 818 588 818 588 820 583 c 0,54,55
 821 581 821 581 821 578 c 2,56,-1
 821 133 l 2,57,58
 821 128 821 128 818 124 c 0,59,60
 814 119 814 119 806 117 c 1,61,-1
 805 117 l 2,62,63
 799 117 799 117 794 122 c 0,64,65
 792 124 792 124 792 125 c 0,66,67
 681 336 681 336 455 339 c 1,68,69
 458 113 458 113 668 2 c 1,70,-1
 669 2 l 1,71,-1
 670 2 l 1,72,73
 674 -2 674 -2 676 -10 c 1,74,-1
 676 -11 l 2,75,76
 676 -13 676 -13 675 -15 c 0,77,78
 673 -22 673 -22 663 -27 c 0,79,80
 662 -27 662 -27 661 -27.5 c 128,-1,81
 660 -28 660 -28 659 -28 c 2,82,-1
 216 -28 l 2,83,84
 208 -28 208 -28 204 -22 c 1,85,86
 201 -15 201 -15 200 -12 c 1,87,-1
 200 -11 l 2,88,89
 200 -9 200 -9 201 -7 c 0,90,91
 202 -2 202 -2 206 2 c 1,92,-1
 207 2 l 1,93,-1
 208 2 l 1,94,95
 418 113 418 113 421 339 c 1,96,97
 194 336 194 336 85 125 c 1,98,-1
 85 124 l 1,99,-1
 84 123 l 2,100,101
 78 118 78 118 73 117 c 1,102,-1
 72 117 l 2,103,104
 63 117 63 117 57 127 c 0,105,106
 55 131 55 131 55 133 c 2,0,-1
EndSplineSet
Validated: 19457
EndChar

StartChar: lessdot
Encoding: 8918 8918 119
Width: 799
VWidth: 1000
Flags: W
HStem: 178 143<495.174 594.342> 505 51<701 716.719>
VStem: 473 143<199.658 299.342>
LayerCount: 2
Fore
SplineSet
545 321 m 128,-1,1
 574 321 574 321 595 300 c 128,-1,2
 616 279 616 279 616 250 c 0,3,4
 616 220 616 220 595 199 c 128,-1,5
 574 178 574 178 545 178 c 128,-1,6
 516 178 516 178 494.5 199 c 128,-1,7
 473 220 473 220 473 250 c 0,8,9
 473 279 473 279 494.5 300 c 128,-1,0
 516 321 516 321 545 321 c 128,-1,1
81 250 m 0,10,11
 81 265 81 265 98 274 c 2,12,-1
 681 554 l 2,13,14
 687 556 687 556 689 556 c 2,15,-1
 691 556 l 2,16,17
 701 556 701 556 709 548 c 128,-1,18
 717 540 717 540 717 530 c 0,19,20
 717 512 717 512 701 505 c 2,21,-1
 169 250 l 1,22,-1
 704 -8 l 2,23,24
 717 -14 717 -14 717 -30 c 0,25,26
 717 -41 717 -41 709.5 -49 c 128,-1,27
 702 -57 702 -57 691 -57 c 2,28,-1
 690 -57 l 1,29,-1
 686 -57 l 2,30,31
 683 -57 683 -57 680 -54 c 1,32,-1
 95 226 l 2,33,34
 81 232 81 232 81 250 c 0,10,11
EndSplineSet
Validated: 19457
EndChar

StartChar: greaterdot
Encoding: 8919 8919 120
Width: 799
VWidth: 1000
Flags: W
HStem: -58 51<81.415 98> 178 143<204.174 303.342>
VStem: 182 143<199.658 299.342>
LayerCount: 2
Fore
SplineSet
254 321 m 128,-1,1
 283 321 283 321 304 300 c 128,-1,2
 325 279 325 279 325 250 c 0,3,4
 325 220 325 220 304 199 c 128,-1,5
 283 178 283 178 254 178 c 128,-1,6
 225 178 225 178 203.5 199 c 128,-1,7
 182 220 182 220 182 250 c 0,8,9
 182 279 182 279 203.5 300 c 128,-1,0
 225 321 225 321 254 321 c 128,-1,1
98 -7 m 2,10,-1
 629 249 l 1,11,-1
 95 505 l 2,12,13
 81 511 81 511 81 529 c 0,14,15
 81 540 81 540 89 547.5 c 128,-1,16
 97 555 97 555 108 555 c 0,17,18
 114 555 114 555 118 554 c 2,19,-1
 704 271 l 2,20,21
 717 264 717 264 717 249 c 0,22,23
 717 231 717 231 701 224 c 2,24,-1
 118 -55 l 2,25,26
 114 -58 114 -58 108 -58 c 0,27,28
 97 -58 97 -58 89 -50 c 128,-1,29
 81 -42 81 -42 81 -31 c 0,30,31
 81 -16 81 -16 98 -7 c 2,10,-1
EndSplineSet
Validated: 19457
EndChar

StartChar: dividemultiply
Encoding: 8903 8903 121
Width: 799
VWidth: 1000
Flags: W
HStem: -58 166<343.272 455.182> -5 21G<167.5 178.5 619 631.5> 223 53<52.375 335 463 745.725> 391 166<343.272 455.182>
VStem: 317 165<-31.1823 81.1823 417.818 530.182>
LayerCount: 2
Fore
SplineSet
399 557 m 128,-1,1
 433 557 433 557 457.5 532.5 c 128,-1,2
 482 508 482 508 482 474 c 128,-1,3
 482 440 482 440 457.5 415.5 c 128,-1,4
 433 391 433 391 399 391 c 128,-1,5
 365 391 365 391 341 415.5 c 128,-1,6
 317 440 317 440 317 474 c 128,-1,7
 317 508 317 508 341 532.5 c 128,-1,0
 365 557 365 557 399 557 c 128,-1,1
153 41 m 2,8,-1
 335 223 l 1,9,-1
 77 223 l 1,10,-1
 76 223 l 1,11,12
 67 225 67 225 59.5 232 c 128,-1,13
 52 239 52 239 52 250 c 0,14,15
 52 272 52 272 76 276 c 1,16,-1
 77 276 l 1,17,-1
 335 276 l 1,18,-1
 154 459 l 1,19,20
 146 464 146 464 146 478 c 0,21,22
 146 489 146 489 154 496.5 c 128,-1,23
 162 504 162 504 173 504 c 0,24,25
 185 504 185 504 192 497 c 2,26,-1
 399 287 l 1,27,-1
 606 497 l 2,28,29
 613 504 613 504 626 504 c 0,30,31
 636 504 636 504 644 496 c 128,-1,32
 652 488 652 488 652 478 c 0,33,34
 652 464 652 464 644 459 c 1,35,-1
 463 276 l 1,36,-1
 722 276 l 1,37,-1
 723 276 l 1,38,39
 746 272 746 272 746 250 c 0,40,41
 746 227 746 227 723 223 c 1,42,-1
 722 223 l 1,43,-1
 463 223 l 1,44,-1
 645 41 l 2,45,46
 652 33 652 33 652 22 c 128,-1,47
 652 11 652 11 644.5 3 c 128,-1,48
 637 -5 637 -5 626 -5 c 0,49,50
 612 -5 612 -5 607 3 c 1,51,-1
 399 212 l 1,52,-1
 192 4 l 2,53,54
 184 -5 184 -5 173 -5 c 128,-1,55
 162 -5 162 -5 154 3 c 128,-1,56
 146 11 146 11 146 22 c 128,-1,57
 146 33 146 33 153 41 c 2,8,-1
399 108 m 128,-1,59
 433 108 433 108 457.5 83.5 c 128,-1,60
 482 59 482 59 482 25 c 128,-1,61
 482 -9 482 -9 457.5 -33.5 c 128,-1,62
 433 -58 433 -58 399 -58 c 128,-1,63
 365 -58 365 -58 341 -33.5 c 128,-1,64
 317 -9 317 -9 317 25 c 128,-1,65
 317 59 317 59 341 83.5 c 128,-1,58
 365 108 365 108 399 108 c 128,-1,59
EndSplineSet
Validated: 19457
EndChar

StartChar: lessdbleqlgreater
Encoding: 10891 10891 122
Width: 818
Flags: W
HStem: 177 54<83.6104 733.641> 324 54<83.4944 733.725> 804 52<690.813 733.588>
LayerCount: 2
Fore
SplineSet
83 664 m 0,0,1
 83 685 83 685 100 690 c 2,2,-1
 698 855 l 2,3,4
 701 856 701 856 706 856 c 2,5,-1
 708 856 l 2,6,7
 719 856 719 856 726.5 847.5 c 128,-1,8
 734 839 734 839 734 829 c 0,9,10
 734 810 734 810 718 804 c 1,11,-1
 187 664 l 1,12,-1
 718 525 l 1,13,-1
 718 524 l 1,14,15
 734 516 734 516 734 500 c 0,16,17
 734 488 734 488 726 480 c 128,-1,18
 718 472 718 472 708 472 c 0,19,20
 701 472 701 472 697 474 c 2,21,-1
 100 639 l 1,22,23
 83 645 83 645 83 664 c 0,0,1
83 351 m 0,24,25
 83 374 83 374 108 378 c 1,26,-1
 109 378 l 1,27,-1
 710 378 l 1,28,-1
 711 378 l 1,29,30
 734 374 734 374 734 351 c 0,31,32
 734 329 734 329 711 324 c 1,33,-1
 710 324 l 1,34,-1
 109 324 l 1,35,-1
 108 324 l 1,36,37
 98 326 98 326 90.5 333.5 c 128,-1,38
 83 341 83 341 83 351 c 0,24,25
83 203 m 0,39,40
 83 214 83 214 90.5 221.5 c 128,-1,41
 98 229 98 229 108 231 c 1,42,-1
 109 231 l 1,43,-1
 710 231 l 1,44,-1
 711 231 l 1,45,46
 734 227 734 227 734 203 c 0,47,48
 734 181 734 181 711 177 c 1,49,-1
 710 177 l 1,50,-1
 109 177 l 1,51,-1
 108 177 l 1,52,53
 83 181 83 181 83 203 c 0,39,40
100 -249 m 1,54,-1
 630 -109 l 1,55,-1
 100 30 l 2,56,57
 83 34 83 34 83 55 c 0,58,59
 83 66 83 66 91.5 74.5 c 128,-1,60
 100 83 100 83 111 83 c 0,61,62
 115 83 115 83 121 81 c 2,63,-1
 718 -84 l 1,64,65
 734 -90 734 -90 734 -109 c 0,66,67
 734 -131 734 -131 718 -135 c 2,68,-1
 119 -300 l 2,69,70
 117 -301 117 -301 115 -301 c 2,71,-1
 114 -301 l 1,72,-1
 111 -301 l 2,73,74
 101 -301 101 -301 92 -293 c 128,-1,75
 83 -285 83 -285 83 -274 c 0,76,77
 83 -255 83 -255 100 -249 c 1,54,-1
EndSplineSet
Validated: 19457
EndChar

StartChar: greaterdbleqlless
Encoding: 10892 10892 123
Width: 818
Flags: W
HStem: 177 54<83.6104 733.641> 324 54<83.4944 733.725>
LayerCount: 2
Fore
SplineSet
100 525 m 2,0,-1
 630 665 l 1,1,-1
 100 804 l 1,2,3
 83 812 83 812 83 829 c 0,4,5
 83 840 83 840 91.5 848.5 c 128,-1,6
 100 857 100 857 111 857 c 0,7,8
 115 857 115 857 121 855 c 2,9,-1
 718 691 l 2,10,11
 734 687 734 687 734 665 c 0,12,13
 734 646 734 646 718 640 c 1,14,-1
 119 474 l 2,15,16
 117 473 117 473 115 473 c 2,17,-1
 114 473 l 1,18,-1
 111 473 l 2,19,20
 101 473 101 473 92 481 c 128,-1,21
 83 489 83 489 83 500 c 0,22,23
 83 520 83 520 100 525 c 2,0,-1
83 351 m 0,24,25
 83 374 83 374 108 378 c 1,26,-1
 109 378 l 1,27,-1
 710 378 l 1,28,-1
 711 378 l 1,29,30
 734 374 734 374 734 351 c 0,31,32
 734 329 734 329 711 324 c 1,33,-1
 710 324 l 1,34,-1
 109 324 l 1,35,-1
 108 324 l 1,36,37
 98 326 98 326 90.5 333.5 c 128,-1,38
 83 341 83 341 83 351 c 0,24,25
83 203 m 0,39,40
 83 214 83 214 90.5 221.5 c 128,-1,41
 98 229 98 229 108 231 c 1,42,-1
 109 231 l 1,43,-1
 710 231 l 1,44,-1
 711 231 l 1,45,46
 734 227 734 227 734 203 c 0,47,48
 734 181 734 181 711 177 c 1,49,-1
 710 177 l 1,50,-1
 109 177 l 1,51,-1
 108 177 l 1,52,53
 83 181 83 181 83 203 c 0,39,40
83 -109 m 0,54,55
 83 -90 83 -90 100 -84 c 1,56,-1
 698 82 l 2,57,58
 702 83 702 83 708 83 c 0,59,60
 719 83 719 83 726.5 74.5 c 128,-1,61
 734 66 734 66 734 56 c 0,62,63
 734 35 734 35 718 31 c 2,64,-1
 187 -109 l 1,65,-1
 718 -248 l 1,66,-1
 718 -249 l 1,67,68
 734 -257 734 -257 734 -273 c 0,69,70
 734 -285 734 -285 726 -293 c 128,-1,71
 718 -301 718 -301 708 -301 c 0,72,73
 701 -301 701 -301 697 -299 c 2,74,-1
 100 -135 l 2,75,76
 83 -130 83 -130 83 -109 c 0,54,55
EndSplineSet
Validated: 19457
EndChar

StartChar: lessorapproxeql
Encoding: 10885 10885 124
Width: 818
Flags: W
HStem: -234 71<495.268 665.027> -88 71<151.973 321.732> 14 72<495.268 665.027> 161 71<151.973 321.732> 786 52<718 733.588>
VStem: 53 41<-230.809 -144.129 17.1914 104.871> 723 41<-106.871 -20.1912 141.129 228.809>
LayerCount: 2
Fore
SplineSet
83 586 m 0,0,1
 83 604 83 604 100 612 c 1,2,-1
 697 837 l 2,3,4
 699 838 699 838 708 838 c 0,5,6
 719 838 719 838 726.5 829.5 c 128,-1,7
 734 821 734 821 734 811 c 0,8,9
 734 792 734 792 718 786 c 2,10,-1
 179 586 l 1,11,-1
 718 387 l 1,12,13
 734 378 734 378 734 361 c 0,14,15
 734 350 734 350 726.5 342 c 128,-1,16
 719 334 719 334 708 334 c 2,17,-1
 707 334 l 1,18,-1
 702 334 l 1,19,-1
 696 337 l 1,20,-1
 100 561 l 2,21,22
 83 567 83 567 83 586 c 0,0,1
53 45 m 5,23,-1
 53 46 l 1,24,-1
 53 54 l 2,25,26
 53 129 53 129 105.5 180.5 c 128,-1,27
 158 232 158 232 233 232 c 0,28,29
 279 232 279 232 327.5 209 c 128,-1,30
 376 186 376 186 411 159 c 128,-1,31
 446 132 446 132 493.5 109 c 128,-1,32
 541 86 541 86 584 86 c 0,33,34
 637 86 637 86 680 118.5 c 128,-1,35
 723 151 723 151 723 201 c 2,36,-1
 723 202 l 1,37,38
 726 223 726 223 734 229 c 0,39,40
 737 232 737 232 743 232 c 0,41,42
 747 232 747 232 749 231 c 0,43,44
 762 225 762 225 764 202 c 1,45,-1
 764 201 l 1,46,-1
 764 192 l 2,47,48
 764 117 764 117 711.5 65.5 c 128,-1,49
 659 14 659 14 584 14 c 0,50,51
 538 14 538 14 489.5 37 c 128,-1,52
 441 60 441 60 406 87.5 c 128,-1,53
 371 115 371 115 323.5 138 c 128,-1,54
 276 161 276 161 233 161 c 0,55,56
 180 161 180 161 137 128.5 c 128,-1,57
 94 96 94 96 94 46 c 2,58,-1
 94 45 l 1,59,60
 90 23 90 23 83 17 c 0,61,62
 80 14 80 14 74 14 c 0,63,64
 69 14 69 14 66 16 c 0,65,66
 56 22 56 22 53 45 c 5,23,-1
53 -204 m 5,67,-1
 53 -203 l 1,68,-1
 53 -195 l 2,69,70
 53 -120 53 -120 105.5 -68.5 c 128,-1,71
 158 -17 158 -17 233 -17 c 0,72,73
 279 -17 279 -17 327.5 -40 c 128,-1,74
 376 -63 376 -63 411 -90 c 128,-1,75
 446 -117 446 -117 493.5 -140 c 128,-1,76
 541 -163 541 -163 584 -163 c 0,77,78
 637 -163 637 -163 680 -130.5 c 128,-1,79
 723 -98 723 -98 723 -48 c 2,80,-1
 723 -47 l 1,81,82
 726 -26 726 -26 734 -20 c 0,83,84
 737 -17 737 -17 743 -17 c 0,85,86
 747 -17 747 -17 749 -18 c 0,87,88
 762 -24 762 -24 764 -47 c 1,89,-1
 764 -48 l 1,90,-1
 764 -56 l 2,91,92
 764 -131 764 -131 711.5 -182.5 c 128,-1,93
 659 -234 659 -234 584 -234 c 0,94,95
 538 -234 538 -234 489.5 -211 c 128,-1,96
 441 -188 441 -188 406 -161 c 128,-1,97
 371 -134 371 -134 323.5 -111 c 128,-1,98
 276 -88 276 -88 233 -88 c 0,99,100
 180 -88 180 -88 137 -120.5 c 128,-1,101
 94 -153 94 -153 94 -203 c 2,102,-1
 94 -204 l 1,103,104
 90 -225 90 -225 83 -231 c 0,105,106
 78 -234 78 -234 75 -234 c 2,107,-1
 74 -234 l 2,108,109
 69 -234 69 -234 66 -232 c 0,110,111
 56 -226 56 -226 53 -204 c 5,67,-1
EndSplineSet
Validated: 19457
EndChar

StartChar: greaterorapproxeql
Encoding: 10886 10886 125
Width: 818
Flags: W
HStem: -234 71<495.268 665.027> -88 71<151.973 321.732> 14 72<495.268 665.027> 161 71<151.973 321.732> 334 53<83.415 100> 786 52<83.4307 100>
VStem: 53 41<-230.809 -144.129 17.1914 104.871> 723 41<-106.871 -20.1912 141.129 228.809>
LayerCount: 2
Fore
SplineSet
100 387 m 5,0,-1
 638 586 l 1,1,-1
 100 786 l 2,2,3
 83 792 83 792 83 811 c 0,4,5
 83 822 83 822 92 830 c 128,-1,6
 101 838 101 838 111 838 c 0,7,8
 117 838 117 838 121 837 c 2,9,-1
 718 612 l 1,10,11
 734 603 734 603 734 586 c 0,12,13
 734 567 734 567 718 561 c 2,14,-1
 121 336 l 2,15,16
 117 334 117 334 112 334 c 2,17,-1
 111 334 l 2,18,19
 100 334 100 334 91.5 342 c 128,-1,20
 83 350 83 350 83 361 c 0,21,22
 83 379 83 379 100 387 c 5,0,-1
53 45 m 5,23,-1
 53 46 l 1,24,-1
 53 54 l 2,25,26
 53 129 53 129 105.5 180.5 c 128,-1,27
 158 232 158 232 233 232 c 0,28,29
 279 232 279 232 327.5 209 c 128,-1,30
 376 186 376 186 411 159 c 128,-1,31
 446 132 446 132 493.5 109 c 128,-1,32
 541 86 541 86 584 86 c 0,33,34
 637 86 637 86 680 118.5 c 128,-1,35
 723 151 723 151 723 201 c 2,36,-1
 723 202 l 1,37,38
 726 223 726 223 734 229 c 0,39,40
 737 232 737 232 743 232 c 0,41,42
 747 232 747 232 749 231 c 0,43,44
 762 225 762 225 764 202 c 1,45,-1
 764 201 l 1,46,-1
 764 192 l 2,47,48
 764 117 764 117 711.5 65.5 c 128,-1,49
 659 14 659 14 584 14 c 0,50,51
 538 14 538 14 489.5 37 c 128,-1,52
 441 60 441 60 406 87.5 c 128,-1,53
 371 115 371 115 323.5 138 c 128,-1,54
 276 161 276 161 233 161 c 0,55,56
 180 161 180 161 137 128.5 c 128,-1,57
 94 96 94 96 94 46 c 2,58,-1
 94 45 l 1,59,60
 90 23 90 23 83 17 c 0,61,62
 80 14 80 14 74 14 c 0,63,64
 69 14 69 14 66 16 c 0,65,66
 56 22 56 22 53 45 c 5,23,-1
53 -204 m 5,67,-1
 53 -203 l 1,68,-1
 53 -195 l 2,69,70
 53 -120 53 -120 105.5 -68.5 c 128,-1,71
 158 -17 158 -17 233 -17 c 0,72,73
 279 -17 279 -17 327.5 -40 c 128,-1,74
 376 -63 376 -63 411 -90 c 128,-1,75
 446 -117 446 -117 493.5 -140 c 128,-1,76
 541 -163 541 -163 584 -163 c 0,77,78
 637 -163 637 -163 680 -130.5 c 128,-1,79
 723 -98 723 -98 723 -48 c 2,80,-1
 723 -47 l 1,81,82
 726 -26 726 -26 734 -20 c 0,83,84
 737 -17 737 -17 743 -17 c 0,85,86
 747 -17 747 -17 749 -18 c 0,87,88
 762 -24 762 -24 764 -47 c 1,89,-1
 764 -48 l 1,90,-1
 764 -56 l 2,91,92
 764 -131 764 -131 711.5 -182.5 c 128,-1,93
 659 -234 659 -234 584 -234 c 0,94,95
 538 -234 538 -234 489.5 -211 c 128,-1,96
 441 -188 441 -188 406 -161 c 128,-1,97
 371 -134 371 -134 323.5 -111 c 128,-1,98
 276 -88 276 -88 233 -88 c 0,99,100
 180 -88 180 -88 137 -120.5 c 128,-1,101
 94 -153 94 -153 94 -203 c 2,102,-1
 94 -204 l 1,103,104
 90 -225 90 -225 83 -231 c 0,105,106
 78 -234 78 -234 75 -234 c 2,107,-1
 74 -234 l 2,108,109
 69 -234 69 -234 66 -232 c 0,110,111
 56 -226 56 -226 53 -204 c 5,67,-1
EndSplineSet
Validated: 19457
EndChar

StartChar: slteqlless
Encoding: 10901 10901 126
Width: 818
Flags: W
HStem: -163 50<721 733.436> 332 51<83.4136 97> 413 52<718 733.588> 623 50<721 733.543>
LayerCount: 2
Fore
SplineSet
97 383 m 1,0,-1
 697 671 l 2,1,2
 701 673 701 673 708 673 c 0,3,4
 719 673 719 673 726.5 664.5 c 128,-1,5
 734 656 734 656 734 646 c 0,6,7
 734 630 734 630 721 623 c 2,8,-1
 121 335 l 2,9,10
 117 332 117 332 111 332 c 0,11,12
 100 332 100 332 91.5 340 c 128,-1,13
 83 348 83 348 83 359 c 0,14,15
 83 378 83 378 97 383 c 1,0,-1
83 152 m 0,16,17
 83 167 83 167 100 176 c 2,18,-1
 697 463 l 2,19,20
 701 465 701 465 708 465 c 0,21,22
 719 465 719 465 726.5 456.5 c 128,-1,23
 734 448 734 448 734 438 c 0,24,25
 734 420 734 420 718 413 c 2,26,-1
 173 152 l 1,27,-1
 721 -113 l 2,28,29
 734 -120 734 -120 734 -135 c 0,30,31
 734 -146 734 -146 726 -154.5 c 128,-1,32
 718 -163 718 -163 708 -163 c 2,33,-1
 707 -163 l 1,34,-1
 702 -163 l 2,35,36
 699 -163 699 -163 696 -160 c 1,37,-1
 97 127 l 2,38,39
 83 133 83 133 83 152 c 0,16,17
EndSplineSet
Validated: 19457
EndChar

StartChar: slteqlgreater
Encoding: 10902 10902 127
Width: 818
Flags: W
HStem: -164 52<83.5997 100> 413 51<83.4307 97> 621 52<83.4307 100>
LayerCount: 2
Fore
SplineSet
83 646 m 0,0,1
 83 657 83 657 92 665 c 128,-1,2
 101 673 101 673 111 673 c 0,3,4
 117 673 117 673 121 672 c 2,5,-1
 718 384 l 1,6,7
 734 375 734 375 734 359 c 0,8,9
 734 348 734 348 726.5 340 c 128,-1,10
 719 332 719 332 708 332 c 2,11,-1
 707 332 l 1,12,-1
 702 332 l 2,13,14
 699 332 699 332 696 335 c 1,15,-1
 100 621 l 1,16,17
 83 628 83 628 83 646 c 0,0,1
100 -112 m 2,18,-1
 644 151 l 1,19,-1
 97 413 l 2,20,21
 83 419 83 419 83 437 c 0,22,23
 83 448 83 448 92 456 c 128,-1,24
 101 464 101 464 111 464 c 0,25,26
 117 464 117 464 121 463 c 2,27,-1
 721 173 l 2,28,29
 734 166 734 166 734 151 c 0,30,31
 734 132 734 132 718 125 c 2,32,-1
 121 -161 l 2,33,34
 117 -164 117 -164 111 -164 c 0,35,36
 100 -164 100 -164 91.5 -155.5 c 128,-1,37
 83 -147 83 -147 83 -136 c 0,38,39
 83 -121 83 -121 100 -112 c 2,18,-1
EndSplineSet
Validated: 19457
EndChar

StartChar: notexistential
Encoding: 8708 8708 128
Width: 571
VWidth: 1000
Flags: W
HStem: -5 53<52.375 178 243 465> 321 53<66.375 252 318 465> 646 53<52.375 327 392 465>
VStem: 145 52<-168.265 -125.87> 373 52<819.87 862.265> 465 53<48 321 374 646>
LayerCount: 2
Fore
SplineSet
318 374 m 1,0,-1
 465 374 l 1,1,-1
 465 646 l 1,2,-1
 381 646 l 1,3,-1
 318 374 l 1,0,-1
243 48 m 1,4,-1
 465 48 l 1,5,-1
 465 321 l 1,6,-1
 306 321 l 1,7,-1
 243 48 l 1,4,-1
145 -150 m 2,8,-1
 145 -144 l 1,9,-1
 178 -5 l 1,10,-1
 77 -5 l 1,11,-1
 76 -5 l 1,12,13
 67 -3 67 -3 59.5 4 c 128,-1,14
 52 11 52 11 52 22 c 0,15,16
 52 44 52 44 76 48 c 1,17,-1
 77 48 l 1,18,-1
 189 48 l 1,19,-1
 252 321 l 1,20,-1
 91 321 l 1,21,-1
 90 321 l 1,22,23
 66 325 66 325 66 347 c 0,24,25
 66 367 66 367 90 374 c 1,26,-1
 264 374 l 1,27,-1
 327 646 l 1,28,-1
 77 646 l 1,29,-1
 76 646 l 1,30,31
 67 648 67 648 59.5 655 c 128,-1,32
 52 662 52 662 52 673 c 0,33,34
 52 695 52 695 76 699 c 1,35,-1
 77 699 l 1,36,-1
 338 699 l 1,37,-1
 373 851 l 2,38,39
 375 858 375 858 382.5 864 c 128,-1,40
 390 870 390 870 399 870 c 0,41,42
 410 870 410 870 417.5 862.5 c 128,-1,43
 425 855 425 855 425 844 c 2,44,-1
 425 838 l 1,45,-1
 392 699 l 1,46,-1
 495 699 l 1,47,48
 518 693 518 693 518 675 c 2,49,-1
 518 20 l 1,50,-1
 518 19 l 1,51,52
 514 -5 514 -5 494 -5 c 2,53,-1
 232 -5 l 1,54,-1
 197 -157 l 2,55,56
 195 -164 195 -164 187.5 -170 c 128,-1,57
 180 -176 180 -176 171 -176 c 0,58,59
 160 -176 160 -176 152.5 -168.5 c 128,-1,60
 145 -161 145 -161 145 -150 c 2,8,-1
EndSplineSet
Validated: 19457
EndChar

StartChar: emptyset
Encoding: 8709 8709 129
Width: 799
VWidth: 1000
Flags: W
HStem: -6 53<294.934 501.926> 546 53<296.416 503.066>
VStem: 97 53<192.55 399.714> 648 54<193.841 400.098>
LayerCount: 2
Fore
SplineSet
194 154 m 1,0,-1
 570 478 l 1,1,2
 499 546 499 546 399 546 c 0,3,4
 296 546 296 546 223 472.5 c 128,-1,5
 150 399 150 399 150 297 c 0,6,7
 150 218 150 218 194 154 c 1,0,-1
228 115 m 1,8,9
 299 47 299 47 399 47 c 0,10,11
 502 47 502 47 575 120.5 c 128,-1,12
 648 194 648 194 648 297 c 0,13,14
 648 375 648 375 604 439 c 1,15,-1
 228 115 l 1,8,9
52 21 m 128,-1,17
 52 32 52 32 60 40 c 2,18,-1
 153 120 l 1,19,20
 97 197 97 197 97 297 c 0,21,22
 97 422 97 422 186 510.5 c 128,-1,23
 275 599 275 599 400 599 c 0,24,25
 468 599 468 599 532 567 c 0,26,27
 545 561 545 561 556.5 553.5 c 128,-1,28
 568 546 568 546 573.5 542 c 128,-1,29
 579 538 579 538 591.5 527.5 c 128,-1,30
 604 517 604 517 610 513 c 1,31,-1
 701 592 l 1,32,33
 712 599 712 599 719 599 c 0,34,35
 730 599 730 599 738 591.5 c 128,-1,36
 746 584 746 584 746 573 c 0,37,38
 746 559 746 559 738 554 c 1,39,-1
 645 473 l 1,40,41
 702 394 702 394 702 297 c 0,42,43
 702 172 702 172 613 83 c 128,-1,44
 524 -6 524 -6 398 -6 c 0,45,46
 330 -6 330 -6 266 26 c 0,47,48
 253 32 253 32 241.5 39.5 c 128,-1,49
 230 47 230 47 224.5 51 c 128,-1,50
 219 55 219 55 206.5 65.5 c 128,-1,51
 194 76 194 76 188 80 c 1,52,-1
 97 1 l 1,53,54
 86 -6 86 -6 79 -6 c 0,55,56
 68 -6 68 -6 60 2 c 128,-1,16
 52 10 52 10 52 21 c 128,-1,17
EndSplineSet
Validated: 19457
EndChar

StartChar: hslash
Encoding: 8463 8463 130
Width: 556
VWidth: 1000
Flags: W
HStem: -16 39<413.515 474.607> 408 39<292.002 399.09> 465 41<71.1882 105.32> 587 41<476.708 510.812>
VStem: 334 79<23.1376 128.637> 408 82<238.227 402.13>
LayerCount: 2
Fore
SplineSet
50 31 m 2,0,-1
 164 487 l 1,1,-1
 91 465 l 1,2,-1
 86 465 l 2,3,4
 77 465 77 465 71 471 c 128,-1,5
 65 477 65 477 65 486 c 0,6,7
 65 502 65 502 81 506 c 2,8,-1
 176 534 l 1,9,-1
 195 609 l 2,10,11
 195 612 195 612 195.5 615.5 c 128,-1,12
 196 619 196 619 196 621 c 0,13,14
 196 643 196 643 127 643 c 2,15,-1
 121 643 l 1,16,-1
 131 688 l 1,17,-1
 304 699 l 1,18,-1
 269 562 l 1,19,-1
 491 628 l 1,20,-1
 496 628 l 2,21,22
 505 628 505 628 511 622 c 128,-1,23
 517 616 517 616 517 607 c 0,24,25
 517 591 517 591 501 587 c 2,26,-1
 257 515 l 1,27,-1
 225 386 l 1,28,29
 286 447 286 447 364 447 c 0,30,31
 421 447 421 447 455.5 417.5 c 128,-1,32
 490 388 490 388 490 332 c 0,33,34
 490 320 490 320 488 305 c 128,-1,35
 486 290 486 290 483.5 277.5 c 128,-1,36
 481 265 481 265 475.5 246.5 c 128,-1,37
 470 228 470 228 466.5 217 c 128,-1,38
 463 206 463 206 456 185 c 128,-1,39
 449 164 449 164 446 156.5 c 128,-1,40
 443 149 443 149 435 128 c 128,-1,41
 427 107 427 107 426 104 c 0,42,43
 413 72 413 72 413 48 c 0,44,45
 413 23 413 23 429 23 c 0,46,47
 465 23 465 23 490.5 61 c 128,-1,48
 516 99 516 99 528 147 c 0,49,50
 529 153 529 153 535 157 c 0,51,52
 538 160 538 160 543 160 c 2,53,-1
 555 160 l 2,54,55
 563 160 563 160 567 154 c 0,56,57
 570 150 570 150 570 142 c 2,58,-1
 570 141 l 1,59,60
 555 81 555 81 518.5 32.5 c 128,-1,61
 482 -16 482 -16 428 -16 c 0,62,63
 389 -16 389 -16 361.5 9 c 128,-1,64
 334 34 334 34 334 73 c 0,65,66
 334 94 334 94 341 112 c 0,67,68
 408 285 408 285 408 347 c 0,69,70
 408 408 408 408 362 408 c 0,71,72
 266 408 266 408 200 284 c 1,73,-1
 134 22 l 1,74,75
 121 -16 121 -16 86 -16 c 0,76,77
 71 -16 71 -16 60 -6 c 128,-1,78
 49 4 49 4 49 19 c 0,79,80
 49 26 49 26 50 31 c 2,0,-1
EndSplineSet
Validated: 19457
EndChar

StartChar: Omegainv
Encoding: 8487 8487 131
Width: 742
VWidth: 1000
Flags: W
HStem: -27 39<280.586 460.534> 611 77<97.6021 230 511 643.398>
VStem: 52 113<133.616 327.455> 576 113<131.646 327.438>
LayerCount: 2
Fore
SplineSet
133 436 m 1,0,-1
 164 482 l 2,1,2
 215 558 215 558 230 611 c 1,3,-1
 175 611 l 2,4,5
 157 611 157 611 146.5 610.5 c 128,-1,6
 136 610 136 610 126.5 609.5 c 128,-1,7
 117 609 117 609 112 604.5 c 128,-1,8
 107 600 107 600 103 598 c 128,-1,9
 99 596 99 596 97 586 c 128,-1,10
 95 576 95 576 93 570 c 128,-1,11
 91 564 91 564 88 547 c 128,-1,12
 85 530 85 530 83 518 c 2,13,-1
 82 514 l 1,14,-1
 40 514 l 1,15,-1
 76 688 l 1,16,-1
 262 688 l 2,17,18
 268 688 268 688 271 685 c 0,19,20
 278 678 278 678 278 670 c 0,21,22
 278 618 278 618 260.5 556.5 c 128,-1,23
 243 495 243 495 221.5 448 c 128,-1,24
 200 401 200 401 182.5 340 c 128,-1,25
 165 279 165 279 165 228 c 0,26,27
 165 136 165 136 222 74 c 128,-1,28
 279 12 279 12 371 12 c 0,29,30
 462 12 462 12 519 74 c 128,-1,31
 576 136 576 136 576 228 c 0,32,33
 576 279 576 279 558.5 340 c 128,-1,34
 541 401 541 401 519.5 448 c 128,-1,35
 498 495 498 495 480.5 556.5 c 128,-1,36
 463 618 463 618 463 670 c 0,37,38
 463 677 463 677 467.5 682.5 c 128,-1,39
 472 688 472 688 480 688 c 2,40,-1
 665 688 l 1,41,-1
 701 514 l 1,42,-1
 659 514 l 1,43,-1
 658 518 l 2,44,45
 656 530 656 530 653 547 c 128,-1,46
 650 564 650 564 648 570 c 128,-1,47
 646 576 646 576 644 586 c 128,-1,48
 642 596 642 596 638 598 c 128,-1,49
 634 600 634 600 629 604.5 c 128,-1,50
 624 609 624 609 614.5 609.5 c 128,-1,51
 605 610 605 610 594.5 610.5 c 128,-1,52
 584 611 584 611 566 611 c 2,53,-1
 511 611 l 1,54,55
 526 558 526 558 577 482 c 2,56,-1
 609 434 l 2,57,58
 689 315 689 315 689 228 c 0,59,60
 689 169 689 169 660 119 c 128,-1,61
 631 69 631 69 584 38 c 128,-1,62
 537 7 537 7 481.5 -10 c 128,-1,63
 426 -27 426 -27 371 -27 c 0,64,65
 315 -27 315 -27 259.5 -10 c 128,-1,66
 204 7 204 7 157.5 38 c 128,-1,67
 111 69 111 69 81.5 119 c 128,-1,68
 52 169 52 169 52 228 c 0,69,70
 52 314 52 314 133 436 c 1,0,-1
EndSplineSet
Validated: 19457
EndChar

StartChar: beth
Encoding: 8502 8502 132
Width: 685
VWidth: 1000
Flags: W
HStem: -27 141<68.25 579> 587 134<108.242 578.399>
VStem: 579 53<114 585.5>
LayerCount: 2
Fore
SplineSet
-13 -0 m 0,0,1
 -13 12 -13 12 -6 19 c 2,2,-1
 82 106 l 2,3,4
 87 112 87 112 98 114 c 1,5,-1
 99 114 l 1,6,-1
 579 114 l 1,7,-1
 579 563 l 2,8,9
 579 587 579 587 539 587 c 2,10,-1
 141 587 l 2,11,12
 110 587 110 587 90.5 599 c 128,-1,13
 71 611 71 611 63.5 635.5 c 128,-1,14
 56 660 56 660 54 678 c 128,-1,15
 52 696 52 696 52 727 c 2,16,-1
 52 744 l 1,17,-1
 52 745 l 1,18,19
 56 768 56 768 79 768 c 0,20,21
 94 768 94 768 107 744.5 c 128,-1,22
 120 721 120 721 145 721 c 2,23,-1
 543 721 l 2,24,25
 568 721 568 721 586 711.5 c 128,-1,26
 604 702 604 702 612.5 690 c 128,-1,27
 621 678 621 678 626 656 c 128,-1,28
 631 634 631 634 631.5 619.5 c 128,-1,29
 632 605 632 605 632 580 c 2,30,-1
 632 114 l 1,31,-1
 673 114 l 1,32,-1
 674 114 l 1,33,34
 697 110 697 110 697 87 c 0,35,36
 697 75 697 75 690 68 c 2,37,-1
 602 -20 l 2,38,39
 600 -22 600 -22 587 -27 c 1,40,-1
 586 -27 l 1,41,-1
 10 -27 l 1,42,43
 -13 -21 -13 -21 -13 -0 c 0,0,1
EndSplineSet
Validated: 19457
EndChar

StartChar: daleth
Encoding: 8504 8504 133
Width: 685
VWidth: 1000
Flags: W
HStem: 587 134<106.742 543>
VStem: 52 54<724.122 767.641> 543 91<-35.0034 350.443> 543 54<366.469 587>
LayerCount: 2
Fore
SplineSet
543 101 m 2,0,-1
 543 587 l 1,1,-1
 141 587 l 2,2,3
 110 587 110 587 90.5 599 c 128,-1,4
 71 611 71 611 63.5 635.5 c 128,-1,5
 56 660 56 660 54 678 c 128,-1,6
 52 696 52 696 52 727 c 2,7,-1
 52 745 l 1,8,9
 58 768 58 768 79 768 c 0,10,11
 90 768 90 768 96.5 760.5 c 128,-1,12
 103 753 103 753 106 744.5 c 128,-1,13
 109 736 109 736 119 728.5 c 128,-1,14
 129 721 129 721 145 721 c 2,15,-1
 572 721 l 2,16,17
 601 721 601 721 624 702 c 128,-1,18
 647 683 647 683 647 654 c 0,19,20
 647 608 647 608 597 591 c 1,21,22
 597 520 597 520 616 345 c 0,23,24
 634 177 634 177 634 91 c 2,25,-1
 634 81 l 2,26,27
 634 -49 634 -49 585 -49 c 0,28,29
 565 -49 565 -49 559 -28 c 0,30,31
 543 39 543 39 543 101 c 2,0,-1
EndSplineSet
Validated: 19457
EndChar

StartChar: gimel
Encoding: 8503 8503 134
Width: 456
VWidth: 1000
Flags: W
HStem: -27 141<66.875 288.375> 587 134<106.742 315>
VStem: 52 54<724.122 767.641> 315 54<366.465 587> 330 76<-35.0034 27.4708>
LayerCount: 2
Fore
SplineSet
-13 -0 m 0,0,1
 -13 8 -13 8 -6 19 c 1,2,-1
 82 107 l 2,3,4
 89 114 89 114 99 114 c 2,5,-1
 315 114 l 1,6,-1
 315 587 l 1,7,-1
 141 587 l 2,8,9
 110 587 110 587 90.5 599 c 128,-1,10
 71 611 71 611 63.5 635.5 c 128,-1,11
 56 660 56 660 54 678 c 128,-1,12
 52 696 52 696 52 727 c 2,13,-1
 52 745 l 1,14,15
 58 768 58 768 79 768 c 0,16,17
 90 768 90 768 96.5 760.5 c 128,-1,18
 103 753 103 753 106 744.5 c 128,-1,19
 109 736 109 736 119 728.5 c 128,-1,20
 129 721 129 721 145 721 c 2,21,-1
 344 721 l 2,22,23
 373 721 373 721 396 702 c 128,-1,24
 419 683 419 683 419 654 c 0,25,26
 419 607 419 607 369 590 c 1,27,28
 369 520 369 520 388 345 c 0,29,30
 406 177 406 177 406 91 c 2,31,-1
 406 81 l 2,32,33
 406 -49 406 -49 357 -49 c 0,34,35
 347 -49 347 -49 340.5 -42 c 128,-1,36
 334 -35 334 -35 330 -20.5 c 128,-1,37
 326 -6 326 -6 324 2.5 c 128,-1,38
 322 11 322 11 320 28 c 1,39,-1
 274 -20 l 2,40,41
 267 -27 267 -27 257 -27 c 2,42,-1
 10 -27 l 1,43,44
 -13 -21 -13 -21 -13 -0 c 0,0,1
EndSplineSet
Validated: 19457
EndChar

StartChar: Finv
Encoding: 8498 8498 135
Width: 571
VWidth: 1000
Flags: W
HStem: -5 53<52.375 465> 321 53<206.359 465>
VStem: 465 53<48 321 374 698.725>
LayerCount: 2
Fore
SplineSet
52 22 m 0,0,1
 52 44 52 44 76 48 c 1,2,-1
 77 48 l 1,3,-1
 465 48 l 1,4,-1
 465 321 l 1,5,-1
 230 321 l 1,6,-1
 229 321 l 1,7,8
 206 325 206 325 206 347 c 0,9,10
 206 368 206 368 229 374 c 1,11,-1
 465 374 l 1,12,-1
 465 675 l 1,13,-1
 465 676 l 1,14,15
 469 699 469 699 492 699 c 0,16,17
 514 699 514 699 518 676 c 1,18,-1
 518 675 l 1,19,-1
 518 20 l 2,20,21
 518 0 518 0 495 -5 c 1,22,-1
 77 -5 l 1,23,-1
 76 -5 l 1,24,25
 67 -3 67 -3 59.5 4 c 128,-1,26
 52 11 52 11 52 22 c 0,0,1
EndSplineSet
Validated: 19457
EndChar

StartChar: Gmir
Encoding: 8513 8513 136
Width: 656
VWidth: 1000
Flags: W
HStem: -27 53<90.5667 362.11> 261 53<88 260.725> 657 53<132.06 365.855>
VStem: 35 53<37.1602 261> 544 53<219.675 463.601>
LayerCount: 2
Fore
SplineSet
35 46 m 2,0,-1
 35 291 l 1,1,2
 40 314 40 314 60 314 c 2,3,-1
 237 314 l 1,4,-1
 238 314 l 1,5,6
 261 310 261 310 261 288 c 0,7,8
 261 265 261 265 238 261 c 1,9,-1
 237 261 l 1,10,-1
 88 261 l 1,11,-1
 88 50 l 2,12,13
 88 49 88 49 89 48 c 0,14,15
 104 26 104 26 254 26 c 0,16,17
 379 26 379 26 461.5 120.5 c 128,-1,18
 544 215 544 215 544 342 c 0,19,20
 544 468 544 468 461.5 562.5 c 128,-1,21
 379 657 379 657 256 657 c 0,22,23
 165 657 165 657 83 613 c 0,24,25
 75 609 75 609 70 609 c 0,26,27
 59 609 59 609 51 617 c 128,-1,28
 43 625 43 625 43 636 c 0,29,30
 43 650 43 650 57 658 c 0,31,32
 150 710 150 710 256 710 c 0,33,34
 401 710 401 710 499 599.5 c 128,-1,35
 597 489 597 489 597 342 c 0,36,37
 597 194 597 194 499 83.5 c 128,-1,38
 401 -27 401 -27 256 -27 c 2,39,-1
 244 -27 l 2,40,41
 35 -27 35 -27 35 46 c 2,0,-1
EndSplineSet
Validated: 19457
EndChar

StartChar: subsetornotdbleql
Encoding: 10955 10955 137
Width: 799
VWidth: 1000
Flags: W
HStem: -198 53<81.375 256 371 716.725> 5 53<81.375 427 542 716.725> 260 53<278.51 716.725> 760 53<278.51 716.725>
VStem: 81 53<438.977 634.3>
LayerCount: 2
Fore
SplineSet
397 813 m 2,0,-1
 693 813 l 1,1,-1
 694 813 l 1,2,3
 717 809 717 809 717 787 c 0,4,5
 717 764 717 764 694 760 c 1,6,-1
 693 760 l 1,7,-1
 401 760 l 2,8,9
 288 760 288 760 211 700.5 c 128,-1,10
 134 641 134 641 134 537 c 0,11,12
 134 432 134 432 211 372.5 c 128,-1,13
 288 313 288 313 401 313 c 2,14,-1
 693 313 l 1,15,-1
 694 313 l 1,16,17
 717 309 717 309 717 287 c 0,18,19
 717 264 717 264 694 260 c 1,20,-1
 693 260 l 1,21,-1
 397 260 l 2,22,23
 265 260 265 260 173 335.5 c 128,-1,24
 81 411 81 411 81 537 c 0,25,26
 81 662 81 662 173 737.5 c 128,-1,27
 265 813 265 813 397 813 c 2,0,-1
178 -291 m 6,28,-1
 256 -198 l 1,29,-1
 106 -198 l 1,30,-1
 105 -198 l 1,31,32
 81 -194 81 -194 81 -172 c 0,33,34
 81 -161 81 -161 88.5 -154 c 128,-1,35
 96 -147 96 -147 105 -145 c 1,36,-1
 106 -145 l 1,37,-1
 301 -145 l 1,38,-1
 427 5 l 1,39,-1
 106 5 l 1,40,-1
 105 5 l 1,41,42
 81 9 81 9 81 31 c 0,43,44
 81 42 81 42 88.5 49 c 128,-1,45
 96 56 96 56 105 58 c 1,46,-1
 106 58 l 1,47,-1
 473 58 l 1,48,-1
 579 185 l 1,49,50
 587 193 587 193 599 193 c 0,51,52
 609 193 609 193 617 185 c 128,-1,53
 625 177 625 177 625 167 c 0,54,55
 625 156 625 156 620 151 c 2,56,-1
 542 58 l 1,57,-1
 693 58 l 1,58,-1
 694 58 l 1,59,60
 717 54 717 54 717 31 c 0,61,62
 717 9 717 9 694 5 c 1,63,-1
 693 5 l 1,64,-1
 497 5 l 1,65,-1
 371 -145 l 1,66,-1
 693 -145 l 1,67,-1
 694 -145 l 1,68,69
 717 -149 717 -149 717 -172 c 0,70,71
 717 -194 717 -194 694 -198 c 1,72,-1
 693 -198 l 1,73,-1
 325 -198 l 1,74,-1
 219 -324 l 2,75,76
 212 -333 212 -333 200 -333 c 0,77,78
 189 -333 189 -333 181 -325 c 128,-1,79
 173 -317 173 -317 173 -306 c 0,80,81
 173 -296 173 -296 178 -291 c 6,28,-1
EndSplineSet
Validated: 19457
EndChar

StartChar: supersetornotdbleql
Encoding: 10956 10956 138
Width: 799
VWidth: 1000
Flags: W
HStem: -198 53<81.375 256 371 716.725> 5 53<81.375 427 542 716.725> 260 53<81.375 519.49> 760 53<81.375 519.49>
VStem: 664 53<438.977 634.3>
LayerCount: 2
Fore
SplineSet
81 287 m 0,0,1
 81 309 81 309 105 313 c 1,2,-1
 106 313 l 1,3,-1
 397 313 l 2,4,5
 510 313 510 313 587 372.5 c 128,-1,6
 664 432 664 432 664 537 c 0,7,8
 664 641 664 641 587 700.5 c 128,-1,9
 510 760 510 760 397 760 c 2,10,-1
 106 760 l 1,11,-1
 105 760 l 1,12,13
 96 762 96 762 88.5 769 c 128,-1,14
 81 776 81 776 81 787 c 0,15,16
 81 809 81 809 105 813 c 1,17,-1
 106 813 l 1,18,-1
 401 813 l 2,19,20
 533 813 533 813 625 737.5 c 128,-1,21
 717 662 717 662 717 537 c 0,22,23
 717 411 717 411 625 335.5 c 128,-1,24
 533 260 533 260 401 260 c 2,25,-1
 106 260 l 1,26,-1
 105 260 l 1,27,28
 96 262 96 262 88.5 269 c 128,-1,29
 81 276 81 276 81 287 c 0,0,1
180 -288 m 5,30,-1
 256 -198 l 1,31,-1
 106 -198 l 1,32,-1
 105 -198 l 1,33,34
 81 -194 81 -194 81 -172 c 0,35,36
 81 -161 81 -161 88.5 -154 c 128,-1,37
 96 -147 96 -147 105 -145 c 1,38,-1
 106 -145 l 1,39,-1
 301 -145 l 1,40,-1
 427 5 l 1,41,-1
 106 5 l 1,42,-1
 105 5 l 1,43,44
 81 9 81 9 81 31 c 0,45,46
 81 42 81 42 88.5 49 c 128,-1,47
 96 56 96 56 105 58 c 1,48,-1
 106 58 l 1,49,-1
 473 58 l 1,50,-1
 580 185 l 1,51,52
 585 193 585 193 599 193 c 0,53,54
 609 193 609 193 617 185 c 128,-1,55
 625 177 625 177 625 167 c 0,56,57
 625 156 625 156 618 149 c 2,58,-1
 542 58 l 1,59,-1
 693 58 l 1,60,-1
 694 58 l 1,61,62
 717 54 717 54 717 31 c 0,63,64
 717 9 717 9 694 5 c 1,65,-1
 693 5 l 1,66,-1
 497 5 l 1,67,-1
 371 -145 l 1,68,-1
 693 -145 l 1,69,-1
 694 -145 l 1,70,71
 717 -149 717 -149 717 -172 c 0,72,73
 717 -194 717 -194 694 -198 c 1,74,-1
 693 -198 l 1,75,-1
 325 -198 l 1,76,-1
 219 -325 l 1,77,78
 211 -333 211 -333 200 -333 c 128,-1,79
 189 -333 189 -333 181 -325 c 128,-1,80
 173 -317 173 -317 173 -306 c 0,81,82
 173 -298 173 -298 180 -288 c 5,30,-1
EndSplineSet
Validated: 19457
EndChar

StartChar: precedenotdbleql
Encoding: 10933 10933 139
Width: 799
VWidth: 1000
Flags: W
HStem: -197 53<81.375 243 365 716.725> 6 53<81.375 433 555 716.725> 446 53<81.375 327.221>
VStem: 664 53<174.766 263.75 681.962 778.725>
LayerCount: 2
Fore
SplineSet
81 473 m 0,0,1
 81 495 81 495 105 499 c 1,2,-1
 106 499 l 2,3,4
 638 499 638 499 664 756 c 1,5,6
 668 779 668 779 691 779 c 0,7,8
 702 779 702 779 709.5 770.5 c 128,-1,9
 717 762 717 762 717 751 c 2,10,-1
 717 750 l 1,11,12
 695 536 695 536 405 473 c 1,13,14
 695 410 695 410 717 196 c 1,15,-1
 717 195 l 2,16,17
 717 183 717 183 710 174.5 c 128,-1,18
 703 166 703 166 691 166 c 0,19,20
 680 166 680 166 672.5 173.5 c 128,-1,21
 665 181 665 181 664 190 c 0,22,23
 637 446 637 446 106 446 c 2,24,-1
 105 446 l 1,25,26
 96 448 96 448 88.5 455 c 128,-1,27
 81 462 81 462 81 473 c 0,0,1
185 -259 m 2,28,-1
 243 -197 l 1,29,-1
 106 -197 l 1,30,-1
 105 -197 l 1,31,32
 81 -193 81 -193 81 -171 c 0,33,34
 81 -160 81 -160 88.5 -153 c 128,-1,35
 96 -146 96 -146 105 -144 c 1,36,-1
 106 -144 l 1,37,-1
 293 -144 l 1,38,-1
 433 6 l 1,39,-1
 106 6 l 1,40,-1
 105 6 l 1,41,42
 96 8 96 8 88.5 15 c 128,-1,43
 81 22 81 22 81 33 c 0,44,45
 81 55 81 55 105 59 c 1,46,-1
 106 59 l 1,47,-1
 482 59 l 1,48,-1
 574 158 l 2,49,50
 582 166 582 166 593 166 c 128,-1,51
 604 166 604 166 612 158 c 128,-1,52
 620 150 620 150 620 139 c 128,-1,53
 620 128 620 128 613 121 c 2,54,-1
 555 59 l 1,55,-1
 693 59 l 1,56,-1
 694 59 l 1,57,58
 717 55 717 55 717 33 c 0,59,60
 717 10 717 10 694 6 c 1,61,-1
 693 6 l 1,62,-1
 505 6 l 1,63,-1
 365 -144 l 1,64,-1
 693 -144 l 1,65,-1
 694 -144 l 1,66,67
 717 -148 717 -148 717 -171 c 0,68,69
 717 -193 717 -193 694 -197 c 1,70,-1
 693 -197 l 1,71,-1
 316 -197 l 1,72,-1
 224 -296 l 2,73,74
 216 -304 216 -304 205 -304 c 128,-1,75
 194 -304 194 -304 186 -296 c 128,-1,76
 178 -288 178 -288 178 -277 c 128,-1,77
 178 -266 178 -266 185 -259 c 2,28,-1
EndSplineSet
Validated: 19457
EndChar

StartChar: follownotdbleql
Encoding: 10934 10934 140
Width: 799
VWidth: 1000
Flags: W
HStem: -197 53<81.375 243 365 716.725> 6 53<81.375 433 555 716.725> 446 53<471.007 716.725>
VStem: 81 53<174.766 263.75 681.962 770.749>
LayerCount: 2
Fore
SplineSet
81 195 m 2,0,-1
 81 196 l 1,1,2
 103 410 103 410 393 473 c 1,3,4
 102 536 102 536 81 750 c 1,5,-1
 81 751 l 2,6,7
 81 763 81 763 88.5 771 c 128,-1,8
 96 779 96 779 108 779 c 0,9,10
 130 779 130 779 134 756 c 1,11,12
 160 499 160 499 693 499 c 2,13,-1
 694 499 l 1,14,15
 717 495 717 495 717 473 c 0,16,17
 717 450 717 450 694 446 c 1,18,-1
 693 446 l 2,19,20
 160 446 160 446 134 190 c 1,21,22
 130 166 130 166 108 166 c 0,23,24
 96 166 96 166 88.5 174.5 c 128,-1,25
 81 183 81 183 81 195 c 2,0,-1
185 -259 m 2,26,-1
 243 -197 l 1,27,-1
 106 -197 l 1,28,-1
 105 -197 l 1,29,30
 81 -193 81 -193 81 -171 c 0,31,32
 81 -160 81 -160 88.5 -153 c 128,-1,33
 96 -146 96 -146 105 -144 c 1,34,-1
 106 -144 l 1,35,-1
 293 -144 l 1,36,-1
 433 6 l 1,37,-1
 106 6 l 1,38,-1
 105 6 l 1,39,40
 96 8 96 8 88.5 15 c 128,-1,41
 81 22 81 22 81 33 c 0,42,43
 81 55 81 55 105 59 c 1,44,-1
 106 59 l 1,45,-1
 482 59 l 1,46,-1
 574 157 l 2,47,48
 583 166 583 166 593 166 c 0,49,50
 604 166 604 166 612 158 c 128,-1,51
 620 150 620 150 620 139 c 128,-1,52
 620 128 620 128 613 121 c 2,53,-1
 555 59 l 1,54,-1
 693 59 l 1,55,-1
 694 59 l 1,56,57
 717 55 717 55 717 33 c 0,58,59
 717 10 717 10 694 6 c 1,60,-1
 693 6 l 1,61,-1
 505 6 l 1,62,-1
 365 -144 l 1,63,-1
 693 -144 l 1,64,-1
 694 -144 l 1,65,66
 717 -148 717 -148 717 -171 c 0,67,68
 717 -193 717 -193 694 -197 c 1,69,-1
 693 -197 l 1,70,-1
 316 -197 l 1,71,-1
 224 -295 l 2,72,73
 215 -304 215 -304 205 -304 c 0,74,75
 194 -304 194 -304 186 -296 c 128,-1,76
 178 -288 178 -288 178 -277 c 128,-1,77
 178 -266 178 -266 185 -259 c 2,26,-1
EndSplineSet
Validated: 19457
EndChar

StartChar: precedenotapprox
Encoding: 10937 10937 141
Width: 799
VWidth: 1000
Flags: W
HStem: -257 71<483.884 649.108> -114 70<148.131 314.173> -14 71<484.202 649.869> 129 71<148.131 313.308> 517 53<81.375 409.061>
VStem: 52 40<-253.809 -167.912 -10.8088 75.1525> 664 53<276.766 363.93 727.792 818.649> 706 40<-132.052 -47.1912 110.848 196.809>
LayerCount: 2
Fore
SplineSet
81 544 m 0,0,1
 81 566 81 566 105 570 c 1,2,-1
 106 570 l 2,3,4
 152 570 152 570 182 570.5 c 128,-1,5
 212 571 212 571 265.5 573.5 c 128,-1,6
 319 576 319 576 356.5 582.5 c 128,-1,7
 394 589 394 589 442.5 599 c 128,-1,8
 491 609 491 609 524.5 626 c 128,-1,9
 558 643 558 643 590 666 c 128,-1,10
 622 689 622 689 640.5 722 c 128,-1,11
 659 755 659 755 664 796 c 0,12,13
 665 805 665 805 672.5 812 c 128,-1,14
 680 819 680 819 691 819 c 128,-1,15
 702 819 702 819 709.5 810.5 c 128,-1,16
 717 802 717 802 717 791 c 2,17,-1
 717 790 l 1,18,19
 694 597 694 597 448 544 c 1,20,21
 695 487 695 487 717 298 c 1,22,-1
 717 297 l 2,23,24
 717 285 717 285 710 276.5 c 128,-1,25
 703 268 703 268 691 268 c 0,26,27
 680 268 680 268 672.5 275.5 c 128,-1,28
 665 283 665 283 664 292 c 0,29,30
 659 333 659 333 640.5 366 c 128,-1,31
 622 399 622 399 590 421.5 c 128,-1,32
 558 444 558 444 524.5 461 c 128,-1,33
 491 478 491 478 442.5 488 c 128,-1,34
 394 498 394 498 356.5 504.5 c 128,-1,35
 319 511 319 511 265.5 513.5 c 128,-1,36
 212 516 212 516 182 516.5 c 128,-1,37
 152 517 152 517 106 517 c 2,38,-1
 105 517 l 1,39,40
 96 519 96 519 88.5 526 c 128,-1,41
 81 533 81 533 81 544 c 0,0,1
52 -227 m 1,42,-1
 52 -226 l 1,43,-1
 52 -218 l 2,44,45
 52 -144 52 -144 103.5 -94 c 128,-1,46
 155 -44 155 -44 228 -44 c 0,47,48
 284 -44 284 -44 345 -78 c 1,49,-1
 409 49 l 1,50,51
 366 78 366 78 349.5 88.5 c 128,-1,52
 333 99 333 99 296 114 c 128,-1,53
 259 129 259 129 228 129 c 0,54,55
 176 129 176 129 134 97.5 c 128,-1,56
 92 66 92 66 92 17 c 2,57,-1
 92 16 l 1,58,59
 88 -5 88 -5 81 -11 c 0,60,61
 76 -14 76 -14 72 -14 c 0,62,63
 67 -14 67 -14 63 -11 c 0,64,65
 54 -5 54 -5 52 16 c 1,66,-1
 52 17 l 1,67,-1
 52 25 l 2,68,69
 52 99 52 99 103.5 149.5 c 128,-1,70
 155 200 155 200 228 200 c 0,71,72
 251 200 251 200 273 195 c 128,-1,73
 295 190 295 190 320.5 177 c 128,-1,74
 346 164 346 164 358.5 157 c 128,-1,75
 371 150 371 150 400.5 130 c 128,-1,76
 430 110 430 110 436 106 c 1,77,-1
 498 228 l 1,78,79
 505 244 505 244 522 244 c 0,80,81
 533 244 533 244 540.5 236.5 c 128,-1,82
 548 229 548 229 548 218 c 0,83,84
 548 212 548 212 547 209 c 1,85,-1
 546 208 l 1,86,-1
 483 79 l 1,87,88
 530 57 530 57 570 57 c 0,89,90
 622 57 622 57 664 88.5 c 128,-1,91
 706 120 706 120 706 169 c 2,92,-1
 706 170 l 1,93,94
 710 191 710 191 717 197 c 0,95,96
 722 200 722 200 726 200 c 0,97,98
 731 200 731 200 735 197 c 0,99,100
 744 191 744 191 746 170 c 1,101,-1
 746 169 l 1,102,-1
 746 161 l 2,103,104
 746 87 746 87 694.5 36.5 c 128,-1,105
 643 -14 643 -14 570 -14 c 0,106,107
 516 -14 516 -14 453 21 c 1,108,-1
 389 -106 l 1,109,110
 391 -107 391 -107 409.5 -119.5 c 128,-1,111
 428 -132 428 -132 432 -134.5 c 128,-1,112
 436 -137 436 -137 452.5 -147 c 128,-1,113
 469 -157 469 -157 476 -160 c 128,-1,114
 483 -163 483 -163 497.5 -170 c 128,-1,115
 512 -177 512 -177 522 -179 c 128,-1,116
 532 -181 532 -181 545 -183.5 c 128,-1,117
 558 -186 558 -186 570 -186 c 0,118,119
 621 -186 621 -186 663.5 -154.5 c 128,-1,120
 706 -123 706 -123 706 -75 c 2,121,-1
 706 -74 l 1,122,123
 709 -53 709 -53 717 -47 c 0,124,125
 720 -44 720 -44 726 -44 c 0,126,127
 731 -44 731 -44 735 -47 c 0,128,129
 743 -53 743 -53 746 -74 c 1,130,-1
 746 -75 l 1,131,-1
 746 -83 l 2,132,133
 746 -156 746 -156 694.5 -206.5 c 128,-1,134
 643 -257 643 -257 570 -257 c 0,135,136
 547 -257 547 -257 525 -252 c 128,-1,137
 503 -247 503 -247 477.5 -234 c 128,-1,138
 452 -221 452 -221 439.5 -214 c 128,-1,139
 427 -207 427 -207 397.5 -187 c 128,-1,140
 368 -167 368 -167 362 -163 c 1,141,-1
 300 -285 l 1,142,143
 293 -301 293 -301 276 -301 c 0,144,145
 265 -301 265 -301 257.5 -293.5 c 128,-1,146
 250 -286 250 -286 250 -275 c 0,147,148
 250 -269 250 -269 251 -266 c 1,149,-1
 252 -265 l 1,150,-1
 315 -136 l 1,151,152
 268 -114 268 -114 228 -114 c 0,153,154
 176 -114 176 -114 134 -145.5 c 128,-1,155
 92 -177 92 -177 92 -226 c 2,156,-1
 92 -227 l 1,157,158
 88 -248 88 -248 81 -254 c 0,159,160
 76 -257 76 -257 72 -257 c 0,161,162
 67 -257 67 -257 63 -254 c 0,163,164
 54 -248 54 -248 52 -227 c 1,42,-1
EndSplineSet
Validated: 19457
EndChar

StartChar: follownotapprox
Encoding: 10938 10938 142
Width: 799
VWidth: 1000
Flags: W
HStem: -257 71<483.884 649.108> -114 70<148.131 314.173> -14 71<484.202 649.869> 129 71<148.131 313.308> 517 53<389.669 716.725>
VStem: 52 40<-253.809 -167.912 -10.8088 75.1525> 81 53<276.766 363.625 728.077 810.749> 706 40<-132.052 -47.1912 110.848 196.809>
LayerCount: 2
Fore
SplineSet
81 297 m 2,0,-1
 81 298 l 1,1,2
 102 485 102 485 351 544 c 1,3,4
 103 598 103 598 81 790 c 1,5,-1
 81 791 l 2,6,7
 81 803 81 803 88.5 811 c 128,-1,8
 96 819 96 819 108 819 c 0,9,10
 118 819 118 819 125.5 812 c 128,-1,11
 133 805 133 805 134 796 c 0,12,13
 139 755 139 755 157.5 722 c 128,-1,14
 176 689 176 689 208 666 c 128,-1,15
 240 643 240 643 273.5 626 c 128,-1,16
 307 609 307 609 356 599 c 128,-1,17
 405 589 405 589 442 582.5 c 128,-1,18
 479 576 479 576 533 573.5 c 128,-1,19
 587 571 587 571 616.5 570.5 c 128,-1,20
 646 570 646 570 693 570 c 2,21,-1
 694 570 l 1,22,23
 717 566 717 566 717 544 c 0,24,25
 717 521 717 521 694 517 c 1,26,-1
 693 517 l 2,27,28
 646 517 646 517 616.5 516.5 c 128,-1,29
 587 516 587 516 533 513.5 c 128,-1,30
 479 511 479 511 442 504.5 c 128,-1,31
 405 498 405 498 356 488 c 128,-1,32
 307 478 307 478 273.5 461 c 128,-1,33
 240 444 240 444 208 421.5 c 128,-1,34
 176 399 176 399 157.5 366 c 128,-1,35
 139 333 139 333 134 292 c 1,36,37
 130 268 130 268 108 268 c 0,38,39
 96 268 96 268 88.5 276.5 c 128,-1,40
 81 285 81 285 81 297 c 2,0,-1
52 -227 m 1,41,-1
 52 -226 l 1,42,-1
 52 -218 l 2,43,44
 52 -144 52 -144 103.5 -94 c 128,-1,45
 155 -44 155 -44 228 -44 c 0,46,47
 284 -44 284 -44 345 -78 c 1,48,-1
 409 49 l 1,49,50
 366 78 366 78 349.5 88.5 c 128,-1,51
 333 99 333 99 296 114 c 128,-1,52
 259 129 259 129 228 129 c 0,53,54
 176 129 176 129 134 97.5 c 128,-1,55
 92 66 92 66 92 17 c 2,56,-1
 92 16 l 1,57,58
 88 -5 88 -5 81 -11 c 0,59,60
 76 -14 76 -14 72 -14 c 0,61,62
 67 -14 67 -14 63 -11 c 0,63,64
 54 -5 54 -5 52 16 c 1,65,-1
 52 17 l 1,66,-1
 52 25 l 2,67,68
 52 99 52 99 103.5 149.5 c 128,-1,69
 155 200 155 200 228 200 c 0,70,71
 251 200 251 200 273 195 c 128,-1,72
 295 190 295 190 320.5 177 c 128,-1,73
 346 164 346 164 358.5 157 c 128,-1,74
 371 150 371 150 400.5 130 c 128,-1,75
 430 110 430 110 436 106 c 1,76,-1
 498 228 l 1,77,78
 505 244 505 244 522 244 c 0,79,80
 533 244 533 244 540.5 236.5 c 128,-1,81
 548 229 548 229 548 218 c 0,82,83
 548 212 548 212 547 209 c 1,84,-1
 546 208 l 1,85,-1
 483 79 l 1,86,87
 530 57 530 57 570 57 c 0,88,89
 622 57 622 57 664 88.5 c 128,-1,90
 706 120 706 120 706 169 c 2,91,-1
 706 170 l 1,92,93
 710 191 710 191 717 197 c 0,94,95
 722 200 722 200 726 200 c 0,96,97
 731 200 731 200 735 197 c 0,98,99
 744 191 744 191 746 170 c 1,100,-1
 746 169 l 1,101,-1
 746 161 l 2,102,103
 746 87 746 87 694.5 36.5 c 128,-1,104
 643 -14 643 -14 570 -14 c 0,105,106
 516 -14 516 -14 453 21 c 1,107,-1
 389 -106 l 1,108,109
 391 -107 391 -107 409.5 -119.5 c 128,-1,110
 428 -132 428 -132 432 -134.5 c 128,-1,111
 436 -137 436 -137 452.5 -147 c 128,-1,112
 469 -157 469 -157 476 -160 c 128,-1,113
 483 -163 483 -163 497.5 -170 c 128,-1,114
 512 -177 512 -177 522 -179 c 128,-1,115
 532 -181 532 -181 545 -183.5 c 128,-1,116
 558 -186 558 -186 570 -186 c 0,117,118
 621 -186 621 -186 663.5 -154.5 c 128,-1,119
 706 -123 706 -123 706 -75 c 2,120,-1
 706 -74 l 1,121,122
 709 -53 709 -53 717 -47 c 0,123,124
 720 -44 720 -44 726 -44 c 0,125,126
 731 -44 731 -44 735 -47 c 0,127,128
 743 -53 743 -53 746 -74 c 1,129,-1
 746 -75 l 1,130,-1
 746 -83 l 2,131,132
 746 -156 746 -156 694.5 -206.5 c 128,-1,133
 643 -257 643 -257 570 -257 c 0,134,135
 547 -257 547 -257 525 -252 c 128,-1,136
 503 -247 503 -247 477.5 -234 c 128,-1,137
 452 -221 452 -221 439.5 -214 c 128,-1,138
 427 -207 427 -207 397.5 -187 c 128,-1,139
 368 -167 368 -167 362 -163 c 1,140,-1
 300 -285 l 1,141,142
 293 -301 293 -301 276 -301 c 0,143,144
 265 -301 265 -301 257.5 -293.5 c 128,-1,145
 250 -286 250 -286 250 -275 c 0,146,147
 250 -269 250 -269 251 -266 c 1,148,-1
 252 -265 l 1,149,-1
 315 -136 l 1,150,151
 268 -114 268 -114 228 -114 c 0,152,153
 176 -114 176 -114 134 -145.5 c 128,-1,154
 92 -177 92 -177 92 -226 c 2,155,-1
 92 -227 l 1,156,157
 88 -248 88 -248 81 -254 c 0,158,159
 76 -257 76 -257 72 -257 c 0,160,161
 67 -257 67 -257 63 -254 c 0,162,163
 54 -248 54 -248 52 -227 c 1,41,-1
EndSplineSet
Validated: 19457
EndChar

StartChar: lessnotdbleql
Encoding: 8808 8808 143
Width: 799
VWidth: 1000
Flags: W
HStem: -197 53<81.375 243 365 716.725> 6 53<81.375 433 555 716.725> 728 51<701 716.719>
LayerCount: 2
Fore
SplineSet
81 473 m 0,0,1
 81 488 81 488 98 497 c 2,2,-1
 681 777 l 2,3,4
 687 779 687 779 689 779 c 2,5,-1
 691 779 l 2,6,7
 701 779 701 779 709 771 c 128,-1,8
 717 763 717 763 717 753 c 0,9,10
 717 735 717 735 701 728 c 2,11,-1
 169 473 l 1,12,-1
 704 215 l 2,13,14
 717 208 717 208 717 193 c 0,15,16
 717 182 717 182 709.5 174 c 128,-1,17
 702 166 702 166 691 166 c 2,18,-1
 690 166 l 1,19,-1
 686 166 l 2,20,21
 683 166 683 166 680 169 c 1,22,-1
 95 449 l 2,23,24
 81 455 81 455 81 473 c 0,0,1
185 -259 m 2,25,-1
 243 -197 l 1,26,-1
 106 -197 l 1,27,-1
 105 -197 l 1,28,29
 81 -193 81 -193 81 -171 c 0,30,31
 81 -160 81 -160 88.5 -153 c 128,-1,32
 96 -146 96 -146 105 -144 c 1,33,-1
 106 -144 l 1,34,-1
 293 -144 l 1,35,-1
 433 6 l 1,36,-1
 106 6 l 1,37,-1
 105 6 l 1,38,39
 96 8 96 8 88.5 15 c 128,-1,40
 81 22 81 22 81 33 c 0,41,42
 81 55 81 55 105 59 c 1,43,-1
 106 59 l 1,44,-1
 482 59 l 1,45,-1
 574 158 l 2,46,47
 582 166 582 166 593 166 c 128,-1,48
 604 166 604 166 612 158 c 128,-1,49
 620 150 620 150 620 139 c 128,-1,50
 620 128 620 128 613 121 c 2,51,-1
 555 59 l 1,52,-1
 693 59 l 1,53,-1
 694 59 l 1,54,55
 717 55 717 55 717 33 c 0,56,57
 717 10 717 10 694 6 c 1,58,-1
 693 6 l 1,59,-1
 505 6 l 1,60,-1
 365 -144 l 1,61,-1
 693 -144 l 1,62,-1
 694 -144 l 1,63,64
 717 -148 717 -148 717 -171 c 0,65,66
 717 -193 717 -193 694 -197 c 1,67,-1
 693 -197 l 1,68,-1
 316 -197 l 1,69,-1
 224 -296 l 2,70,71
 216 -304 216 -304 205 -304 c 128,-1,72
 194 -304 194 -304 186 -296 c 128,-1,73
 178 -288 178 -288 178 -277 c 128,-1,74
 178 -266 178 -266 185 -259 c 2,25,-1
EndSplineSet
Validated: 19457
EndChar

StartChar: greaternotdbleql
Encoding: 8809 8809 144
Width: 799
VWidth: 1000
Flags: W
HStem: -197 53<81.375 243 365 716.725> 6 53<81.375 433 555 716.725> 166 51<81.415 98>
LayerCount: 2
Fore
SplineSet
98 217 m 2,0,-1
 629 473 l 1,1,-1
 95 729 l 2,2,3
 81 735 81 735 81 753 c 0,4,5
 81 764 81 764 89 771.5 c 128,-1,6
 97 779 97 779 108 779 c 0,7,8
 114 779 114 779 118 778 c 2,9,-1
 704 495 l 2,10,11
 717 488 717 488 717 473 c 0,12,13
 717 455 717 455 701 448 c 2,14,-1
 118 169 l 2,15,16
 114 166 114 166 108 166 c 0,17,18
 97 166 97 166 89 174 c 128,-1,19
 81 182 81 182 81 193 c 0,20,21
 81 208 81 208 98 217 c 2,0,-1
185 -259 m 2,22,-1
 243 -197 l 1,23,-1
 106 -197 l 1,24,-1
 105 -197 l 1,25,26
 81 -193 81 -193 81 -171 c 0,27,28
 81 -160 81 -160 88.5 -153 c 128,-1,29
 96 -146 96 -146 105 -144 c 1,30,-1
 106 -144 l 1,31,-1
 293 -144 l 1,32,-1
 433 6 l 1,33,-1
 106 6 l 1,34,-1
 105 6 l 1,35,36
 96 8 96 8 88.5 15 c 128,-1,37
 81 22 81 22 81 33 c 0,38,39
 81 55 81 55 105 59 c 1,40,-1
 106 59 l 1,41,-1
 482 59 l 1,42,-1
 574 157 l 2,43,44
 583 166 583 166 593 166 c 0,45,46
 604 166 604 166 612 158 c 128,-1,47
 620 150 620 150 620 139 c 128,-1,48
 620 128 620 128 613 121 c 2,49,-1
 555 59 l 1,50,-1
 693 59 l 1,51,-1
 694 59 l 1,52,53
 717 55 717 55 717 33 c 0,54,55
 717 10 717 10 694 6 c 1,56,-1
 693 6 l 1,57,-1
 505 6 l 1,58,-1
 365 -144 l 1,59,-1
 693 -144 l 1,60,-1
 694 -144 l 1,61,62
 717 -148 717 -148 717 -171 c 0,63,64
 717 -193 717 -193 694 -197 c 1,65,-1
 693 -197 l 1,66,-1
 316 -197 l 1,67,-1
 224 -295 l 2,68,69
 215 -304 215 -304 205 -304 c 0,70,71
 194 -304 194 -304 186 -296 c 128,-1,72
 178 -288 178 -288 178 -277 c 128,-1,73
 178 -266 178 -266 185 -259 c 2,22,-1
EndSplineSet
Validated: 19457
EndChar

StartChar: notprecede
Encoding: 8832 8832 145
Width: 799
VWidth: 1000
Flags: W
HStem: 223 53<81.375 327.55>
VStem: 145 49<-226.707 -214> 604 49<715 726.707> 664 53<-50.296 38.6768 455.161 547.234>
LayerCount: 2
Fore
SplineSet
147 -191 m 1,0,-1
 347 206 l 1,1,2
 245 223 245 223 106 223 c 2,3,-1
 105 223 l 1,4,5
 96 225 96 225 88.5 232 c 128,-1,6
 81 239 81 239 81 250 c 0,7,8
 81 272 81 272 105 276 c 1,9,-1
 106 276 l 2,10,11
 277 276 277 276 396 301 c 1,12,-1
 604 715 l 2,13,14
 610 727 610 727 627 727 c 0,15,16
 637 727 637 727 645 719 c 128,-1,17
 653 711 653 711 653 701 c 0,18,19
 653 695 653 695 652 692 c 1,20,-1
 651 691 l 1,21,-1
 464 320 l 1,22,23
 648 381 648 381 664 532 c 0,24,25
 665 541 665 541 672.5 548.5 c 128,-1,26
 680 556 680 556 691 556 c 0,27,28
 703 556 703 556 710 547.5 c 128,-1,29
 717 539 717 539 717 527 c 2,30,-1
 717 526 l 1,31,32
 705 411 705 411 614 339 c 0,33,34
 587 317 587 317 547 297 c 0,35,36
 507 278 507 278 481 270 c 0,37,38
 475 268 475 268 432 255 c 0,39,40
 430 254 l 2,41,-1
 429 254 l 1,42,43
 429 252 429 252 426 244 c 1,44,45
 696 178 696 178 717 -28 c 1,46,-1
 717 -29 l 2,47,48
 717 -40 717 -40 709.5 -48.5 c 128,-1,49
 702 -57 702 -57 691 -57 c 128,-1,50
 680 -57 680 -57 672.5 -50.5 c 128,-1,51
 665 -44 665 -44 664 -34 c 0,52,53
 645 141 645 141 402 196 c 1,54,-1
 194 -214 l 1,55,-1
 194 -215 l 1,56,57
 188 -227 188 -227 171 -227 c 0,58,59
 161 -227 161 -227 153 -219 c 128,-1,60
 145 -211 145 -211 145 -201 c 0,61,62
 145 -195 145 -195 146 -192 c 1,63,-1
 147 -191 l 1,0,-1
EndSplineSet
Validated: 19457
EndChar

StartChar: notfollow
Encoding: 8833 8833 146
Width: 799
VWidth: 1000
Flags: W
HStem: 223 53<473.13 716.725>
VStem: 81 53<-48.749 40.3293 459.754 547.234> 145 49<-226.707 -214> 604 49<715 726.707>
LayerCount: 2
Fore
SplineSet
147 -191 m 1,0,-1
 333 179 l 1,1,2
 151 118 151 118 134 -34 c 0,3,4
 133 -43 133 -43 126 -50 c 128,-1,5
 119 -57 119 -57 108 -57 c 0,6,7
 96 -57 96 -57 88.5 -49 c 128,-1,8
 81 -41 81 -41 81 -29 c 2,9,-1
 81 -28 l 1,10,11
 93 87 93 87 185 160 c 0,12,13
 213 183 213 183 252 202 c 128,-1,14
 291 221 291 221 318 230 c 0,15,16
 326 232 326 232 342.5 237 c 128,-1,17
 359 242 359 242 367 244 c 1,18,-1
 368 244 l 1,19,20
 368 245 368 245 372 255 c 1,21,22
 102 319 102 319 81 527 c 1,23,24
 81 539 81 539 88.5 547.5 c 128,-1,25
 96 556 96 556 108 556 c 0,26,27
 118 556 118 556 125.5 549 c 128,-1,28
 133 542 133 542 134 532 c 0,29,30
 153 358 153 358 396 303 c 1,31,-1
 604 715 l 2,32,33
 610 727 610 727 627 727 c 0,34,35
 637 727 637 727 645 719 c 128,-1,36
 653 711 653 711 653 701 c 0,37,38
 653 695 653 695 652 692 c 1,39,-1
 651 691 l 1,40,-1
 451 293 l 1,41,42
 552 276 552 276 693 276 c 2,43,-1
 694 276 l 1,44,45
 717 272 717 272 717 250 c 0,46,47
 717 227 717 227 694 223 c 1,48,-1
 693 223 l 2,49,50
 521 223 521 223 402 198 c 1,51,-1
 194 -214 l 1,52,-1
 194 -215 l 1,53,54
 188 -227 188 -227 171 -227 c 0,55,56
 161 -227 161 -227 153 -219 c 128,-1,57
 145 -211 145 -211 145 -201 c 0,58,59
 145 -195 145 -195 146 -192 c 1,60,-1
 147 -191 l 1,0,-1
EndSplineSet
Validated: 19457
EndChar

StartChar: followsim
Encoding: 8831 8831 147
Width: 818
Flags: W
HStem: -252 72<503.403 657.417> -74 72<159.583 313.597> 430 54<423.98 733.39>
VStem: 53 41<-248.809 -146.016> 83 54<152.282 243.761 670.983 770.506> 723 41<-109.306 -5.19141>
LayerCount: 2
Fore
SplineSet
137 168 m 1,0,1
 135 158 135 158 127.5 150.5 c 128,-1,2
 120 143 120 143 109 143 c 0,3,4
 97 143 97 143 90 152 c 128,-1,5
 83 161 83 161 83 173 c 1,6,7
 105 392 105 392 402 458 c 1,8,9
 105 522 105 522 83 742 c 1,10,11
 83 753 83 753 90.5 762 c 128,-1,12
 98 771 98 771 109 771 c 128,-1,13
 120 771 120 771 127.5 764 c 128,-1,14
 135 757 135 757 137 747 c 1,15,16
 142 696 142 696 167 655 c 128,-1,17
 192 614 192 614 226.5 587 c 128,-1,18
 261 560 261 560 311.5 540 c 128,-1,19
 362 520 362 520 409 509.5 c 128,-1,20
 456 499 456 499 515 493 c 128,-1,21
 574 487 574 487 616 485.5 c 128,-1,22
 658 484 658 484 708 484 c 2,23,-1
 709 484 l 1,24,25
 734 480 734 480 734 458 c 0,26,27
 734 447 734 447 726.5 439.5 c 128,-1,28
 719 432 719 432 709 430 c 1,29,-1
 708 430 l 2,30,31
 658 430 658 430 616 428.5 c 128,-1,32
 574 427 574 427 515 421 c 128,-1,33
 456 415 456 415 409 404.5 c 128,-1,34
 362 394 362 394 311.5 374 c 128,-1,35
 261 354 261 354 226.5 327 c 128,-1,36
 192 300 192 300 167 259.5 c 128,-1,37
 142 219 142 219 137 168 c 1,0,1
53 -221 m 1,38,-1
 53 -220 l 1,39,-1
 53 -212 l 2,40,41
 53 -130 53 -130 103 -66 c 128,-1,42
 153 -2 153 -2 233 -2 c 0,43,44
 273 -2 273 -2 311.5 -20.5 c 128,-1,45
 350 -39 350 -39 381 -65 c 128,-1,46
 412 -91 412 -91 443 -117 c 128,-1,47
 474 -143 474 -143 510.5 -161.5 c 128,-1,48
 547 -180 547 -180 584 -180 c 0,49,50
 642 -180 642 -180 682.5 -136.5 c 128,-1,51
 723 -93 723 -93 723 -34 c 2,52,-1
 723 -33 l 1,53,54
 726 -11 726 -11 734 -5 c 0,55,56
 737 -2 737 -2 743 -2 c 0,57,58
 748 -2 748 -2 751 -4 c 0,59,60
 762 -11 762 -11 764 -33 c 1,61,-1
 764 -34 l 1,62,-1
 764 -42 l 2,63,64
 764 -123 764 -123 714 -187.5 c 128,-1,65
 664 -252 664 -252 584 -252 c 0,66,67
 544 -252 544 -252 505.5 -233.5 c 128,-1,68
 467 -215 467 -215 436 -189 c 128,-1,69
 405 -163 405 -163 374 -137 c 128,-1,70
 343 -111 343 -111 306.5 -92.5 c 128,-1,71
 270 -74 270 -74 233 -74 c 0,72,73
 175 -74 175 -74 134.5 -117.5 c 128,-1,74
 94 -161 94 -161 94 -220 c 2,75,-1
 94 -221 l 1,76,77
 90 -243 90 -243 83 -249 c 0,78,79
 80 -252 80 -252 74 -252 c 0,80,81
 69 -252 69 -252 66 -250 c 0,82,83
 56 -244 56 -244 53 -221 c 1,38,-1
EndSplineSet
Validated: 19457
EndChar

StartChar: precedenotsim
Encoding: 8936 8936 148
Width: 799
VWidth: 1000
Flags: W
HStem: -156 70<492.805 642.812> 18 70<156.508 305.57> 480 53<81.375 327.938>
VStem: 52 40<-152.809 -52.6146> 664 53<238.766 319.107 693.164 782.725> 706 40<-15.3854 84.8088>
LayerCount: 2
Fore
SplineSet
81 507 m 0,0,1
 81 529 81 529 105 533 c 1,2,-1
 106 533 l 2,3,4
 175 533 175 533 236.5 536.5 c 128,-1,5
 298 540 298 540 377.5 554 c 128,-1,6
 457 568 457 568 514.5 591.5 c 128,-1,7
 572 615 572 615 615 658.5 c 128,-1,8
 658 702 658 702 664 760 c 1,9,10
 668 783 668 783 691 783 c 0,11,12
 702 783 702 783 709.5 774.5 c 128,-1,13
 717 766 717 766 717 755 c 2,14,-1
 717 754 l 1,15,16
 712 701 712 701 682.5 657.5 c 128,-1,17
 653 614 653 614 607 585 c 128,-1,18
 561 556 561 556 512 537.5 c 128,-1,19
 463 519 463 519 406 507 c 1,20,21
 450 497 450 497 489.5 483.5 c 128,-1,22
 529 470 529 470 569.5 449 c 128,-1,23
 610 428 610 428 640 401.5 c 128,-1,24
 670 375 670 375 691 338.5 c 128,-1,25
 712 302 712 302 717 260 c 1,26,-1
 717 259 l 2,27,28
 717 247 717 247 710 238.5 c 128,-1,29
 703 230 703 230 691 230 c 0,30,31
 680 230 680 230 672.5 237.5 c 128,-1,32
 665 245 665 245 664 254 c 0,33,34
 639 480 639 480 106 480 c 2,35,-1
 105 480 l 1,36,37
 96 482 96 482 88.5 489 c 128,-1,38
 81 496 81 496 81 507 c 0,0,1
52 -126 m 1,39,-1
 52 -125 l 1,40,-1
 52 -117 l 2,41,42
 52 -37 52 -37 101 25.5 c 128,-1,43
 150 88 150 88 228 88 c 0,44,45
 302 88 302 88 393 11 c 1,46,-1
 499 203 l 1,47,48
 508 215 508 215 522 215 c 0,49,50
 533 215 533 215 540.5 207.5 c 128,-1,51
 548 200 548 200 548 189 c 0,52,53
 548 181 548 181 544 175 c 2,54,-1
 434 -25 l 1,55,56
 510 -86 510 -86 570 -86 c 0,57,58
 627 -86 627 -86 666.5 -43 c 128,-1,59
 706 0 706 0 706 57 c 2,60,-1
 706 58 l 1,61,62
 709 79 709 79 717 85 c 0,63,64
 720 88 720 88 726 88 c 0,65,66
 731 88 731 88 735 85 c 0,67,68
 743 79 743 79 746 58 c 1,69,-1
 746 57 l 1,70,-1
 746 49 l 2,71,72
 746 -31 746 -31 697 -93.5 c 128,-1,73
 648 -156 648 -156 570 -156 c 0,74,75
 498 -156 498 -156 404 -78 c 1,76,-1
 299 -270 l 1,77,78
 290 -282 290 -282 276 -282 c 0,79,80
 265 -282 265 -282 257.5 -274.5 c 128,-1,81
 250 -267 250 -267 250 -256 c 0,82,83
 250 -248 250 -248 254 -242 c 2,84,-1
 364 -43 l 1,85,86
 288 18 288 18 228 18 c 0,87,88
 172 18 172 18 132 -25 c 128,-1,89
 92 -68 92 -68 92 -125 c 2,90,-1
 92 -126 l 1,91,92
 88 -147 88 -147 81 -153 c 0,93,94
 76 -156 76 -156 72 -156 c 0,95,96
 67 -156 67 -156 63 -153 c 0,97,98
 54 -147 54 -147 52 -126 c 1,39,-1
EndSplineSet
Validated: 19457
EndChar

